Palanquin_ExLt.ufo
<glyph name="exclam" format="1">
  <advance width="180"/>
  <unicode hex="0021"/>
  <outline>
    <contour>
      <point x="128" y="702" type="line"/>
      <point x="64" y="702" type="line"/>
      <point x="64" y="201" type="line"/>
      <point x="115" y="180" type="line"/>
    </contour>
    <contour>
      <point x="132" y="43" type="curve"/>
      <point x="132" y="67"/>
      <point x="113" y="85"/>
      <point x="89" y="85" type="curve"/>
      <point x="65" y="85"/>
      <point x="46" y="67"/>
      <point x="46" y="43" type="curve"/>
      <point x="46" y="18"/>
      <point x="65" y="0"/>
      <point x="89" y="0" type="curve"/>
      <point x="113" y="0"/>
      <point x="132" y="18"/>
    </contour>
  </outline>
</glyph>
<glyph name="quotedbl" format="1">
  <advance width="271"/>
  <unicode hex="0022"/>
  <outline>
    <contour>
      <point x="119" y="653" type="curve"/>
      <point x="119" y="680"/>
      <point x="100" y="702"/>
      <point x="76" y="702" type="curve"/>
      <point x="49" y="702"/>
      <point x="32" y="681"/>
      <point x="32" y="658" type="curve"/>
      <point x="32" y="639"/>
      <point x="47" y="617"/>
      <point x="71" y="615" type="curve"/>
      <point x="69" y="580"/>
      <point x="46" y="555"/>
      <point x="13" y="535" type="curve"/>
      <point x="30" y="508" type="line"/>
      <point x="83" y="534"/>
      <point x="119" y="592"/>
    </contour>
    <contour>
      <point x="253" y="653" type="curve"/>
      <point x="253" y="680"/>
      <point x="235" y="702"/>
      <point x="210" y="702" type="curve"/>
      <point x="184" y="702"/>
      <point x="167" y="681"/>
      <point x="167" y="658" type="curve"/>
      <point x="167" y="639"/>
      <point x="182" y="617"/>
      <point x="207" y="615" type="curve"/>
      <point x="204" y="580"/>
      <point x="181" y="555"/>
      <point x="148" y="535" type="curve"/>
      <point x="165" y="508" type="line"/>
      <point x="218" y="534"/>
      <point x="253" y="592"/>
    </contour>
  </outline>
</glyph>
<glyph name="numbersign" format="1">
  <advance width="488"/>
  <unicode hex="0023"/>
  <outline>
    <contour>
      <point x="422" y="502" type="line"/>
      <point x="373" y="502" type="line"/>
      <point x="341" y="371" type="line"/>
      <point x="207" y="371" type="line"/>
      <point x="239" y="502" type="line"/>
      <point x="190" y="502" type="line"/>
      <point x="158" y="371" type="line"/>
      <point x="25" y="371" type="line"/>
      <point x="33" y="327" type="line"/>
      <point x="147" y="327" type="line"/>
      <point x="112" y="184" type="line"/>
      <point x="25" y="184" type="line"/>
      <point x="33" y="140" type="line"/>
      <point x="101" y="140" type="line"/>
      <point x="68" y="5" type="line"/>
      <point x="116" y="0" type="line"/>
      <point x="150" y="140" type="line"/>
      <point x="284" y="140" type="line"/>
      <point x="251" y="5" type="line"/>
      <point x="299" y="0" type="line"/>
      <point x="333" y="140" type="line"/>
      <point x="462" y="140" type="line"/>
      <point x="455" y="184" type="line"/>
      <point x="344" y="184" type="line"/>
      <point x="378" y="327" type="line"/>
      <point x="462" y="327" type="line"/>
      <point x="455" y="371" type="line"/>
      <point x="390" y="371" type="line"/>
    </contour>
    <contour>
      <point x="196" y="327" type="line"/>
      <point x="330" y="327" type="line"/>
      <point x="295" y="184" type="line"/>
      <point x="161" y="184" type="line"/>
    </contour>
  </outline>
</glyph>
<glyph name="dollar" format="1">
  <advance width="533"/>
  <unicode hex="0024"/>
  <outline>
    <contour>
      <point x="186" y="-111" type="line"/>
      <point x="229" y="-111" type="line"/>
      <point x="229" y="-12" type="line"/>
      <point x="236" y="-13"/>
      <point x="243" y="-13"/>
      <point x="249" y="-13" type="curve" smooth="yes"/>
      <point x="265" y="-13"/>
      <point x="281" y="-12"/>
      <point x="296" y="-10" type="curve"/>
      <point x="296" y="-107" type="line"/>
      <point x="340" y="-111" type="line"/>
      <point x="340" y="-2" type="line"/>
      <point x="431" y="21"/>
      <point x="480" y="82"/>
      <point x="480" y="160" type="curve" smooth="yes"/>
      <point x="480" y="349"/>
      <point x="114" y="374"/>
      <point x="114" y="530" type="curve" smooth="yes"/>
      <point x="114" y="600"/>
      <point x="173" y="649"/>
      <point x="270" y="649" type="curve" smooth="yes"/>
      <point x="340" y="649"/>
      <point x="379" y="631"/>
      <point x="414" y="615" type="curve"/>
      <point x="436" y="657" type="line"/>
      <point x="410" y="669"/>
      <point x="378" y="681"/>
      <point x="340" y="688" type="curve"/>
      <point x="340" y="800" type="line"/>
      <point x="296" y="800" type="line"/>
      <point x="296" y="694" type="line"/>
      <point x="287" y="695"/>
      <point x="278" y="696"/>
      <point x="268" y="696" type="curve" smooth="yes"/>
      <point x="255" y="696"/>
      <point x="242" y="694"/>
      <point x="229" y="693" type="curve"/>
      <point x="229" y="797" type="line"/>
      <point x="186" y="800" type="line"/>
      <point x="186" y="684" type="line"/>
      <point x="106" y="660"/>
      <point x="59" y="602"/>
      <point x="59" y="531" type="curve" smooth="yes"/>
      <point x="59" y="332"/>
      <point x="425" y="312"/>
      <point x="425" y="160" type="curve" smooth="yes"/>
      <point x="425" y="90"/>
      <point x="363" y="33"/>
      <point x="248" y="33" type="curve" smooth="yes"/>
      <point x="181" y="33"/>
      <point x="117" y="55"/>
      <point x="82" y="72" type="curve"/>
      <point x="67" y="29" type="line"/>
      <point x="83" y="15"/>
      <point x="135" y="1"/>
      <point x="186" y="-7" type="curve"/>
    </contour>
  </outline>
</glyph>
<glyph name="ampersand" format="1">
  <advance width="677"/>
  <unicode hex="0026"/>
  <outline>
    <contour>
      <point x="639" y="34" type="line"/>
      <point x="547" y="119" type="line"/>
      <point x="581" y="177"/>
      <point x="598" y="248"/>
      <point x="600" y="324" type="curve"/>
      <point x="559" y="339" type="line"/>
      <point x="557" y="273"/>
      <point x="540" y="207"/>
      <point x="510" y="153" type="curve"/>
      <point x="306" y="344" type="line" smooth="yes"/>
      <point x="236" y="409"/>
      <point x="198" y="454"/>
      <point x="198" y="526" type="curve" smooth="yes"/>
      <point x="198" y="589"/>
      <point x="249" y="649"/>
      <point x="324" y="649" type="curve" smooth="yes"/>
      <point x="390" y="649"/>
      <point x="416" y="632"/>
      <point x="450" y="616" type="curve"/>
      <point x="471" y="657" type="line"/>
      <point x="435" y="676"/>
      <point x="387" y="696"/>
      <point x="320" y="696" type="curve" smooth="yes"/>
      <point x="212" y="696"/>
      <point x="145" y="616"/>
      <point x="145" y="521" type="curve" smooth="yes"/>
      <point x="145" y="476"/>
      <point x="157" y="441"/>
      <point x="179" y="409" type="curve"/>
      <point x="115" y="368"/>
      <point x="69" y="293"/>
      <point x="69" y="203" type="curve" smooth="yes"/>
      <point x="69" y="65"/>
      <point x="176" y="-13"/>
      <point x="314" y="-13" type="curve" smooth="yes"/>
      <point x="407" y="-13"/>
      <point x="475" y="23"/>
      <point x="522" y="81" type="curve"/>
      <point x="612" y="0" type="line"/>
    </contour>
    <contour>
      <point x="315" y="33" type="curve" smooth="yes"/>
      <point x="218" y="33"/>
      <point x="123" y="93"/>
      <point x="123" y="205" type="curve" smooth="yes"/>
      <point x="123" y="277"/>
      <point x="153" y="337"/>
      <point x="207" y="373" type="curve"/>
      <point x="222" y="358"/>
      <point x="236" y="344"/>
      <point x="254" y="328" type="curve"/>
      <point x="485" y="116" type="line"/>
      <point x="445" y="65"/>
      <point x="388" y="33"/>
    </contour>
  </outline>
</glyph>
<glyph name="parenleft" format="1">
  <advance width="239"/>
  <unicode hex="0028"/>
  <outline>
    <contour>
      <point x="51" y="320" type="curve"/>
      <point x="51" y="213"/>
      <point x="86" y="71"/>
      <point x="170" y="-37" type="curve"/>
      <point x="216" y="-19" type="line"/>
      <point x="157" y="43"/>
      <point x="108" y="223"/>
      <point x="108" y="321" type="curve"/>
      <point x="108" y="417"/>
      <point x="157" y="594"/>
      <point x="216" y="657" type="curve"/>
      <point x="170" y="675" type="line"/>
      <point x="86" y="568"/>
      <point x="51" y="426"/>
    </contour>
  </outline>
</glyph>
<glyph name="parenright" format="1">
  <advance width="239"/>
  <unicode hex="0029"/>
  <outline>
    <contour>
      <point x="188" y="320" type="curve"/>
      <point x="188" y="426"/>
      <point x="151" y="568"/>
      <point x="69" y="675" type="curve"/>
      <point x="23" y="657" type="line"/>
      <point x="81" y="594"/>
      <point x="131" y="416"/>
      <point x="131" y="319" type="curve"/>
      <point x="131" y="223"/>
      <point x="81" y="43"/>
      <point x="23" y="-19" type="curve"/>
      <point x="69" y="-37" type="line"/>
      <point x="151" y="71"/>
      <point x="188" y="213"/>
    </contour>
  </outline>
</glyph>
<glyph name="asterisk" format="1">
  <advance width="321"/>
  <unicode hex="002A"/>
  <outline>
    <contour>
      <point x="181" y="656" type="line"/>
      <point x="181" y="774" type="line"/>
      <point x="139" y="774" type="line"/>
      <point x="139" y="656" type="line"/>
      <point x="20" y="685" type="line"/>
      <point x="8" y="649" type="line"/>
      <point x="127" y="623" type="line"/>
      <point x="44" y="501" type="line"/>
      <point x="80" y="480" type="line"/>
      <point x="161" y="596" type="line"/>
      <point x="244" y="480" type="line"/>
      <point x="277" y="501" type="line"/>
      <point x="194" y="623" type="line"/>
      <point x="314" y="649" type="line"/>
      <point x="301" y="685" type="line"/>
    </contour>
  </outline>
</glyph>
<glyph name="plus" format="1">
  <advance width="521"/>
  <unicode hex="002B"/>
  <outline>
    <contour>
      <point x="496" y="251" type="line"/>
      <point x="486" y="295" type="line"/>
      <point x="286" y="295" type="line"/>
      <point x="286" y="531" type="line"/>
      <point x="233" y="534" type="line"/>
      <point x="233" y="295" type="line"/>
      <point x="25" y="295" type="line"/>
      <point x="33" y="251" type="line"/>
      <point x="233" y="251" type="line"/>
      <point x="233" y="8" type="line"/>
      <point x="286" y="4" type="line"/>
      <point x="286" y="251" type="line"/>
    </contour>
  </outline>
</glyph>
<glyph name="comma" format="1">
  <advance width="146"/>
  <unicode hex="002C"/>
  <outline>
    <contour>
      <point x="124" y="37" type="curve"/>
      <point x="124" y="64"/>
      <point x="106" y="85"/>
      <point x="80" y="85" type="curve"/>
      <point x="54" y="85"/>
      <point x="37" y="65"/>
      <point x="37" y="42" type="curve"/>
      <point x="37" y="23"/>
      <point x="52" y="1"/>
      <point x="77" y="0" type="curve"/>
      <point x="75" y="-36"/>
      <point x="51" y="-61"/>
      <point x="18" y="-81" type="curve"/>
      <point x="35" y="-108" type="line"/>
      <point x="88" y="-82"/>
      <point x="124" y="-24"/>
    </contour>
  </outline>
</glyph>
<glyph name="hyphen" format="1">
  <advance width="299"/>
  <unicode hex="002D"/>
  <outline>
    <contour>
      <point x="276" y="250" type="line"/>
      <point x="268" y="295" type="line"/>
      <point x="23" y="295" type="line"/>
      <point x="31" y="250" type="line"/>
    </contour>
  </outline>
</glyph>
<glyph name="period" format="1">
  <advance width="132"/>
  <unicode hex="002E"/>
  <outline>
    <contour>
      <point x="109" y="43" type="curve"/>
      <point x="109" y="67"/>
      <point x="89" y="85"/>
      <point x="66" y="85" type="curve"/>
      <point x="41" y="85"/>
      <point x="23" y="67"/>
      <point x="23" y="43" type="curve"/>
      <point x="23" y="18"/>
      <point x="41" y="0"/>
      <point x="66" y="0" type="curve"/>
      <point x="89" y="0"/>
      <point x="109" y="18"/>
    </contour>
  </outline>
</glyph>
<glyph name="slash" format="1">
  <advance width="376"/>
  <unicode hex="002F"/>
  <outline>
    <contour>
      <point x="368" y="706" type="line"/>
      <point x="316" y="710" type="line"/>
      <point x="8" y="0" type="line"/>
      <point x="59" y="-4" type="line"/>
    </contour>
  </outline>
</glyph>
<glyph name="zero" format="1">
  <advance width="580"/>
  <unicode hex="0030"/>
  <outline>
    <contour>
      <point x="291" y="579" type="curve"/>
      <point x="151" y="579"/>
      <point x="58" y="469"/>
      <point x="58" y="288" type="curve"/>
      <point x="58" y="102"/>
      <point x="151" y="-13"/>
      <point x="291" y="-13" type="curve"/>
      <point x="429" y="-13"/>
      <point x="522" y="107"/>
      <point x="522" y="289" type="curve"/>
      <point x="522" y="475"/>
      <point x="432" y="579"/>
    </contour>
    <contour>
      <point x="291" y="34" type="curve"/>
      <point x="188" y="34"/>
      <point x="116" y="134"/>
      <point x="116" y="291" type="curve"/>
      <point x="116" y="440"/>
      <point x="189" y="532"/>
      <point x="291" y="532" type="curve"/>
      <point x="394" y="532"/>
      <point x="464" y="441"/>
      <point x="464" y="286" type="curve"/>
      <point x="464" y="136"/>
      <point x="390" y="34"/>
    </contour>
  </outline>
</glyph>
<glyph name="one" format="1">
  <advance width="373"/>
  <unicode hex="0031"/>
  <outline>
    <contour>
      <point x="323" y="0" type="line"/>
      <point x="316" y="44" type="line"/>
      <point x="224" y="44" type="line"/>
      <point x="224" y="566" type="line"/>
      <point x="186" y="566" type="line"/>
      <point x="61" y="481" type="line"/>
      <point x="84" y="441" type="line"/>
      <point x="168" y="498" type="line"/>
      <point x="168" y="44" type="line"/>
      <point x="58" y="44" type="line"/>
      <point x="67" y="0" type="line"/>
    </contour>
  </outline>
</glyph>
<glyph name="two" format="1">
  <advance width="484"/>
  <unicode hex="0032"/>
  <outline>
    <contour>
      <point x="411" y="415" type="curve"/>
      <point x="411" y="490"/>
      <point x="361" y="579"/>
      <point x="224" y="579" type="curve"/>
      <point x="133" y="579"/>
      <point x="65" y="527"/>
      <point x="63" y="527" type="curve"/>
      <point x="88" y="487" type="line"/>
      <point x="89" y="488"/>
      <point x="155" y="533"/>
      <point x="222" y="533" type="curve"/>
      <point x="310" y="533"/>
      <point x="352" y="481"/>
      <point x="352" y="414" type="curve"/>
      <point x="352" y="354"/>
      <point x="322" y="317"/>
      <point x="235" y="238" type="curve"/>
      <point x="30" y="50" type="line"/>
      <point x="30" y="0" type="line"/>
      <point x="435" y="0" type="line"/>
      <point x="427" y="44" type="line"/>
      <point x="93" y="44" type="line"/>
      <point x="262" y="196" type="line" smooth="yes"/>
      <point x="358" y="281"/>
      <point x="411" y="340"/>
    </contour>
  </outline>
</glyph>
<glyph name="three" format="1">
  <advance width="493"/>
  <unicode hex="0033"/>
  <outline>
    <contour>
      <point x="422" y="417" type="curve"/>
      <point x="422" y="502"/>
      <point x="359" y="579"/>
      <point x="230" y="579" type="curve"/>
      <point x="150" y="579"/>
      <point x="88" y="553"/>
      <point x="36" y="520" type="curve"/>
      <point x="67" y="484" type="line"/>
      <point x="99" y="505"/>
      <point x="154" y="533"/>
      <point x="227" y="533" type="curve"/>
      <point x="312" y="533"/>
      <point x="364" y="475"/>
      <point x="364" y="416" type="curve"/>
      <point x="364" y="339"/>
      <point x="297" y="287"/>
      <point x="185" y="287" type="curve"/>
      <point x="151" y="287" type="line"/>
      <point x="161" y="245" type="line"/>
      <point x="179" y="245" type="line" smooth="yes"/>
      <point x="318" y="245"/>
      <point x="376" y="190"/>
      <point x="376" y="104" type="curve"/>
      <point x="376" y="22"/>
      <point x="298" y="-30"/>
      <point x="218" y="-30" type="curve"/>
      <point x="144" y="-30"/>
      <point x="105" y="-13"/>
      <point x="58" y="15" type="curve"/>
      <point x="25" y="-24" type="line"/>
      <point x="71" y="-49"/>
      <point x="140" y="-76"/>
      <point x="215" y="-76" type="curve"/>
      <point x="350" y="-76"/>
      <point x="434" y="3"/>
      <point x="434" y="106" type="curve"/>
      <point x="434" y="188"/>
      <point x="383" y="250"/>
      <point x="308" y="268" type="curve"/>
      <point x="371" y="288"/>
      <point x="422" y="344"/>
    </contour>
  </outline>
</glyph>
<glyph name="four" format="1">
  <advance width="533"/>
  <unicode hex="0034"/>
  <outline>
    <contour>
      <point x="494" y="74" type="line"/>
      <point x="502" y="119" type="line"/>
      <point x="392" y="119" type="line"/>
      <point x="392" y="571" type="line"/>
      <point x="357" y="571" type="line"/>
      <point x="20" y="125" type="line"/>
      <point x="29" y="74" type="line"/>
      <point x="336" y="74" type="line"/>
      <point x="336" y="-69" type="line"/>
      <point x="392" y="-69" type="line"/>
      <point x="392" y="74" type="line"/>
    </contour>
    <contour>
      <point x="79" y="119" type="line"/>
      <point x="336" y="463" type="line"/>
      <point x="336" y="119" type="line"/>
    </contour>
  </outline>
</glyph>
<glyph name="five" format="1">
  <advance width="521"/>
  <unicode hex="0035"/>
  <outline>
    <contour>
      <point x="86" y="230" type="line"/>
      <point x="136" y="230" type="line"/>
      <point x="160" y="254"/>
      <point x="207" y="284"/>
      <point x="261" y="284" type="curve"/>
      <point x="349" y="284"/>
      <point x="406" y="227"/>
      <point x="406" y="130" type="curve"/>
      <point x="406" y="34"/>
      <point x="343" y="-30"/>
      <point x="238" y="-30" type="curve"/>
      <point x="171" y="-30"/>
      <point x="125" y="-13"/>
      <point x="78" y="15" type="curve"/>
      <point x="50" y="-25" type="line"/>
      <point x="97" y="-50"/>
      <point x="160" y="-76"/>
      <point x="234" y="-76" type="curve"/>
      <point x="386" y="-76"/>
      <point x="465" y="19"/>
      <point x="465" y="130" type="curve"/>
      <point x="465" y="239"/>
      <point x="405" y="330"/>
      <point x="257" y="330" type="curve"/>
      <point x="222" y="330"/>
      <point x="179" y="316"/>
      <point x="143" y="291" type="curve"/>
      <point x="154" y="520" type="line"/>
      <point x="421" y="520" type="line"/>
      <point x="426" y="566" type="line"/>
      <point x="101" y="566" type="line"/>
    </contour>
  </outline>
</glyph>
<glyph name="six" format="1">
  <advance width="523"/>
  <unicode hex="0036"/>
  <outline>
    <contour>
      <point x="364" y="599" type="curve"/>
      <point x="339" y="634" type="line"/>
      <point x="172" y="594"/>
      <point x="58" y="408"/>
      <point x="58" y="260" type="curve"/>
      <point x="58" y="82"/>
      <point x="146" y="-13"/>
      <point x="278" y="-13" type="curve"/>
      <point x="396" y="-13"/>
      <point x="476" y="85"/>
      <point x="476" y="190" type="curve"/>
      <point x="476" y="292"/>
      <point x="403" y="387"/>
      <point x="277" y="387" type="curve"/>
      <point x="216" y="387"/>
      <point x="152" y="355"/>
      <point x="118" y="311" type="curve"/>
      <point x="143" y="448"/>
      <point x="241" y="566"/>
    </contour>
    <contour>
      <point x="277" y="341" type="curve"/>
      <point x="367" y="341"/>
      <point x="420" y="270"/>
      <point x="420" y="185" type="curve"/>
      <point x="420" y="109"/>
      <point x="366" y="34"/>
      <point x="276" y="34" type="curve"/>
      <point x="169" y="34"/>
      <point x="118" y="122"/>
      <point x="116" y="248" type="curve"/>
      <point x="145" y="295"/>
      <point x="203" y="341"/>
    </contour>
  </outline>
</glyph>
<glyph name="seven" format="1">
  <advance width="470"/>
  <unicode hex="0037"/>
  <outline>
    <contour>
      <point x="57" y="-49" type="line"/>
      <point x="110" y="-69" type="line"/>
      <point x="440" y="537" type="line"/>
      <point x="418" y="566" type="line"/>
      <point x="41" y="566" type="line"/>
      <point x="49" y="520" type="line"/>
      <point x="376" y="520" type="line"/>
    </contour>
  </outline>
</glyph>
<glyph name="eight" format="1">
  <advance width="540"/>
  <unicode hex="0038"/>
  <outline>
    <contour>
      <point x="459" y="481" type="curve"/>
      <point x="459" y="563"/>
      <point x="400" y="643"/>
      <point x="270" y="643" type="curve"/>
      <point x="142" y="643"/>
      <point x="81" y="566"/>
      <point x="81" y="481" type="curve"/>
      <point x="81" y="414"/>
      <point x="129" y="363"/>
      <point x="190" y="339" type="curve"/>
      <point x="114" y="321"/>
      <point x="53" y="241"/>
      <point x="53" y="169" type="curve"/>
      <point x="53" y="69"/>
      <point x="125" y="-13"/>
      <point x="270" y="-13" type="curve"/>
      <point x="414" y="-13"/>
      <point x="487" y="72"/>
      <point x="487" y="169" type="curve"/>
      <point x="487" y="253"/>
      <point x="422" y="322"/>
      <point x="351" y="339" type="curve"/>
      <point x="404" y="363"/>
      <point x="459" y="412"/>
    </contour>
    <contour>
      <point x="110" y="164" type="curve"/>
      <point x="110" y="240"/>
      <point x="163" y="302"/>
      <point x="270" y="316" type="curve"/>
      <point x="376" y="302"/>
      <point x="429" y="240"/>
      <point x="429" y="164" type="curve"/>
      <point x="429" y="86"/>
      <point x="357" y="33"/>
      <point x="270" y="33" type="curve"/>
      <point x="179" y="33"/>
      <point x="110" y="87"/>
    </contour>
    <contour>
      <point x="137" y="481" type="curve"/>
      <point x="137" y="540"/>
      <point x="177" y="597"/>
      <point x="267" y="597" type="curve"/>
      <point x="361" y="597"/>
      <point x="403" y="542"/>
      <point x="403" y="481" type="curve"/>
      <point x="403" y="427"/>
      <point x="354" y="372"/>
      <point x="270" y="360" type="curve"/>
      <point x="184" y="372"/>
      <point x="137" y="425"/>
    </contour>
  </outline>
</glyph>
<glyph name="nine" format="1">
  <advance width="523"/>
  <unicode hex="0039"/>
  <outline>
    <contour>
      <point x="245" y="178" type="curve"/>
      <point x="305" y="178"/>
      <point x="370" y="211"/>
      <point x="404" y="254" type="curve"/>
      <point x="379" y="117"/>
      <point x="282" y="-2"/>
      <point x="158" y="-33" type="curve"/>
      <point x="183" y="-69" type="line"/>
      <point x="350" y="-29"/>
      <point x="464" y="157"/>
      <point x="464" y="304" type="curve"/>
      <point x="464" y="484"/>
      <point x="376" y="578"/>
      <point x="244" y="578" type="curve"/>
      <point x="126" y="578"/>
      <point x="46" y="480"/>
      <point x="46" y="375" type="curve"/>
      <point x="46" y="273"/>
      <point x="119" y="178"/>
    </contour>
    <contour>
      <point x="246" y="532" type="curve"/>
      <point x="353" y="532"/>
      <point x="403" y="443"/>
      <point x="406" y="317" type="curve"/>
      <point x="377" y="271"/>
      <point x="319" y="224"/>
      <point x="245" y="224" type="curve"/>
      <point x="155" y="224"/>
      <point x="103" y="296"/>
      <point x="103" y="380" type="curve"/>
      <point x="103" y="456"/>
      <point x="156" y="532"/>
    </contour>
  </outline>
</glyph>
<glyph name="colon" format="1">
  <advance width="132"/>
  <unicode hex="003A"/>
  <outline>
    <contour>
      <point x="23" y="402" type="curve"/>
      <point x="23" y="378"/>
      <point x="41" y="360"/>
      <point x="65" y="360" type="curve"/>
      <point x="89" y="360"/>
      <point x="109" y="378"/>
      <point x="109" y="402" type="curve"/>
      <point x="109" y="426"/>
      <point x="89" y="446"/>
      <point x="65" y="446" type="curve"/>
      <point x="41" y="446"/>
      <point x="23" y="426"/>
    </contour>
    <contour>
      <point x="23" y="84" type="curve"/>
      <point x="23" y="59"/>
      <point x="41" y="41"/>
      <point x="65" y="41" type="curve"/>
      <point x="89" y="41"/>
      <point x="109" y="59"/>
      <point x="109" y="84" type="curve"/>
      <point x="109" y="108"/>
      <point x="89" y="127"/>
      <point x="65" y="127" type="curve"/>
      <point x="41" y="127"/>
      <point x="23" y="108"/>
    </contour>
  </outline>
</glyph>
<glyph name="semicolon" format="1">
  <advance width="147"/>
  <unicode hex="003B"/>
  <outline>
    <contour>
      <point x="38" y="402" type="curve"/>
      <point x="38" y="378"/>
      <point x="56" y="360"/>
      <point x="81" y="360" type="curve"/>
      <point x="105" y="360"/>
      <point x="124" y="378"/>
      <point x="124" y="402" type="curve"/>
      <point x="124" y="426"/>
      <point x="105" y="446"/>
      <point x="81" y="446" type="curve"/>
      <point x="56" y="446"/>
      <point x="38" y="426"/>
    </contour>
    <contour>
      <point x="124" y="77" type="curve"/>
      <point x="124" y="105"/>
      <point x="106" y="127"/>
      <point x="80" y="127" type="curve"/>
      <point x="54" y="127"/>
      <point x="37" y="107"/>
      <point x="37" y="83" type="curve"/>
      <point x="37" y="64"/>
      <point x="52" y="42"/>
      <point x="77" y="41" type="curve"/>
      <point x="75" y="5"/>
      <point x="51" y="-20"/>
      <point x="18" y="-40" type="curve"/>
      <point x="35" y="-67" type="line"/>
      <point x="88" y="-42"/>
      <point x="124" y="17"/>
    </contour>
  </outline>
</glyph>
<glyph name="less" format="1">
  <advance width="318"/>
  <unicode hex="003C"/>
  <outline>
    <contour>
      <point x="269" y="19" type="line"/>
      <point x="292" y="59" type="line"/>
      <point x="71" y="245" type="line"/>
      <point x="292" y="431" type="line"/>
      <point x="269" y="470" type="line"/>
      <point x="20" y="264" type="line"/>
      <point x="20" y="226" type="line"/>
    </contour>
  </outline>
</glyph>
<glyph name="equal" format="1">
  <advance width="488"/>
  <unicode hex="003D"/>
  <outline>
    <contour>
      <point x="462" y="327" type="line"/>
      <point x="455" y="371" type="line"/>
      <point x="25" y="371" type="line"/>
      <point x="33" y="327" type="line"/>
    </contour>
    <contour>
      <point x="462" y="140" type="line"/>
      <point x="455" y="184" type="line"/>
      <point x="25" y="184" type="line"/>
      <point x="33" y="140" type="line"/>
    </contour>
  </outline>
</glyph>
<glyph name="greater" format="1">
  <advance width="318"/>
  <unicode hex="003E"/>
  <outline>
    <contour>
      <point x="48" y="470" type="line"/>
      <point x="25" y="430" type="line"/>
      <point x="246" y="244" type="line"/>
      <point x="25" y="58" type="line"/>
      <point x="48" y="19" type="line"/>
      <point x="298" y="225" type="line"/>
      <point x="298" y="263" type="line"/>
    </contour>
  </outline>
</glyph>
<glyph name="question" format="1">
  <advance width="393"/>
  <unicode hex="003F"/>
  <outline>
    <contour>
      <point x="371" y="538" type="curve"/>
      <point x="371" y="634"/>
      <point x="315" y="702"/>
      <point x="189" y="702" type="curve"/>
      <point x="110" y="702"/>
      <point x="57" y="673"/>
      <point x="13" y="641" type="curve"/>
      <point x="21" y="593" type="line"/>
      <point x="73" y="630"/>
      <point x="114" y="654"/>
      <point x="187" y="654" type="curve"/>
      <point x="267" y="654"/>
      <point x="312" y="617"/>
      <point x="312" y="537" type="curve"/>
      <point x="312" y="460"/>
      <point x="242" y="397"/>
      <point x="138" y="363" type="curve"/>
      <point x="145" y="157" type="line"/>
      <point x="185" y="138" type="line"/>
      <point x="194" y="332" type="line"/>
      <point x="305" y="382"/>
      <point x="371" y="462"/>
    </contour>
    <contour>
      <point x="204" y="43" type="curve"/>
      <point x="204" y="67"/>
      <point x="184" y="85"/>
      <point x="160" y="85" type="curve"/>
      <point x="135" y="85"/>
      <point x="118" y="67"/>
      <point x="118" y="43" type="curve"/>
      <point x="118" y="18"/>
      <point x="135" y="0"/>
      <point x="160" y="0" type="curve"/>
      <point x="184" y="0"/>
      <point x="204" y="18"/>
    </contour>
  </outline>
</glyph>
<glyph name="at" format="1">
  <advance width="787"/>
  <unicode hex="0040"/>
  <outline>
    <contour>
      <point x="573" y="63" type="curve" smooth="yes"/>
      <point x="674" y="63"/>
      <point x="737" y="144"/>
      <point x="737" y="304" type="curve" smooth="yes"/>
      <point x="737" y="471"/>
      <point x="613" y="594"/>
      <point x="432" y="594" type="curve" smooth="yes"/>
      <point x="188" y="594"/>
      <point x="50" y="421"/>
      <point x="50" y="213" type="curve" smooth="yes"/>
      <point x="50" y="20"/>
      <point x="198" y="-101"/>
      <point x="363" y="-101" type="curve" smooth="yes"/>
      <point x="429" y="-101"/>
      <point x="496" y="-91"/>
      <point x="552" y="-62" type="curve"/>
      <point x="537" y="-20" type="line"/>
      <point x="495" y="-43"/>
      <point x="431" y="-55"/>
      <point x="374" y="-55" type="curve" smooth="yes"/>
      <point x="224" y="-55"/>
      <point x="106" y="46"/>
      <point x="106" y="214" type="curve" smooth="yes"/>
      <point x="106" y="419"/>
      <point x="250" y="549"/>
      <point x="429" y="549" type="curve" smooth="yes"/>
      <point x="589" y="549"/>
      <point x="686" y="446"/>
      <point x="686" y="297" type="curve" smooth="yes"/>
      <point x="686" y="173"/>
      <point x="639" y="107"/>
      <point x="578" y="107" type="curve" smooth="yes"/>
      <point x="545" y="107"/>
      <point x="520" y="125"/>
      <point x="520" y="176" type="curve" smooth="yes"/>
      <point x="520" y="178"/>
      <point x="520" y="180"/>
      <point x="521" y="183" type="curve"/>
      <point x="545" y="384" type="line"/>
      <point x="526" y="406" type="line"/>
      <point x="455" y="406" type="line" smooth="yes"/>
      <point x="339" y="406"/>
      <point x="238" y="327"/>
      <point x="238" y="211" type="curve" smooth="yes"/>
      <point x="238" y="125"/>
      <point x="295" y="66"/>
      <point x="397" y="66" type="curve" smooth="yes"/>
      <point x="431" y="66"/>
      <point x="468" y="81"/>
      <point x="493" y="99" type="curve"/>
      <point x="511" y="76"/>
      <point x="539" y="63"/>
    </contour>
    <contour>
      <point x="397" y="107" type="curve" smooth="yes"/>
      <point x="328" y="107"/>
      <point x="293" y="153"/>
      <point x="293" y="211" type="curve" smooth="yes"/>
      <point x="293" y="307"/>
      <point x="366" y="367"/>
      <point x="450" y="367" type="curve" smooth="yes"/>
      <point x="495" y="367" type="line"/>
      <point x="472" y="190" type="line"/>
      <point x="472" y="182"/>
      <point x="471" y="174"/>
      <point x="471" y="167" type="curve" smooth="yes"/>
      <point x="471" y="154"/>
      <point x="472" y="143"/>
      <point x="475" y="132" type="curve"/>
      <point x="457" y="117"/>
      <point x="428" y="107"/>
    </contour>
  </outline>
</glyph>
<glyph name="A" format="1">
  <advance width="588"/>
  <unicode hex="0041"/>
  <outline>
    <contour>
      <point x="315" y="680" type="line"/>
      <point x="260" y="680" type="line"/>
      <point x="13" y="0" type="line"/>
      <point x="67" y="0" type="line"/>
      <point x="143" y="208" type="line"/>
      <point x="439" y="208" type="line"/>
      <point x="519" y="0" type="line"/>
      <point x="575" y="10" type="line"/>
    </contour>
    <contour>
      <point x="288" y="607" type="line"/>
      <point x="423" y="253" type="line"/>
      <point x="158" y="253" type="line"/>
    </contour>
  </outline>
</glyph>
<glyph name="B" format="1">
  <advance width="594"/>
  <unicode hex="0042"/>
  <outline>
    <contour>
      <point x="102" y="0" type="line"/>
      <point x="282" y="0" type="line" smooth="yes"/>
      <point x="423" y="0"/>
      <point x="538" y="44"/>
      <point x="538" y="188" type="curve"/>
      <point x="538" y="283"/>
      <point x="482" y="337"/>
      <point x="399" y="362" type="curve"/>
      <point x="454" y="389"/>
      <point x="490" y="435"/>
      <point x="490" y="503" type="curve"/>
      <point x="490" y="640"/>
      <point x="389" y="680"/>
      <point x="245" y="680" type="curve"/>
      <point x="102" y="680" type="line"/>
    </contour>
    <contour>
      <point x="300" y="330" type="line" smooth="yes"/>
      <point x="410" y="330"/>
      <point x="481" y="288"/>
      <point x="481" y="186" type="curve"/>
      <point x="481" y="80"/>
      <point x="396" y="45"/>
      <point x="289" y="45" type="curve"/>
      <point x="158" y="45" type="line"/>
      <point x="158" y="330" type="line"/>
    </contour>
    <contour>
      <point x="252" y="634" type="line" smooth="yes"/>
      <point x="362" y="634"/>
      <point x="433" y="607"/>
      <point x="433" y="502" type="curve"/>
      <point x="433" y="405"/>
      <point x="354" y="376"/>
      <point x="249" y="375" type="curve"/>
      <point x="158" y="375" type="line"/>
      <point x="158" y="634" type="line"/>
    </contour>
  </outline>
</glyph>
<glyph name="C" format="1">
  <advance width="584"/>
  <unicode hex="0043"/>
  <outline>
    <contour>
      <point x="363" y="645" type="curve"/>
      <point x="435" y="645"/>
      <point x="467" y="633"/>
      <point x="508" y="616" type="curve"/>
      <point x="528" y="657" type="line"/>
      <point x="490" y="683"/>
      <point x="404" y="694"/>
      <point x="363" y="694" type="curve"/>
      <point x="166" y="694"/>
      <point x="69" y="536"/>
      <point x="69" y="336" type="curve"/>
      <point x="69" y="150"/>
      <point x="148" y="-14"/>
      <point x="357" y="-14" type="curve"/>
      <point x="414" y="-14"/>
      <point x="490" y="3"/>
      <point x="528" y="23" type="curve"/>
      <point x="504" y="65" type="line"/>
      <point x="468" y="49"/>
      <point x="426" y="35"/>
      <point x="354" y="35" type="curve"/>
      <point x="198" y="35"/>
      <point x="130" y="174"/>
      <point x="130" y="337" type="curve"/>
      <point x="130" y="521"/>
      <point x="220" y="644"/>
    </contour>
  </outline>
</glyph>
<glyph name="D" format="1">
  <advance width="675"/>
  <unicode hex="0044"/>
  <outline>
    <contour>
      <point x="102" y="0" type="line"/>
      <point x="309" y="0" type="line" smooth="yes"/>
      <point x="508" y="0"/>
      <point x="605" y="154"/>
      <point x="605" y="344" type="curve"/>
      <point x="605" y="530"/>
      <point x="525" y="680"/>
      <point x="315" y="680" type="curve"/>
      <point x="102" y="680" type="line"/>
    </contour>
    <contour>
      <point x="321" y="634" type="line" smooth="yes"/>
      <point x="477" y="634"/>
      <point x="550" y="505"/>
      <point x="550" y="343" type="curve"/>
      <point x="550" y="167"/>
      <point x="454" y="45"/>
      <point x="311" y="45" type="curve"/>
      <point x="158" y="45" type="line"/>
      <point x="158" y="634" type="line"/>
    </contour>
  </outline>
</glyph>
<glyph name="E" format="1">
  <advance width="519"/>
  <unicode hex="0045"/>
  <outline>
    <contour>
      <point x="102" y="0" type="line"/>
      <point x="484" y="0" type="line"/>
      <point x="478" y="44" type="line"/>
      <point x="158" y="44" type="line"/>
      <point x="158" y="327" type="line"/>
      <point x="363" y="327" type="line"/>
      <point x="358" y="369" type="line"/>
      <point x="158" y="369" type="line"/>
      <point x="158" y="638" type="line"/>
      <point x="461" y="638" type="line"/>
      <point x="456" y="680" type="line"/>
      <point x="102" y="680" type="line"/>
    </contour>
  </outline>
</glyph>
<glyph name="F" format="1">
  <advance width="477"/>
  <unicode hex="0046"/>
  <outline>
    <contour>
      <point x="353" y="323" type="line"/>
      <point x="347" y="365" type="line"/>
      <point x="158" y="365" type="line"/>
      <point x="158" y="638" type="line"/>
      <point x="452" y="638" type="line"/>
      <point x="445" y="680" type="line"/>
      <point x="102" y="680" type="line"/>
      <point x="102" y="0" type="line"/>
      <point x="158" y="0" type="line"/>
      <point x="158" y="323" type="line"/>
    </contour>
  </outline>
</glyph>
<glyph name="H" format="1">
  <advance width="653"/>
  <unicode hex="0048"/>
  <outline>
    <contour>
      <point x="495" y="0" type="line"/>
      <point x="550" y="0" type="line"/>
      <point x="550" y="680" type="line"/>
      <point x="495" y="680" type="line"/>
      <point x="495" y="366" type="line"/>
      <point x="158" y="366" type="line"/>
      <point x="158" y="685" type="line"/>
      <point x="102" y="680" type="line"/>
      <point x="102" y="0" type="line"/>
      <point x="158" y="0" type="line"/>
      <point x="158" y="322" type="line"/>
      <point x="495" y="322" type="line"/>
    </contour>
  </outline>
</glyph>
<glyph name="I" format="1">
  <advance width="260"/>
  <unicode hex="0049"/>
  <outline>
    <contour>
      <point x="102" y="0" type="line"/>
      <point x="158" y="0" type="line"/>
      <point x="158" y="680" type="line"/>
      <point x="102" y="680" type="line"/>
    </contour>
  </outline>
</glyph>
<glyph name="J" format="1">
  <advance width="260"/>
  <unicode hex="004A"/>
  <outline>
    <contour>
      <point x="107" y="134" type="line" smooth="yes"/>
      <point x="107" y="53"/>
      <point x="87" y="40"/>
      <point x="20" y="15" type="curve"/>
      <point x="44" y="-22" type="line"/>
      <point x="140" y="8"/>
      <point x="162" y="41"/>
      <point x="162" y="122" type="curve"/>
      <point x="162" y="680" type="line"/>
      <point x="107" y="680" type="line"/>
    </contour>
  </outline>
</glyph>
<glyph name="K" format="1">
  <advance width="591"/>
  <unicode hex="004B"/>
  <outline>
    <contour>
      <point x="516" y="660" type="line"/>
      <point x="479" y="695" type="line"/>
      <point x="158" y="330" type="line"/>
      <point x="158" y="680" type="line"/>
      <point x="102" y="680" type="line"/>
      <point x="102" y="0" type="line"/>
      <point x="158" y="0" type="line"/>
      <point x="158" y="263" type="line"/>
      <point x="240" y="354" type="line"/>
      <point x="513" y="0" type="line"/>
      <point x="581" y="0" type="line"/>
      <point x="276" y="394" type="line"/>
    </contour>
  </outline>
</glyph>
<glyph name="L" format="1">
  <advance width="499"/>
  <unicode hex="004C"/>
  <outline>
    <contour>
      <point x="478" y="0" type="line"/>
      <point x="473" y="44" type="line"/>
      <point x="158" y="44" type="line"/>
      <point x="158" y="680" type="line"/>
      <point x="102" y="680" type="line"/>
      <point x="102" y="0" type="line"/>
    </contour>
  </outline>
</glyph>
<glyph name="M" format="1">
  <advance width="751"/>
  <unicode hex="004D"/>
  <outline>
    <contour>
      <point x="367" y="237" type="line"/>
      <point x="387" y="241" type="line"/>
      <point x="593" y="559" type="line"/>
      <point x="593" y="0" type="line"/>
      <point x="649" y="0" type="line"/>
      <point x="649" y="680" type="line"/>
      <point x="615" y="680" type="line"/>
      <point x="375" y="320" type="line"/>
      <point x="131" y="680" type="line"/>
      <point x="102" y="680" type="line"/>
      <point x="102" y="0" type="line"/>
      <point x="158" y="0" type="line"/>
      <point x="158" y="554" type="line"/>
    </contour>
  </outline>
</glyph>
<glyph name="N" format="1">
  <advance width="680"/>
  <unicode hex="004E"/>
  <outline>
    <contour>
      <point x="102" y="0" type="line"/>
      <point x="158" y="0" type="line"/>
      <point x="158" y="567" type="line"/>
      <point x="172" y="538" type="line"/>
      <point x="545" y="0" type="line"/>
      <point x="579" y="0" type="line"/>
      <point x="579" y="680" type="line"/>
      <point x="523" y="680" type="line"/>
      <point x="523" y="120" type="line"/>
      <point x="489" y="179" type="line"/>
      <point x="137" y="680" type="line"/>
      <point x="102" y="680" type="line"/>
    </contour>
  </outline>
</glyph>
<glyph name="O" format="1">
  <advance width="717"/>
  <unicode hex="004F"/>
  <outline>
    <contour>
      <point x="648" y="345" type="curve"/>
      <point x="648" y="531"/>
      <point x="565" y="696"/>
      <point x="362" y="696" type="curve" smooth="yes"/>
      <point x="170" y="696"/>
      <point x="69" y="537"/>
      <point x="69" y="337" type="curve"/>
      <point x="69" y="152"/>
      <point x="152" y="-14"/>
      <point x="356" y="-14" type="curve" smooth="yes"/>
      <point x="549" y="-14"/>
      <point x="648" y="156"/>
    </contour>
    <contour>
      <point x="354" y="34" type="curve"/>
      <point x="198" y="34"/>
      <point x="130" y="175"/>
      <point x="130" y="338" type="curve"/>
      <point x="130" y="514"/>
      <point x="220" y="647"/>
      <point x="363" y="647" type="curve"/>
      <point x="520" y="647"/>
      <point x="587" y="507"/>
      <point x="587" y="344" type="curve"/>
      <point x="587" y="167"/>
      <point x="498" y="34"/>
    </contour>
  </outline>
</glyph>
<glyph name="P" format="1">
  <advance width="569"/>
  <unicode hex="0050"/>
  <outline>
    <contour>
      <point x="102" y="0" type="line"/>
      <point x="158" y="0" type="line"/>
      <point x="158" y="264" type="line"/>
      <point x="261" y="264" type="line" smooth="yes"/>
      <point x="403" y="264"/>
      <point x="517" y="328"/>
      <point x="517" y="475" type="curve" smooth="yes"/>
      <point x="517" y="624"/>
      <point x="414" y="680"/>
      <point x="272" y="680" type="curve"/>
      <point x="102" y="680" type="line"/>
    </contour>
    <contour>
      <point x="279" y="633" type="line" smooth="yes"/>
      <point x="389" y="633"/>
      <point x="460" y="592"/>
      <point x="460" y="474" type="curve"/>
      <point x="460" y="360"/>
      <point x="375" y="310"/>
      <point x="268" y="310" type="curve"/>
      <point x="158" y="310" type="line"/>
      <point x="158" y="633" type="line"/>
    </contour>
  </outline>
</glyph>
<glyph name="Q" format="1">
  <advance width="717"/>
  <unicode hex="0051"/>
  <outline>
    <contour>
      <point x="648" y="345" type="curve" smooth="yes"/>
      <point x="648" y="531"/>
      <point x="565" y="696"/>
      <point x="362" y="696" type="curve" smooth="yes"/>
      <point x="170" y="696"/>
      <point x="69" y="537"/>
      <point x="69" y="337" type="curve" smooth="yes"/>
      <point x="69" y="152"/>
      <point x="152" y="-14"/>
      <point x="356" y="-14" type="curve" smooth="yes"/>
      <point x="427" y="-14"/>
      <point x="487" y="11"/>
      <point x="532" y="50" type="curve"/>
      <point x="601" y="-14" type="line"/>
      <point x="612" y="-4"/>
      <point x="624" y="5"/>
      <point x="635" y="14" type="curve"/>
      <point x="564" y="83" type="line"/>
      <point x="620" y="150"/>
      <point x="648" y="245"/>
    </contour>
    <contour>
      <point x="354" y="34" type="curve" smooth="yes"/>
      <point x="198" y="34"/>
      <point x="130" y="175"/>
      <point x="130" y="338" type="curve" smooth="yes"/>
      <point x="130" y="514"/>
      <point x="220" y="647"/>
      <point x="363" y="647" type="curve" smooth="yes"/>
      <point x="520" y="647"/>
      <point x="587" y="507"/>
      <point x="587" y="344" type="curve" smooth="yes"/>
      <point x="587" y="256"/>
      <point x="564" y="178"/>
      <point x="524" y="123" type="curve"/>
      <point x="427" y="219" type="line"/>
      <point x="388" y="186" type="line"/>
      <point x="492" y="87" type="line"/>
      <point x="456" y="52"/>
      <point x="409" y="34"/>
    </contour>
  </outline>
</glyph>
<glyph name="R" format="1">
  <advance width="612"/>
  <unicode hex="0052"/>
  <outline>
    <contour>
      <point x="517" y="486" type="curve"/>
      <point x="517" y="629"/>
      <point x="414" y="680"/>
      <point x="272" y="680" type="curve" smooth="yes"/>
      <point x="102" y="680" type="line"/>
      <point x="102" y="0" type="line"/>
      <point x="158" y="0" type="line"/>
      <point x="158" y="286" type="line"/>
      <point x="261" y="286" type="line" smooth="yes"/>
      <point x="290" y="286"/>
      <point x="318" y="288"/>
      <point x="346" y="293" type="curve"/>
      <point x="508" y="0" type="line"/>
      <point x="571" y="0" type="line"/>
      <point x="394" y="308" type="line"/>
      <point x="466" y="336"/>
      <point x="516" y="392"/>
    </contour>
    <contour>
      <point x="274" y="633" type="line" smooth="yes"/>
      <point x="378" y="633"/>
      <point x="460" y="601"/>
      <point x="460" y="484" type="curve" smooth="yes"/>
      <point x="460" y="370"/>
      <point x="365" y="331"/>
      <point x="263" y="331" type="curve" smooth="yes"/>
      <point x="158" y="331" type="line"/>
      <point x="158" y="633" type="line"/>
    </contour>
  </outline>
</glyph>
<glyph name="S" format="1">
  <advance width="533"/>
  <unicode hex="0053"/>
  <outline>
    <contour>
      <point x="248" y="33" type="curve"/>
      <point x="181" y="33"/>
      <point x="117" y="55"/>
      <point x="82" y="72" type="curve"/>
      <point x="67" y="29" type="line"/>
      <point x="90" y="9"/>
      <point x="191" y="-13"/>
      <point x="249" y="-13" type="curve"/>
      <point x="398" y="-13"/>
      <point x="480" y="58"/>
      <point x="480" y="158" type="curve" smooth="yes"/>
      <point x="480" y="351"/>
      <point x="114" y="373"/>
      <point x="114" y="530" type="curve"/>
      <point x="114" y="600"/>
      <point x="173" y="649"/>
      <point x="270" y="649" type="curve"/>
      <point x="340" y="649"/>
      <point x="379" y="631"/>
      <point x="414" y="615" type="curve"/>
      <point x="436" y="657" type="line"/>
      <point x="396" y="677"/>
      <point x="335" y="696"/>
      <point x="268" y="696" type="curve"/>
      <point x="139" y="696"/>
      <point x="59" y="627"/>
      <point x="59" y="532" type="curve" smooth="yes"/>
      <point x="59" y="338"/>
      <point x="425" y="312"/>
      <point x="425" y="160" type="curve"/>
      <point x="425" y="90"/>
      <point x="363" y="33"/>
    </contour>
  </outline>
</glyph>
<glyph name="T" format="1">
  <advance width="514"/>
  <unicode hex="0054"/>
  <outline>
    <contour>
      <point x="498" y="636" type="line"/>
      <point x="493" y="680" type="line"/>
      <point x="15" y="680" type="line"/>
      <point x="15" y="636" type="line"/>
      <point x="228" y="636" type="line"/>
      <point x="228" y="0" type="line"/>
      <point x="284" y="0" type="line"/>
      <point x="284" y="636" type="line"/>
    </contour>
  </outline>
</glyph>
<glyph name="V" format="1">
  <advance width="588"/>
  <unicode hex="0056"/>
  <outline>
    <contour>
      <point x="272" y="0" type="line"/>
      <point x="328" y="0" type="line"/>
      <point x="575" y="680" type="line"/>
      <point x="521" y="680" type="line"/>
      <point x="299" y="72" type="line"/>
      <point x="68" y="680" type="line"/>
      <point x="13" y="669" type="line"/>
    </contour>
  </outline>
</glyph>
<glyph name="W" format="1">
  <advance width="949"/>
  <unicode hex="0057"/>
  <outline>
    <contour>
      <point x="668" y="0" type="line"/>
      <point x="724" y="0" type="line"/>
      <point x="937" y="680" type="line"/>
      <point x="882" y="680" type="line"/>
      <point x="695" y="78" type="line"/>
      <point x="502" y="680" type="line"/>
      <point x="448" y="680" type="line"/>
      <point x="258" y="78" type="line"/>
      <point x="68" y="680" type="line"/>
      <point x="13" y="669" type="line"/>
      <point x="231" y="0" type="line"/>
      <point x="287" y="0" type="line"/>
      <point x="473" y="588" type="line"/>
    </contour>
  </outline>
</glyph>
<glyph name="X" format="1">
  <advance width="608"/>
  <unicode hex="0058"/>
  <outline>
    <contour>
      <point x="20" y="0" type="line"/>
      <point x="77" y="-10" type="line"/>
      <point x="300" y="304" type="line"/>
      <point x="517" y="0" type="line"/>
      <point x="581" y="0" type="line"/>
      <point x="342" y="334" type="line"/>
      <point x="588" y="680" type="line"/>
      <point x="527" y="680" type="line"/>
      <point x="312" y="378" type="line"/>
      <point x="98" y="680" type="line"/>
      <point x="38" y="669" type="line"/>
      <point x="269" y="345" type="line"/>
    </contour>
  </outline>
</glyph>
<glyph name="Y" format="1">
  <advance width="541"/>
  <unicode hex="0059"/>
  <outline>
    <contour>
      <point x="240" y="0" type="line"/>
      <point x="296" y="0" type="line"/>
      <point x="296" y="278" type="line"/>
      <point x="534" y="680" type="line"/>
      <point x="472" y="680" type="line"/>
      <point x="268" y="328" type="line"/>
      <point x="68" y="680" type="line"/>
      <point x="8" y="669" type="line"/>
      <point x="241" y="272" type="line"/>
    </contour>
  </outline>
</glyph>
<glyph name="bracketleft" format="1">
  <advance width="259"/>
  <unicode hex="005B"/>
  <outline>
    <contour>
      <point x="92" y="696" type="line"/>
      <point x="92" y="-88" type="line"/>
      <point x="251" y="-88" type="line"/>
      <point x="243" y="-47" type="line"/>
      <point x="145" y="-47" type="line"/>
      <point x="145" y="654" type="line"/>
      <point x="243" y="654" type="line"/>
      <point x="251" y="696" type="line"/>
    </contour>
  </outline>
</glyph>
<glyph name="backslash" format="1">
  <advance width="376"/>
  <unicode hex="005C"/>
  <outline>
    <contour>
      <point x="316" y="-4" type="line"/>
      <point x="368" y="0" type="line"/>
      <point x="60" y="710" type="line"/>
      <point x="8" y="706" type="line"/>
    </contour>
  </outline>
</glyph>
<glyph name="bracketright" format="1">
  <advance width="259"/>
  <unicode hex="005D"/>
  <outline>
    <contour>
      <point x="8" y="696" type="line"/>
      <point x="16" y="654" type="line"/>
      <point x="113" y="654" type="line"/>
      <point x="113" y="-46" type="line"/>
      <point x="16" y="-46" type="line"/>
      <point x="8" y="-88" type="line"/>
      <point x="166" y="-88" type="line"/>
      <point x="166" y="696" type="line"/>
    </contour>
  </outline>
</glyph>
<glyph name="asciicircum" format="1">
  <advance width="425"/>
  <unicode hex="005E"/>
  <outline>
    <contour>
      <point x="72" y="143" type="line"/>
      <point x="213" y="346" type="line"/>
      <point x="353" y="143" type="line"/>
      <point x="407" y="143" type="line"/>
      <point x="238" y="390" type="line"/>
      <point x="187" y="390" type="line"/>
      <point x="18" y="143" type="line"/>
    </contour>
  </outline>
</glyph>
<glyph name="underscore" format="1">
  <advance width="420"/>
  <unicode hex="005F"/>
  <outline>
    <contour>
      <point x="397" y="0" type="line"/>
      <point x="389" y="44" type="line"/>
      <point x="23" y="44" type="line"/>
      <point x="31" y="0" type="line"/>
    </contour>
  </outline>
</glyph>
<glyph name="grave" format="1">
  <advance width="152"/>
  <unicode hex="0060"/>
  <outline>
    <contour>
      <point x="13" y="742" type="line"/>
      <point x="98" y="589" type="line"/>
      <point x="140" y="589" type="line"/>
      <point x="79" y="742" type="line"/>
    </contour>
  </outline>
</glyph>
<glyph name="b" format="1">
  <advance width="531"/>
  <unicode hex="0062"/>
  <outline>
    <contour>
      <point x="82" y="0" type="line"/>
      <point x="116" y="0" type="line"/>
      <point x="131" y="43" type="line"/>
      <point x="173" y="10"/>
      <point x="225" y="-13"/>
      <point x="272" y="-13" type="curve"/>
      <point x="415" y="-13"/>
      <point x="480" y="93"/>
      <point x="480" y="242" type="curve"/>
      <point x="480" y="391"/>
      <point x="415" y="498"/>
      <point x="272" y="498" type="curve"/>
      <point x="227" y="498"/>
      <point x="177" y="475"/>
      <point x="137" y="444" type="curve"/>
      <point x="137" y="706" type="line"/>
      <point x="82" y="696" type="line"/>
    </contour>
    <contour>
      <point x="271" y="34" type="curve"/>
      <point x="231" y="34"/>
      <point x="179" y="53"/>
      <point x="137" y="92" type="curve"/>
      <point x="137" y="392" type="line"/>
      <point x="179" y="431"/>
      <point x="231" y="451"/>
      <point x="271" y="451" type="curve"/>
      <point x="381" y="451"/>
      <point x="424" y="360"/>
      <point x="424" y="241" type="curve"/>
      <point x="424" y="123"/>
      <point x="381" y="34"/>
    </contour>
  </outline>
</glyph>
<glyph name="d" format="1">
  <advance width="531"/>
  <unicode hex="0064"/>
  <outline>
    <contour>
      <point x="449" y="705" type="line"/>
      <point x="393" y="696" type="line"/>
      <point x="393" y="444" type="line"/>
      <point x="354" y="475"/>
      <point x="302" y="498"/>
      <point x="258" y="498" type="curve"/>
      <point x="116" y="498"/>
      <point x="50" y="391"/>
      <point x="50" y="241" type="curve"/>
      <point x="50" y="92"/>
      <point x="116" y="-13"/>
      <point x="258" y="-13" type="curve"/>
      <point x="305" y="-13"/>
      <point x="358" y="10"/>
      <point x="399" y="43" type="curve"/>
      <point x="415" y="0" type="line"/>
      <point x="449" y="0" type="line"/>
    </contour>
    <contour>
      <point x="260" y="451" type="curve"/>
      <point x="300" y="451"/>
      <point x="351" y="431"/>
      <point x="393" y="392" type="curve"/>
      <point x="393" y="92" type="line"/>
      <point x="351" y="53"/>
      <point x="300" y="34"/>
      <point x="260" y="34" type="curve"/>
      <point x="150" y="34"/>
      <point x="107" y="124"/>
      <point x="107" y="243" type="curve"/>
      <point x="107" y="361"/>
      <point x="150" y="451"/>
    </contour>
  </outline>
</glyph>
<glyph name="e" format="1">
  <advance width="509"/>
  <unicode hex="0065"/>
  <outline>
    <contour>
      <point x="461" y="240" type="line"/>
      <point x="461" y="389"/>
      <point x="394" y="498"/>
      <point x="266" y="498" type="curve"/>
      <point x="123" y="498"/>
      <point x="50" y="391"/>
      <point x="50" y="245" type="curve" smooth="yes"/>
      <point x="50" y="94"/>
      <point x="124" y="-13"/>
      <point x="283" y="-13" type="curve"/>
      <point x="322" y="-13"/>
      <point x="401" y="0"/>
      <point x="441" y="25" type="curve"/>
      <point x="420" y="66" type="line"/>
      <point x="386" y="49"/>
      <point x="348" y="32"/>
      <point x="277" y="32" type="curve"/>
      <point x="156" y="32"/>
      <point x="108" y="124"/>
      <point x="107" y="240" type="curve"/>
    </contour>
    <contour>
      <point x="261" y="451" type="curve"/>
      <point x="357" y="451"/>
      <point x="395" y="375"/>
      <point x="404" y="280" type="curve"/>
      <point x="109" y="280" type="line"/>
      <point x="119" y="375"/>
      <point x="165" y="451"/>
    </contour>
  </outline>
</glyph>
<glyph name="f" format="1">
  <advance width="280"/>
  <unicode hex="0066"/>
  <outline>
    <contour>
      <point x="24" y="472" type="line"/>
      <point x="24" y="430" type="line"/>
      <point x="97" y="430" type="line"/>
      <point x="97" y="0" type="line"/>
      <point x="153" y="0" type="line"/>
      <point x="153" y="430" type="line"/>
      <point x="262" y="430" type="line"/>
      <point x="241" y="472" type="line"/>
      <point x="153" y="472" type="line"/>
      <point x="153" y="571" type="line" smooth="yes"/>
      <point x="153" y="619"/>
      <point x="171" y="653"/>
      <point x="222" y="653" type="curve"/>
      <point x="236" y="653"/>
      <point x="255" y="648"/>
      <point x="263" y="644" type="curve"/>
      <point x="275" y="689" type="line"/>
      <point x="262" y="694"/>
      <point x="236" y="702"/>
      <point x="209" y="702" type="curve"/>
      <point x="137" y="702"/>
      <point x="97" y="647"/>
      <point x="97" y="563" type="curve"/>
      <point x="97" y="472" type="line"/>
    </contour>
  </outline>
</glyph>
<glyph name="g" format="1">
  <advance width="531"/>
  <unicode hex="0067"/>
  <outline>
    <contour>
      <point x="260" y="-221" type="curve"/>
      <point x="387" y="-221"/>
      <point x="449" y="-150"/>
      <point x="449" y="-53" type="curve"/>
      <point x="449" y="485" type="line"/>
      <point x="415" y="485" type="line"/>
      <point x="398" y="440" type="line"/>
      <point x="358" y="473"/>
      <point x="305" y="498"/>
      <point x="258" y="498" type="curve"/>
      <point x="116" y="498"/>
      <point x="50" y="391"/>
      <point x="50" y="241" type="curve"/>
      <point x="50" y="92"/>
      <point x="116" y="-13"/>
      <point x="258" y="-13" type="curve"/>
      <point x="302" y="-13"/>
      <point x="354" y="8"/>
      <point x="393" y="40" type="curve"/>
      <point x="393" y="-58" type="line" smooth="yes"/>
      <point x="393" y="-138"/>
      <point x="340" y="-175"/>
      <point x="258" y="-175" type="curve" smooth="yes"/>
      <point x="193" y="-175"/>
      <point x="164" y="-158"/>
      <point x="124" y="-140" type="curve"/>
      <point x="105" y="-180" type="line"/>
      <point x="143" y="-206"/>
      <point x="221" y="-221"/>
    </contour>
    <contour>
      <point x="260" y="451" type="curve"/>
      <point x="300" y="451"/>
      <point x="351" y="431"/>
      <point x="393" y="392" type="curve"/>
      <point x="393" y="92" type="line"/>
      <point x="351" y="53"/>
      <point x="300" y="34"/>
      <point x="260" y="34" type="curve"/>
      <point x="150" y="34"/>
      <point x="107" y="124"/>
      <point x="107" y="243" type="curve"/>
      <point x="107" y="361"/>
      <point x="150" y="451"/>
    </contour>
  </outline>
</glyph>
<glyph name="h" format="1">
  <advance width="534"/>
  <unicode hex="0068"/>
  <outline>
    <contour>
      <point x="82" y="0" type="line"/>
      <point x="137" y="0" type="line"/>
      <point x="137" y="360" type="line"/>
      <point x="183" y="418"/>
      <point x="258" y="451"/>
      <point x="301" y="451" type="curve"/>
      <point x="372" y="450"/>
      <point x="403" y="398"/>
      <point x="403" y="331" type="curve"/>
      <point x="403" y="1" type="line"/>
      <point x="459" y="1" type="line"/>
      <point x="459" y="337" type="line" smooth="yes"/>
      <point x="459" y="431"/>
      <point x="413" y="498"/>
      <point x="308" y="498" type="curve"/>
      <point x="248" y="498"/>
      <point x="178" y="458"/>
      <point x="137" y="411" type="curve"/>
      <point x="137" y="706" type="line"/>
      <point x="82" y="696" type="line"/>
    </contour>
  </outline>
</glyph>
<glyph name="i" format="1">
  <advance width="224"/>
  <unicode hex="0069"/>
  <outline>
    <contour>
      <point x="69" y="638" type="curve"/>
      <point x="69" y="613"/>
      <point x="86" y="595"/>
      <point x="112" y="595" type="curve"/>
      <point x="135" y="595"/>
      <point x="155" y="613"/>
      <point x="155" y="638" type="curve"/>
      <point x="155" y="662"/>
      <point x="135" y="680"/>
      <point x="112" y="680" type="curve"/>
      <point x="86" y="680"/>
      <point x="69" y="662"/>
    </contour>
    <contour>
      <point x="84" y="0" type="line"/>
      <point x="140" y="0" type="line"/>
      <point x="140" y="485" type="line"/>
      <point x="84" y="485" type="line"/>
    </contour>
  </outline>
</glyph>
<glyph name="j" format="1">
  <advance width="224"/>
  <unicode hex="006A"/>
  <outline>
    <contour>
      <point x="84" y="-55" type="line"/>
      <point x="84" y="-130"/>
      <point x="54" y="-155"/>
      <point x="-12" y="-180" type="curve"/>
      <point x="9" y="-219" type="line"/>
      <point x="106" y="-188"/>
      <point x="140" y="-146"/>
      <point x="140" y="-62" type="curve"/>
      <point x="140" y="485" type="line"/>
      <point x="84" y="485" type="line"/>
    </contour>
    <contour>
      <point x="69" y="638" type="curve"/>
      <point x="69" y="613"/>
      <point x="86" y="595"/>
      <point x="112" y="595" type="curve"/>
      <point x="135" y="595"/>
      <point x="155" y="613"/>
      <point x="155" y="638" type="curve"/>
      <point x="155" y="662"/>
      <point x="135" y="680"/>
      <point x="112" y="680" type="curve"/>
      <point x="86" y="680"/>
      <point x="69" y="662"/>
    </contour>
  </outline>
</glyph>
<glyph name="k" format="1">
  <advance width="467"/>
  <unicode hex="006B"/>
  <outline>
    <contour>
      <point x="82" y="0" type="line"/>
      <point x="137" y="0" type="line"/>
      <point x="137" y="198" type="line"/>
      <point x="210" y="272" type="line"/>
      <point x="390" y="0" type="line"/>
      <point x="457" y="0" type="line"/>
      <point x="247" y="309" type="line"/>
      <point x="400" y="464" type="line"/>
      <point x="362" y="498" type="line"/>
      <point x="137" y="265" type="line"/>
      <point x="137" y="706" type="line"/>
      <point x="82" y="696" type="line"/>
    </contour>
  </outline>
</glyph>
<glyph name="l" format="1">
  <advance width="219"/>
  <unicode hex="006C"/>
  <outline>
    <contour>
      <point x="82" y="0" type="line"/>
      <point x="137" y="0" type="line"/>
      <point x="137" y="706" type="line"/>
      <point x="82" y="696" type="line"/>
    </contour>
  </outline>
</glyph>
<glyph name="m" format="1">
  <advance width="818"/>
  <unicode hex="006D"/>
  <outline>
    <contour>
      <point x="82" y="0" type="line"/>
      <point x="137" y="0" type="line"/>
      <point x="137" y="370" type="line"/>
      <point x="183" y="423"/>
      <point x="239" y="451"/>
      <point x="286" y="451" type="curve"/>
      <point x="356" y="450"/>
      <point x="386" y="398"/>
      <point x="386" y="331" type="curve"/>
      <point x="386" y="0" type="line"/>
      <point x="442" y="0" type="line"/>
      <point x="442" y="343" type="line" smooth="yes"/>
      <point x="442" y="354"/>
      <point x="442" y="362"/>
      <point x="440" y="374" type="curve"/>
      <point x="486" y="423"/>
      <point x="540" y="451"/>
      <point x="585" y="451" type="curve"/>
      <point x="655" y="450"/>
      <point x="687" y="398"/>
      <point x="687" y="331" type="curve"/>
      <point x="687" y="0" type="line"/>
      <point x="743" y="0" type="line"/>
      <point x="743" y="337" type="line" smooth="yes"/>
      <point x="743" y="431"/>
      <point x="698" y="498"/>
      <point x="592" y="498" type="curve"/>
      <point x="534" y="498"/>
      <point x="468" y="461"/>
      <point x="426" y="417" type="curve"/>
      <point x="404" y="466"/>
      <point x="363" y="498"/>
      <point x="292" y="498" type="curve"/>
      <point x="238" y="498"/>
      <point x="178" y="466"/>
      <point x="136" y="426" type="curve"/>
      <point x="116" y="485" type="line"/>
      <point x="82" y="485" type="line"/>
    </contour>
  </outline>
</glyph>
<glyph name="p" format="1">
  <advance width="531"/>
  <unicode hex="0070"/>
  <outline>
    <contour>
      <point x="82" y="-219" type="line"/>
      <point x="137" y="-208" type="line"/>
      <point x="137" y="40" type="line"/>
      <point x="177" y="8"/>
      <point x="227" y="-13"/>
      <point x="272" y="-13" type="curve"/>
      <point x="415" y="-13"/>
      <point x="480" y="93"/>
      <point x="480" y="242" type="curve"/>
      <point x="480" y="391"/>
      <point x="415" y="498"/>
      <point x="272" y="498" type="curve"/>
      <point x="225" y="498"/>
      <point x="172" y="472"/>
      <point x="131" y="440" type="curve"/>
      <point x="116" y="485" type="line"/>
      <point x="82" y="485" type="line"/>
    </contour>
    <contour>
      <point x="271" y="34" type="curve"/>
      <point x="231" y="34"/>
      <point x="179" y="53"/>
      <point x="137" y="92" type="curve"/>
      <point x="137" y="392" type="line"/>
      <point x="179" y="431"/>
      <point x="231" y="451"/>
      <point x="271" y="451" type="curve"/>
      <point x="381" y="451"/>
      <point x="424" y="360"/>
      <point x="424" y="241" type="curve"/>
      <point x="424" y="123"/>
      <point x="381" y="34"/>
    </contour>
  </outline>
</glyph>
<glyph name="q" format="1">
  <advance width="531"/>
  <unicode hex="0071"/>
  <outline>
    <contour>
      <point x="449" y="485" type="line"/>
      <point x="415" y="485" type="line"/>
      <point x="399" y="440" type="line"/>
      <point x="358" y="472"/>
      <point x="305" y="498"/>
      <point x="258" y="498" type="curve"/>
      <point x="116" y="498"/>
      <point x="50" y="391"/>
      <point x="50" y="241" type="curve"/>
      <point x="50" y="92"/>
      <point x="116" y="-13"/>
      <point x="258" y="-13" type="curve"/>
      <point x="302" y="-13"/>
      <point x="354" y="8"/>
      <point x="393" y="40" type="curve"/>
      <point x="393" y="-219" type="line"/>
      <point x="449" y="-208" type="line"/>
    </contour>
    <contour>
      <point x="260" y="451" type="curve"/>
      <point x="300" y="451"/>
      <point x="351" y="431"/>
      <point x="393" y="392" type="curve"/>
      <point x="393" y="92" type="line"/>
      <point x="351" y="53"/>
      <point x="300" y="34"/>
      <point x="260" y="34" type="curve"/>
      <point x="150" y="34"/>
      <point x="107" y="124"/>
      <point x="107" y="243" type="curve"/>
      <point x="107" y="361"/>
      <point x="150" y="451"/>
    </contour>
  </outline>
</glyph>
<glyph name="t" format="1">
  <advance width="298"/>
  <unicode hex="0074"/>
  <outline>
    <contour>
      <point x="256" y="430" type="line"/>
      <point x="235" y="472" type="line"/>
      <point x="147" y="472" type="line"/>
      <point x="147" y="623" type="line"/>
      <point x="91" y="601" type="line"/>
      <point x="91" y="472" type="line"/>
      <point x="19" y="472" type="line"/>
      <point x="19" y="430" type="line"/>
      <point x="91" y="430" type="line"/>
      <point x="91" y="116" type="line" smooth="yes"/>
      <point x="91" y="31"/>
      <point x="135" y="-13"/>
      <point x="202" y="-13" type="curve"/>
      <point x="230" y="-13"/>
      <point x="255" y="-4"/>
      <point x="268" y="-1" type="curve"/>
      <point x="256" y="43" type="line"/>
      <point x="249" y="40"/>
      <point x="230" y="34"/>
      <point x="215" y="34" type="curve"/>
      <point x="165" y="34"/>
      <point x="147" y="75"/>
      <point x="147" y="123" type="curve"/>
      <point x="147" y="430" type="line"/>
    </contour>
  </outline>
</glyph>
<glyph name="v" format="1">
  <advance width="452"/>
  <unicode hex="0076"/>
  <outline>
    <contour>
      <point x="202" y="0" type="line"/>
      <point x="259" y="0" type="line"/>
      <point x="437" y="485" type="line"/>
      <point x="382" y="485" type="line"/>
      <point x="230" y="67" type="line"/>
      <point x="72" y="485" type="line"/>
      <point x="15" y="475" type="line"/>
    </contour>
  </outline>
</glyph>
<glyph name="w" format="1">
  <advance width="740"/>
  <unicode hex="0077"/>
  <outline>
    <contour>
      <point x="508" y="0" type="line"/>
      <point x="565" y="0" type="line"/>
      <point x="725" y="485" type="line"/>
      <point x="670" y="485" type="line"/>
      <point x="537" y="73" type="line"/>
      <point x="396" y="485" type="line"/>
      <point x="346" y="485" type="line"/>
      <point x="209" y="73" type="line"/>
      <point x="72" y="485" type="line"/>
      <point x="15" y="475" type="line"/>
      <point x="182" y="0" type="line"/>
      <point x="239" y="0" type="line"/>
      <point x="368" y="401" type="line"/>
    </contour>
  </outline>
</glyph>
<glyph name="x" format="1">
  <advance width="463"/>
  <unicode hex="0078"/>
  <outline>
    <contour>
      <point x="13" y="0" type="line"/>
      <point x="76" y="0" type="line"/>
      <point x="224" y="203" type="line"/>
      <point x="375" y="0" type="line"/>
      <point x="437" y="0" type="line"/>
      <point x="266" y="232" type="line"/>
      <point x="450" y="485" type="line"/>
      <point x="389" y="485" type="line"/>
      <point x="236" y="273" type="line"/>
      <point x="84" y="485" type="line"/>
      <point x="27" y="475" type="line"/>
      <point x="194" y="244" type="line"/>
    </contour>
  </outline>
</glyph>
<glyph name="y" format="1">
  <advance width="452"/>
  <unicode hex="0079"/>
  <outline>
    <contour>
      <point x="206" y="-3" type="line"/>
      <point x="174" y="-98" type="line"/>
      <point x="159" y="-144"/>
      <point x="127" y="-160"/>
      <point x="77" y="-180" type="curve"/>
      <point x="88" y="-219" type="line"/>
      <point x="150" y="-207"/>
      <point x="203" y="-163"/>
      <point x="221" y="-112" type="curve" smooth="yes"/>
      <point x="437" y="485" type="line"/>
      <point x="382" y="485" type="line"/>
      <point x="332" y="346"/>
      <point x="281" y="208"/>
      <point x="230" y="69" type="curve"/>
      <point x="71" y="485" type="line"/>
      <point x="15" y="475" type="line"/>
    </contour>
  </outline>
</glyph>
<glyph name="z" format="1">
  <advance width="455"/>
  <unicode hex="007A"/>
  <outline>
    <contour>
      <point x="418" y="453" type="line"/>
      <point x="415" y="485" type="line"/>
      <point x="66" y="485" type="line"/>
      <point x="82" y="442" type="line"/>
      <point x="345" y="442" type="line"/>
      <point x="37" y="31" type="line"/>
      <point x="45" y="0" type="line"/>
      <point x="412" y="0" type="line"/>
      <point x="402" y="42" type="line"/>
      <point x="106" y="42" type="line"/>
    </contour>
  </outline>
</glyph>
<glyph name="braceleft" format="1">
  <advance width="268"/>
  <unicode hex="007B"/>
  <outline>
    <contour>
      <point x="195" y="419" type="curve"/>
      <point x="195" y="454"/>
      <point x="157" y="524"/>
      <point x="157" y="560" type="curve"/>
      <point x="157" y="588"/>
      <point x="180" y="617"/>
      <point x="229" y="617" type="curve"/>
      <point x="248" y="617" type="line"/>
      <point x="255" y="659" type="line"/>
      <point x="229" y="659" type="line" smooth="yes"/>
      <point x="144" y="659"/>
      <point x="105" y="618"/>
      <point x="105" y="554" type="curve"/>
      <point x="105" y="513"/>
      <point x="141" y="452"/>
      <point x="141" y="410" type="curve"/>
      <point x="141" y="360"/>
      <point x="103" y="327"/>
      <point x="63" y="327" type="curve"/>
      <point x="30" y="327" type="line"/>
      <point x="30" y="288" type="line"/>
      <point x="63" y="288" type="line" smooth="yes"/>
      <point x="103" y="288"/>
      <point x="141" y="256"/>
      <point x="141" y="205" type="curve"/>
      <point x="141" y="164"/>
      <point x="105" y="103"/>
      <point x="105" y="62" type="curve"/>
      <point x="105" y="-3"/>
      <point x="144" y="-44"/>
      <point x="229" y="-44" type="curve"/>
      <point x="255" y="-44" type="line"/>
      <point x="248" y="-2" type="line"/>
      <point x="229" y="-2" type="line" smooth="yes"/>
      <point x="180" y="-2"/>
      <point x="157" y="27"/>
      <point x="157" y="56" type="curve"/>
      <point x="157" y="91"/>
      <point x="195" y="161"/>
      <point x="195" y="197" type="curve"/>
      <point x="195" y="254"/>
      <point x="169" y="292"/>
      <point x="131" y="309" type="curve"/>
      <point x="171" y="324"/>
      <point x="195" y="360"/>
    </contour>
  </outline>
</glyph>
<glyph name="bar" format="1">
  <advance width="260"/>
  <unicode hex="007C"/>
  <outline>
    <contour>
      <point x="158" y="706" type="line"/>
      <point x="102" y="710" type="line"/>
      <point x="102" y="0" type="line"/>
      <point x="158" y="-4" type="line"/>
    </contour>
  </outline>
</glyph>
<glyph name="braceright" format="1">
  <advance width="268"/>
  <unicode hex="007D"/>
  <outline>
    <contour>
      <point x="72" y="197" type="curve"/>
      <point x="72" y="161"/>
      <point x="110" y="91"/>
      <point x="110" y="56" type="curve"/>
      <point x="110" y="27"/>
      <point x="87" y="-2"/>
      <point x="39" y="-2" type="curve"/>
      <point x="20" y="-2" type="line"/>
      <point x="13" y="-44" type="line"/>
      <point x="38" y="-44" type="line" smooth="yes"/>
      <point x="124" y="-44"/>
      <point x="163" y="-3"/>
      <point x="163" y="62" type="curve"/>
      <point x="163" y="103"/>
      <point x="126" y="164"/>
      <point x="126" y="205" type="curve"/>
      <point x="126" y="256"/>
      <point x="164" y="289"/>
      <point x="204" y="289" type="curve"/>
      <point x="237" y="289" type="line"/>
      <point x="237" y="327" type="line"/>
      <point x="204" y="327" type="line" smooth="yes"/>
      <point x="164" y="327"/>
      <point x="126" y="360"/>
      <point x="126" y="410" type="curve"/>
      <point x="126" y="452"/>
      <point x="163" y="513"/>
      <point x="163" y="554" type="curve"/>
      <point x="163" y="618"/>
      <point x="124" y="659"/>
      <point x="38" y="659" type="curve"/>
      <point x="13" y="659" type="line"/>
      <point x="20" y="617" type="line"/>
      <point x="39" y="617" type="line" smooth="yes"/>
      <point x="87" y="617"/>
      <point x="110" y="588"/>
      <point x="110" y="560" type="curve"/>
      <point x="110" y="524"/>
      <point x="72" y="454"/>
      <point x="72" y="419" type="curve"/>
      <point x="72" y="361"/>
      <point x="99" y="323"/>
      <point x="137" y="306" type="curve"/>
      <point x="97" y="291"/>
      <point x="72" y="255"/>
    </contour>
  </outline>
</glyph>
<glyph name="asciitilde" format="1">
  <advance width="365"/>
  <unicode hex="007E"/>
  <outline>
    <contour>
      <point x="251" y="204" type="curve"/>
      <point x="302" y="204"/>
      <point x="341" y="230"/>
      <point x="341" y="287" type="curve"/>
      <point x="298" y="289" type="line"/>
      <point x="297" y="261"/>
      <point x="276" y="247"/>
      <point x="250" y="247" type="curve"/>
      <point x="215" y="247"/>
      <point x="170" y="295"/>
      <point x="114" y="295" type="curve"/>
      <point x="62" y="295"/>
      <point x="23" y="269"/>
      <point x="23" y="212" type="curve"/>
      <point x="66" y="210" type="line"/>
      <point x="67" y="237"/>
      <point x="88" y="252"/>
      <point x="114" y="252" type="curve"/>
      <point x="155" y="252"/>
      <point x="205" y="204"/>
    </contour>
  </outline>
</glyph>
<glyph name="exclamdown" format="1">
  <advance width="180"/>
  <unicode hex="00A1"/>
  <outline>
    <contour>
      <point x="52" y="0" type="line"/>
      <point x="116" y="0" type="line"/>
      <point x="116" y="501" type="line"/>
      <point x="64" y="521" type="line"/>
    </contour>
    <contour>
      <point x="46" y="659" type="curve"/>
      <point x="46" y="634"/>
      <point x="66" y="615"/>
      <point x="90" y="615" type="curve"/>
      <point x="115" y="615"/>
      <point x="133" y="634"/>
      <point x="133" y="659" type="curve"/>
      <point x="133" y="683"/>
      <point x="115" y="702"/>
      <point x="90" y="702" type="curve"/>
      <point x="66" y="702"/>
      <point x="46" y="683"/>
    </contour>
  </outline>
</glyph>
<glyph name="cent" format="1">
  <advance width="456"/>
  <unicode hex="00A2"/>
  <outline>
    <contour>
      <point x="290" y="605" type="line"/>
      <point x="245" y="605" type="line"/>
      <point x="245" y="496" type="line"/>
      <point x="117" y="485"/>
      <point x="50" y="383"/>
      <point x="50" y="245" type="curve" smooth="yes"/>
      <point x="50" y="100"/>
      <point x="113" y="-5"/>
      <point x="245" y="-13" type="curve"/>
      <point x="245" y="-109" type="line"/>
      <point x="290" y="-111" type="line"/>
      <point x="290" y="-11" type="line"/>
      <point x="329" y="-6"/>
      <point x="373" y="8"/>
      <point x="404" y="28" type="curve"/>
      <point x="384" y="67" type="line"/>
      <point x="349" y="49"/>
      <point x="329" y="33"/>
      <point x="260" y="33" type="curve"/>
      <point x="150" y="33"/>
      <point x="107" y="127"/>
      <point x="107" y="246" type="curve" smooth="yes"/>
      <point x="107" y="360"/>
      <point x="158" y="451"/>
      <point x="265" y="451" type="curve"/>
      <point x="331" y="451"/>
      <point x="355" y="433"/>
      <point x="389" y="417" type="curve"/>
      <point x="409" y="456" type="line"/>
      <point x="377" y="477"/>
      <point x="329" y="492"/>
      <point x="290" y="496" type="curve"/>
    </contour>
  </outline>
</glyph>
<glyph name="sterling" format="1">
  <advance width="436"/>
  <unicode hex="00A3"/>
  <outline>
    <contour>
      <point x="185" y="553" type="line" smooth="yes"/>
      <point x="185" y="601"/>
      <point x="203" y="636"/>
      <point x="254" y="636" type="curve" smooth="yes"/>
      <point x="267" y="636"/>
      <point x="287" y="630"/>
      <point x="294" y="626" type="curve"/>
      <point x="306" y="671" type="line"/>
      <point x="284" y="676"/>
      <point x="263" y="684"/>
      <point x="240" y="684" type="curve" smooth="yes"/>
      <point x="169" y="684"/>
      <point x="129" y="629"/>
      <point x="129" y="545" type="curve" smooth="yes"/>
      <point x="129" y="373" type="line"/>
      <point x="56" y="373" type="line"/>
      <point x="58" y="332" type="line"/>
      <point x="129" y="332" type="line"/>
      <point x="129" y="127" type="line" smooth="yes"/>
      <point x="129" y="79"/>
      <point x="112" y="45"/>
      <point x="64" y="44" type="curve" smooth="yes"/>
      <point x="64" y="29"/>
      <point x="64" y="15"/>
      <point x="66" y="0" type="curve"/>
      <point x="417" y="0" type="line"/>
      <point x="411" y="44" type="line"/>
      <point x="151" y="44" type="line"/>
      <point x="176" y="69"/>
      <point x="185" y="103"/>
      <point x="185" y="148" type="curve" smooth="yes"/>
      <point x="185" y="332" type="line"/>
      <point x="345" y="332" type="line"/>
      <point x="323" y="373" type="line"/>
      <point x="185" y="373" type="line"/>
    </contour>
  </outline>
</glyph>
<glyph name="currency" format="1">
  <advance width="664"/>
  <unicode hex="00A4"/>
  <outline>
    <contour>
      <point x="62" y="540" type="line"/>
      <point x="30" y="503" type="line"/>
      <point x="65" y="467"/>
      <point x="101" y="433"/>
      <point x="136" y="397" type="curve"/>
      <point x="106" y="355"/>
      <point x="88" y="303"/>
      <point x="88" y="245" type="curve" smooth="yes"/>
      <point x="88" y="183"/>
      <point x="105" y="128"/>
      <point x="134" y="84" type="curve"/>
      <point x="100" y="49"/>
      <point x="65" y="15"/>
      <point x="30" y="-20" type="curve"/>
      <point x="62" y="-56" type="line"/>
      <point x="167" y="47" type="line"/>
      <point x="206" y="9"/>
      <point x="261" y="-13"/>
      <point x="325" y="-13" type="curve" smooth="yes"/>
      <point x="392" y="-13"/>
      <point x="451" y="10"/>
      <point x="493" y="50" type="curve"/>
      <point x="601" y="-56" type="line"/>
      <point x="633" y="-20" type="line"/>
      <point x="597" y="15"/>
      <point x="562" y="51"/>
      <point x="527" y="87" type="curve"/>
      <point x="557" y="129"/>
      <point x="575" y="182"/>
      <point x="575" y="239" type="curve" smooth="yes"/>
      <point x="575" y="299"/>
      <point x="559" y="355"/>
      <point x="529" y="398" type="curve"/>
      <point x="633" y="503" type="line"/>
      <point x="601" y="540" type="line"/>
      <point x="566" y="505"/>
      <point x="532" y="470"/>
      <point x="497" y="436" type="curve"/>
      <point x="456" y="474"/>
      <point x="401" y="498"/>
      <point x="336" y="498" type="curve" smooth="yes"/>
      <point x="269" y="498"/>
      <point x="212" y="472"/>
      <point x="169" y="434" type="curve"/>
    </contour>
    <contour>
      <point x="336" y="451" type="curve" smooth="yes"/>
      <point x="452" y="451"/>
      <point x="518" y="356"/>
      <point x="518" y="239" type="curve" smooth="yes"/>
      <point x="518" y="123"/>
      <point x="438" y="34"/>
      <point x="326" y="34" type="curve" smooth="yes"/>
      <point x="217" y="34"/>
      <point x="145" y="123"/>
      <point x="145" y="246" type="curve" smooth="yes"/>
      <point x="145" y="360"/>
      <point x="225" y="451"/>
    </contour>
  </outline>
</glyph>
<glyph name="yen" format="1">
  <advance width="551"/>
  <unicode hex="00A5"/>
  <outline>
    <contour>
      <point x="245" y="0" type="line"/>
      <point x="301" y="0" type="line"/>
      <point x="301" y="84" type="line"/>
      <point x="487" y="84" type="line"/>
      <point x="480" y="128" type="line"/>
      <point x="302" y="128" type="line"/>
      <point x="302" y="259" type="line"/>
      <point x="487" y="259" type="line"/>
      <point x="480" y="303" type="line"/>
      <point x="318" y="303" type="line"/>
      <point x="544" y="680" type="line"/>
      <point x="482" y="680" type="line"/>
      <point x="273" y="328" type="line"/>
      <point x="68" y="680" type="line"/>
      <point x="8" y="669" type="line"/>
      <point x="227" y="303" type="line"/>
      <point x="65" y="303" type="line"/>
      <point x="71" y="259" type="line"/>
      <point x="246" y="259" type="line"/>
      <point x="246" y="128" type="line"/>
      <point x="65" y="128" type="line"/>
      <point x="71" y="84" type="line"/>
      <point x="245" y="84" type="line"/>
    </contour>
  </outline>
</glyph>
<glyph name="brokenbar" format="1">
  <advance width="260"/>
  <unicode hex="00A6"/>
  <outline>
    <contour>
      <point x="158" y="288" type="line"/>
      <point x="102" y="292" type="line"/>
      <point x="102" y="0" type="line"/>
      <point x="158" y="-4" type="line"/>
    </contour>
    <contour>
      <point x="158" y="706" type="line"/>
      <point x="102" y="710" type="line"/>
      <point x="102" y="410" type="line"/>
      <point x="158" y="406" type="line"/>
    </contour>
  </outline>
</glyph>
<glyph name="section" format="1">
  <advance width="594"/>
  <unicode hex="00A7"/>
  <outline>
    <contour>
      <point x="248" y="-73" type="curve"/>
      <point x="181" y="-73"/>
      <point x="117" y="-50"/>
      <point x="82" y="-33" type="curve"/>
      <point x="67" y="-77" type="line"/>
      <point x="90" y="-97"/>
      <point x="191" y="-119"/>
      <point x="249" y="-119" type="curve"/>
      <point x="398" y="-119"/>
      <point x="480" y="-48"/>
      <point x="480" y="52" type="curve" smooth="yes"/>
      <point x="480" y="71"/>
      <point x="474" y="98"/>
      <point x="463" y="118" type="curve"/>
      <point x="513" y="148"/>
      <point x="540" y="196"/>
      <point x="540" y="253" type="curve" smooth="yes"/>
      <point x="540" y="444"/>
      <point x="175" y="457"/>
      <point x="175" y="614" type="curve"/>
      <point x="175" y="684"/>
      <point x="233" y="734"/>
      <point x="330" y="734" type="curve"/>
      <point x="401" y="734"/>
      <point x="439" y="716"/>
      <point x="474" y="700" type="curve"/>
      <point x="496" y="741" type="line"/>
      <point x="456" y="761"/>
      <point x="396" y="780"/>
      <point x="329" y="780" type="curve"/>
      <point x="199" y="780"/>
      <point x="120" y="709"/>
      <point x="119" y="616" type="curve"/>
      <point x="119" y="590"/>
      <point x="125" y="567"/>
      <point x="136" y="546" type="curve"/>
      <point x="88" y="517"/>
      <point x="59" y="470"/>
      <point x="59" y="415" type="curve" smooth="yes"/>
      <point x="59" y="211"/>
      <point x="425" y="206"/>
      <point x="425" y="54" type="curve"/>
      <point x="425" y="-16"/>
      <point x="363" y="-73"/>
    </contour>
    <contour>
      <point x="486" y="254" type="curve"/>
      <point x="486" y="216"/>
      <point x="467" y="183"/>
      <point x="431" y="159" type="curve"/>
      <point x="332" y="256"/>
      <point x="114" y="293"/>
      <point x="114" y="413" type="curve"/>
      <point x="114" y="452"/>
      <point x="133" y="486"/>
      <point x="166" y="507" type="curve"/>
      <point x="265" y="405"/>
      <point x="486" y="373"/>
    </contour>
  </outline>
</glyph>
<glyph name="dieresis" format="1">
  <advance width="264"/>
  <unicode hex="00A8"/>
  <outline>
    <contour>
      <point x="93" y="658" type="curve"/>
      <point x="93" y="680"/>
      <point x="75" y="697"/>
      <point x="53" y="697" type="curve"/>
      <point x="30" y="697"/>
      <point x="13" y="680"/>
      <point x="13" y="658" type="curve"/>
      <point x="13" y="635"/>
      <point x="30" y="618"/>
      <point x="53" y="618" type="curve"/>
      <point x="75" y="618"/>
      <point x="93" y="635"/>
    </contour>
    <contour>
      <point x="251" y="658" type="curve"/>
      <point x="251" y="680"/>
      <point x="233" y="697"/>
      <point x="211" y="697" type="curve"/>
      <point x="187" y="697"/>
      <point x="171" y="680"/>
      <point x="171" y="658" type="curve"/>
      <point x="171" y="635"/>
      <point x="187" y="618"/>
      <point x="211" y="618" type="curve"/>
      <point x="233" y="618"/>
      <point x="251" y="635"/>
    </contour>
  </outline>
</glyph>
<glyph name="copyright" format="1">
  <advance width="847"/>
  <unicode hex="00A9"/>
  <outline>
    <contour>
      <point x="435" y="113" type="curve"/>
      <point x="476" y="113"/>
      <point x="538" y="128"/>
      <point x="572" y="155" type="curve"/>
      <point x="552" y="192" type="line"/>
      <point x="522" y="175"/>
      <point x="491" y="158"/>
      <point x="434" y="158" type="curve"/>
      <point x="334" y="158"/>
      <point x="282" y="226"/>
      <point x="282" y="342" type="curve"/>
      <point x="282" y="449"/>
      <point x="338" y="522"/>
      <point x="436" y="522" type="curve"/>
      <point x="494" y="522"/>
      <point x="524" y="505"/>
      <point x="555" y="488" type="curve"/>
      <point x="575" y="526" type="line"/>
      <point x="541" y="553"/>
      <point x="478" y="568"/>
      <point x="438" y="568" type="curve"/>
      <point x="311" y="568"/>
      <point x="226" y="481"/>
      <point x="226" y="341" type="curve"/>
      <point x="226" y="200"/>
      <point x="308" y="113"/>
    </contour>
    <contour>
      <point x="423" y="27" type="curve"/>
      <point x="236" y="27"/>
      <point x="119" y="162"/>
      <point x="119" y="337" type="curve"/>
      <point x="119" y="513"/>
      <point x="236" y="646"/>
      <point x="423" y="646" type="curve"/>
      <point x="611" y="646"/>
      <point x="728" y="513"/>
      <point x="728" y="337" type="curve"/>
      <point x="728" y="162"/>
      <point x="611" y="27"/>
    </contour>
    <contour>
      <point x="423" y="-16" type="curve"/>
      <point x="641" y="-16"/>
      <point x="780" y="138"/>
      <point x="780" y="336" type="curve"/>
      <point x="780" y="536"/>
      <point x="641" y="690"/>
      <point x="423" y="690" type="curve"/>
      <point x="204" y="690"/>
      <point x="66" y="536"/>
      <point x="66" y="336" type="curve"/>
      <point x="66" y="138"/>
      <point x="201" y="-16"/>
    </contour>
  </outline>
</glyph>
<glyph name="ordfeminine" format="1">
  <advance width="344"/>
  <unicode hex="00AA"/>
  <outline>
    <contour>
      <point x="167" y="702" type="curve"/>
      <point x="140" y="702"/>
      <point x="89" y="691"/>
      <point x="64" y="673" type="curve"/>
      <point x="76" y="636" type="line"/>
      <point x="100" y="646"/>
      <point x="122" y="658"/>
      <point x="168" y="658" type="curve"/>
      <point x="221" y="658"/>
      <point x="248" y="627"/>
      <point x="248" y="582" type="curve"/>
      <point x="248" y="561" type="line"/>
      <point x="162" y="561" type="line" smooth="yes"/>
      <point x="94" y="561"/>
      <point x="42" y="525"/>
      <point x="42" y="464" type="curve"/>
      <point x="42" y="406"/>
      <point x="88" y="363"/>
      <point x="157" y="363" type="curve"/>
      <point x="194" y="363"/>
      <point x="230" y="384"/>
      <point x="251" y="408" type="curve"/>
      <point x="262" y="372" type="line"/>
      <point x="299" y="372" type="line"/>
      <point x="299" y="580" type="line" smooth="yes"/>
      <point x="299" y="643"/>
      <point x="253" y="702"/>
    </contour>
    <contour>
      <point x="157" y="403" type="curve"/>
      <point x="117" y="403"/>
      <point x="92" y="434"/>
      <point x="92" y="464" type="curve"/>
      <point x="92" y="501"/>
      <point x="123" y="525"/>
      <point x="171" y="525" type="curve"/>
      <point x="248" y="525" type="line"/>
      <point x="248" y="456" type="line"/>
      <point x="227" y="427"/>
      <point x="194" y="403"/>
    </contour>
  </outline>
</glyph>
<glyph name="guillemotleft" format="1">
  <advance width="359"/>
  <unicode hex="00AB"/>
  <outline>
    <contour>
      <point x="30" y="264" type="line"/>
      <point x="30" y="226" type="line"/>
      <point x="170" y="84" type="line"/>
      <point x="191" y="120" type="line"/>
      <point x="74" y="245" type="line"/>
      <point x="191" y="370" type="line"/>
      <point x="170" y="406" type="line"/>
    </contour>
    <contour>
      <point x="182" y="264" type="line"/>
      <point x="182" y="226" type="line"/>
      <point x="322" y="84" type="line"/>
      <point x="343" y="120" type="line"/>
      <point x="225" y="245" type="line"/>
      <point x="343" y="370" type="line"/>
      <point x="322" y="406" type="line"/>
    </contour>
  </outline>
</glyph>
<glyph name="logicalnot" format="1">
  <advance width="508"/>
  <unicode hex="00AC"/>
  <outline>
    <contour>
      <point x="482" y="356" type="line"/>
      <point x="474" y="406" type="line"/>
      <point x="13" y="406" type="line"/>
      <point x="21" y="361" type="line"/>
      <point x="429" y="361" type="line"/>
      <point x="429" y="117" type="line"/>
      <point x="482" y="112" type="line"/>
    </contour>
  </outline>
</glyph>
<glyph name="registered" format="1">
  <advance width="736"/>
  <unicode hex="00AE"/>
  <outline>
    <contour>
      <point x="369" y="176" type="curve"/>
      <point x="560" y="176"/>
      <point x="686" y="312"/>
      <point x="686" y="487" type="curve"/>
      <point x="686" y="664"/>
      <point x="560" y="800"/>
      <point x="369" y="800" type="curve"/>
      <point x="175" y="800"/>
      <point x="51" y="664"/>
      <point x="51" y="487" type="curve"/>
      <point x="51" y="312"/>
      <point x="176" y="176"/>
    </contour>
    <contour>
      <point x="369" y="218" type="curve"/>
      <point x="203" y="220"/>
      <point x="102" y="335"/>
      <point x="102" y="488" type="curve"/>
      <point x="102" y="643"/>
      <point x="203" y="757"/>
      <point x="369" y="757" type="curve"/>
      <point x="533" y="757"/>
      <point x="634" y="643"/>
      <point x="634" y="488" type="curve"/>
      <point x="634" y="335"/>
      <point x="533" y="220"/>
    </contour>
    <contour>
      <point x="469" y="304" type="line"/>
      <point x="521" y="304" type="line"/>
      <point x="422" y="472" type="line"/>
      <point x="459" y="488"/>
      <point x="491" y="521"/>
      <point x="491" y="572" type="curve"/>
      <point x="491" y="651"/>
      <point x="434" y="680"/>
      <point x="355" y="680" type="curve"/>
      <point x="263" y="680" type="line"/>
      <point x="263" y="304" type="line"/>
      <point x="308" y="304" type="line"/>
      <point x="308" y="462" type="line"/>
      <point x="350" y="462" type="line" smooth="yes"/>
      <point x="359" y="462"/>
      <point x="369" y="463"/>
      <point x="379" y="463" type="curve"/>
    </contour>
    <contour>
      <point x="344" y="643" type="line" smooth="yes"/>
      <point x="402" y="643"/>
      <point x="444" y="637"/>
      <point x="444" y="571" type="curve"/>
      <point x="444" y="509"/>
      <point x="395" y="497"/>
      <point x="339" y="497" type="curve"/>
      <point x="308" y="497" type="line"/>
      <point x="308" y="643" type="line"/>
    </contour>
  </outline>
</glyph>
<glyph name="macron" format="1">
  <advance width="266"/>
  <unicode hex="00AF"/>
  <outline>
    <contour>
      <point x="13" y="683" type="line"/>
      <point x="13" y="640" type="line"/>
      <point x="254" y="640" type="line"/>
      <point x="254" y="683" type="line"/>
    </contour>
  </outline>
</glyph>
<glyph name="degree" format="1">
  <advance width="249"/>
  <unicode hex="00B0"/>
  <outline>
    <contour>
      <point x="189" y="599" type="curve"/>
      <point x="189" y="565"/>
      <point x="165" y="533"/>
      <point x="126" y="533" type="curve"/>
      <point x="87" y="533"/>
      <point x="61" y="565"/>
      <point x="61" y="599" type="curve"/>
      <point x="61" y="633"/>
      <point x="86" y="664"/>
      <point x="124" y="664" type="curve"/>
      <point x="162" y="664"/>
      <point x="189" y="633"/>
    </contour>
    <contour>
      <point x="231" y="599" type="curve"/>
      <point x="231" y="657"/>
      <point x="184" y="702"/>
      <point x="124" y="702" type="curve"/>
      <point x="64" y="702"/>
      <point x="18" y="657"/>
      <point x="18" y="599" type="curve"/>
      <point x="18" y="539"/>
      <point x="64" y="498"/>
      <point x="124" y="498" type="curve"/>
      <point x="184" y="498"/>
      <point x="231" y="539"/>
    </contour>
  </outline>
</glyph>
<glyph name="plusminus" format="1">
  <advance width="483"/>
  <unicode hex="00B1"/>
  <outline>
    <contour>
      <point x="454" y="305" type="line"/>
      <point x="446" y="347" type="line"/>
      <point x="265" y="347" type="line"/>
      <point x="265" y="531" type="line"/>
      <point x="212" y="534" type="line"/>
      <point x="212" y="347" type="line"/>
      <point x="25" y="347" type="line"/>
      <point x="33" y="305" type="line"/>
      <point x="212" y="305" type="line"/>
      <point x="212" y="113" type="line"/>
      <point x="265" y="108" type="line"/>
      <point x="265" y="305" type="line"/>
    </contour>
    <contour>
      <point x="457" y="0" type="line"/>
      <point x="449" y="42" type="line"/>
      <point x="25" y="42" type="line"/>
      <point x="33" y="0" type="line"/>
    </contour>
  </outline>
</glyph>
<glyph name="twosuperior" format="1">
  <advance width="380"/>
  <unicode hex="00B2"/>
  <outline>
    <contour>
      <point x="318" y="650" type="curve"/>
      <point x="318" y="706"/>
      <point x="279" y="771"/>
      <point x="177" y="771" type="curve"/>
      <point x="108" y="771"/>
      <point x="56" y="733"/>
      <point x="54" y="733" type="curve"/>
      <point x="74" y="695" type="line"/>
      <point x="75" y="697"/>
      <point x="124" y="731"/>
      <point x="175" y="731" type="curve"/>
      <point x="243" y="731"/>
      <point x="268" y="684"/>
      <point x="268" y="647" type="curve"/>
      <point x="268" y="616"/>
      <point x="252" y="575"/>
      <point x="186" y="515" type="curve"/>
      <point x="30" y="376" type="line"/>
      <point x="30" y="336" type="line"/>
      <point x="332" y="336" type="line"/>
      <point x="326" y="374" type="line"/>
      <point x="88" y="374" type="line"/>
      <point x="213" y="483" type="line" smooth="yes"/>
      <point x="286" y="547"/>
      <point x="318" y="594"/>
    </contour>
  </outline>
</glyph>
<glyph name="acute" format="1">
  <advance width="152"/>
  <unicode hex="00B4"/>
  <outline>
    <contour>
      <point x="73" y="742" type="line"/>
      <point x="13" y="589" type="line"/>
      <point x="54" y="589" type="line"/>
      <point x="140" y="742" type="line"/>
    </contour>
  </outline>
</glyph>
<glyph name="mu" format="1">
  <advance width="520"/>
  <unicode hex="00B5"/>
  <outline>
    <contour>
      <point x="438" y="485" type="line"/>
      <point x="382" y="485" type="line"/>
      <point x="382" y="101" type="line"/>
      <point x="336" y="57"/>
      <point x="275" y="35"/>
      <point x="238" y="35" type="curve" smooth="yes"/>
      <point x="169" y="35"/>
      <point x="137" y="87"/>
      <point x="137" y="153" type="curve" smooth="yes"/>
      <point x="137" y="485" type="line"/>
      <point x="82" y="485" type="line"/>
      <point x="82" y="-219" type="line"/>
      <point x="137" y="-208" type="line"/>
      <point x="137" y="14" type="line"/>
      <point x="160" y="-2"/>
      <point x="192" y="-12"/>
      <point x="233" y="-12" type="curve" smooth="yes"/>
      <point x="284" y="-12"/>
      <point x="342" y="17"/>
      <point x="384" y="55" type="curve"/>
      <point x="403" y="0" type="line"/>
      <point x="438" y="0" type="line"/>
    </contour>
  </outline>
</glyph>
<glyph name="paragraph" format="1">
  <advance width="819"/>
  <unicode hex="00B6"/>
  <outline>
    <contour>
      <point x="347" y="0" type="line"/>
      <point x="402" y="0" type="line"/>
      <point x="402" y="636" type="line"/>
      <point x="627" y="636" type="line"/>
      <point x="627" y="0" type="line"/>
      <point x="683" y="0" type="line"/>
      <point x="683" y="636" type="line"/>
      <point x="788" y="636" type="line"/>
      <point x="788" y="680" type="line"/>
      <point x="298" y="680" type="line" smooth="yes"/>
      <point x="155" y="680"/>
      <point x="53" y="619"/>
      <point x="53" y="475" type="curve"/>
      <point x="54" y="331"/>
      <point x="167" y="264"/>
      <point x="309" y="264" type="curve"/>
      <point x="347" y="264" type="line"/>
    </contour>
  </outline>
</glyph>
<glyph name="periodcentered" format="1">
  <advance width="132"/>
  <unicode hex="00B7"/>
  <outline>
    <contour>
      <point x="109" y="262" type="curve"/>
      <point x="109" y="286"/>
      <point x="89" y="304"/>
      <point x="66" y="304" type="curve"/>
      <point x="41" y="304"/>
      <point x="23" y="286"/>
      <point x="23" y="262" type="curve"/>
      <point x="23" y="238"/>
      <point x="41" y="219"/>
      <point x="66" y="219" type="curve"/>
      <point x="89" y="219"/>
      <point x="109" y="238"/>
    </contour>
  </outline>
</glyph>
<glyph name="cedilla" format="1">
  <advance width="212"/>
  <unicode hex="00B8"/>
  <outline>
    <contour>
      <point x="92" y="13" type="line"/>
      <point x="56" y="-79" type="line"/>
      <point x="113" y="-82"/>
      <point x="151" y="-108"/>
      <point x="151" y="-136" type="curve"/>
      <point x="151" y="-162"/>
      <point x="122" y="-180"/>
      <point x="87" y="-180" type="curve"/>
      <point x="66" y="-180"/>
      <point x="40" y="-172"/>
      <point x="28" y="-166" type="curve"/>
      <point x="13" y="-202" type="line"/>
      <point x="31" y="-213"/>
      <point x="64" y="-221"/>
      <point x="88" y="-221" type="curve"/>
      <point x="150" y="-221"/>
      <point x="199" y="-190"/>
      <point x="199" y="-134" type="curve"/>
      <point x="199" y="-99"/>
      <point x="166" y="-61"/>
      <point x="113" y="-53" type="curve"/>
      <point x="139" y="13" type="line"/>
    </contour>
  </outline>
</glyph>
<glyph name="onesuperior" format="1">
  <advance width="309"/>
  <unicode hex="00B9"/>
  <outline>
    <contour>
      <point x="259" y="336" type="line"/>
      <point x="252" y="374" type="line"/>
      <point x="186" y="374" type="line"/>
      <point x="186" y="765" type="line"/>
      <point x="156" y="765" type="line"/>
      <point x="60" y="700" type="line"/>
      <point x="83" y="669" type="line"/>
      <point x="137" y="706" type="line"/>
      <point x="137" y="374" type="line"/>
      <point x="58" y="374" type="line"/>
      <point x="61" y="336" type="line"/>
    </contour>
  </outline>
</glyph>
<glyph name="ordmasculine" format="1">
  <advance width="369"/>
  <unicode hex="00BA"/>
  <outline>
    <contour>
      <point x="339" y="532" type="curve"/>
      <point x="339" y="640"/>
      <point x="271" y="702"/>
      <point x="184" y="702" type="curve"/>
      <point x="100" y="702"/>
      <point x="31" y="636"/>
      <point x="31" y="532" type="curve"/>
      <point x="31" y="424"/>
      <point x="98" y="363"/>
      <point x="184" y="363" type="curve"/>
      <point x="270" y="363"/>
      <point x="339" y="428"/>
    </contour>
    <contour>
      <point x="83" y="532" type="curve"/>
      <point x="83" y="619"/>
      <point x="136" y="659"/>
      <point x="184" y="659" type="curve"/>
      <point x="239" y="659"/>
      <point x="285" y="617"/>
      <point x="285" y="532" type="curve"/>
      <point x="285" y="445"/>
      <point x="233" y="405"/>
      <point x="184" y="405" type="curve"/>
      <point x="133" y="405"/>
      <point x="83" y="449"/>
    </contour>
  </outline>
</glyph>
<glyph name="guillemotright" format="1">
  <advance width="359"/>
  <unicode hex="00BB"/>
  <outline>
    <contour>
      <point x="328" y="226" type="line"/>
      <point x="328" y="264" type="line"/>
      <point x="189" y="406" type="line"/>
      <point x="181" y="394"/>
      <point x="174" y="382"/>
      <point x="167" y="370" type="curve"/>
      <point x="206" y="328"/>
      <point x="245" y="286"/>
      <point x="285" y="245" type="curve"/>
      <point x="167" y="120" type="line"/>
      <point x="174" y="108"/>
      <point x="181" y="96"/>
      <point x="189" y="84" type="curve"/>
    </contour>
    <contour>
      <point x="177" y="226" type="line"/>
      <point x="177" y="264" type="line"/>
      <point x="37" y="406" type="line"/>
      <point x="29" y="394"/>
      <point x="22" y="382"/>
      <point x="15" y="370" type="curve"/>
      <point x="54" y="328"/>
      <point x="93" y="286"/>
      <point x="133" y="245" type="curve"/>
      <point x="15" y="120" type="line"/>
      <point x="22" y="108"/>
      <point x="29" y="96"/>
      <point x="37" y="84" type="curve"/>
    </contour>
  </outline>
</glyph>
<glyph name="onequarter" format="1">
  <advance width="728"/>
  <unicode hex="00BC"/>
  <outline>
    <contour>
      <point x="693" y="-70" type="line"/>
      <point x="697" y="-31" type="line"/>
      <point x="616" y="-31" type="line"/>
      <point x="616" y="321" type="line"/>
      <point x="584" y="321" type="line"/>
      <point x="349" y="-6" type="line" smooth="yes"/>
      <point x="343" y="-14"/>
      <point x="336" y="-22"/>
      <point x="330" y="-31" type="curve"/>
      <point x="330" y="-41"/>
      <point x="332" y="-58"/>
      <point x="335" y="-70" type="curve"/>
      <point x="568" y="-70" type="line"/>
      <point x="568" y="-163" type="line"/>
      <point x="616" y="-163" type="line"/>
      <point x="616" y="-70" type="line"/>
    </contour>
    <contour>
      <point x="259" y="336" type="line"/>
      <point x="252" y="374" type="line"/>
      <point x="186" y="374" type="line"/>
      <point x="186" y="765" type="line"/>
      <point x="156" y="765" type="line"/>
      <point x="60" y="700" type="line"/>
      <point x="83" y="669" type="line"/>
      <point x="137" y="706" type="line"/>
      <point x="137" y="374" type="line"/>
      <point x="58" y="374" type="line"/>
      <point x="61" y="336" type="line"/>
    </contour>
    <contour>
      <point x="383" y="-31" type="line"/>
      <point x="444" y="56"/>
      <point x="506" y="142"/>
      <point x="568" y="229" type="curve"/>
      <point x="568" y="-31" type="line"/>
    </contour>
    <contour>
      <point x="497" y="498" type="line"/>
      <point x="447" y="501" type="line"/>
      <point x="157" y="0" type="line"/>
      <point x="207" y="-4" type="line"/>
    </contour>
  </outline>
</glyph>
<glyph name="onehalf" format="1">
  <advance width="777"/>
  <unicode hex="00BD"/>
  <outline>
    <contour>
      <point x="715" y="204" type="curve"/>
      <point x="715" y="260"/>
      <point x="675" y="325"/>
      <point x="574" y="325" type="curve"/>
      <point x="506" y="325"/>
      <point x="454" y="287"/>
      <point x="452" y="287" type="curve"/>
      <point x="471" y="250" type="line"/>
      <point x="472" y="252"/>
      <point x="522" y="285"/>
      <point x="573" y="285" type="curve"/>
      <point x="640" y="285"/>
      <point x="665" y="238"/>
      <point x="665" y="201" type="curve"/>
      <point x="665" y="170"/>
      <point x="648" y="129"/>
      <point x="583" y="70" type="curve"/>
      <point x="428" y="-70" type="line"/>
      <point x="428" y="-110" type="line"/>
      <point x="729" y="-110" type="line"/>
      <point x="723" y="-72" type="line"/>
      <point x="485" y="-72" type="line"/>
      <point x="610" y="37" type="line" smooth="yes"/>
      <point x="683" y="101"/>
      <point x="715" y="148"/>
    </contour>
    <contour>
      <point x="259" y="336" type="line"/>
      <point x="252" y="374" type="line"/>
      <point x="186" y="374" type="line"/>
      <point x="186" y="765" type="line"/>
      <point x="156" y="765" type="line"/>
      <point x="60" y="700" type="line"/>
      <point x="83" y="669" type="line"/>
      <point x="137" y="706" type="line"/>
      <point x="137" y="374" type="line"/>
      <point x="58" y="374" type="line"/>
      <point x="61" y="336" type="line"/>
    </contour>
    <contour>
      <point x="491" y="498" type="line"/>
      <point x="442" y="501" type="line"/>
      <point x="152" y="0" type="line"/>
      <point x="201" y="-4" type="line"/>
    </contour>
  </outline>
</glyph>
<glyph name="threequarters" format="1">
  <advance width="802"/>
  <unicode hex="00BE"/>
  <outline>
    <contour>
      <point x="767" y="-70" type="line"/>
      <point x="771" y="-31" type="line"/>
      <point x="690" y="-31" type="line"/>
      <point x="690" y="321" type="line"/>
      <point x="658" y="321" type="line"/>
      <point x="423" y="-6" type="line"/>
      <point x="416" y="-14"/>
      <point x="410" y="-22"/>
      <point x="404" y="-31" type="curve"/>
      <point x="404" y="-42"/>
      <point x="406" y="-58"/>
      <point x="409" y="-70" type="curve"/>
      <point x="642" y="-70" type="line"/>
      <point x="642" y="-163" type="line"/>
      <point x="690" y="-163" type="line"/>
      <point x="690" y="-70" type="line"/>
    </contour>
    <contour>
      <point x="328" y="651" type="curve" smooth="yes"/>
      <point x="328" y="716"/>
      <point x="281" y="771"/>
      <point x="180" y="771" type="curve" smooth="yes"/>
      <point x="119" y="771"/>
      <point x="74" y="752"/>
      <point x="34" y="727" type="curve"/>
      <point x="41" y="715"/>
      <point x="49" y="704"/>
      <point x="56" y="693" type="curve"/>
      <point x="81" y="709"/>
      <point x="122" y="731"/>
      <point x="179" y="731" type="curve" smooth="yes"/>
      <point x="241" y="731"/>
      <point x="277" y="696"/>
      <point x="277" y="650" type="curve" smooth="yes"/>
      <point x="277" y="593"/>
      <point x="236" y="556"/>
      <point x="153" y="556" type="curve" smooth="yes"/>
      <point x="121" y="556" type="line"/>
      <point x="128" y="517" type="line"/>
      <point x="148" y="517" type="line" smooth="yes"/>
      <point x="253" y="517"/>
      <point x="287" y="480"/>
      <point x="287" y="415" type="curve" smooth="yes"/>
      <point x="287" y="353"/>
      <point x="232" y="320"/>
      <point x="172" y="320" type="curve" smooth="yes"/>
      <point x="115" y="320"/>
      <point x="84" y="332"/>
      <point x="49" y="353" type="curve"/>
      <point x="25" y="318" type="line"/>
      <point x="60" y="298"/>
      <point x="112" y="278"/>
      <point x="168" y="278" type="curve" smooth="yes"/>
      <point x="274" y="278"/>
      <point x="337" y="338"/>
      <point x="337" y="416" type="curve" smooth="yes"/>
      <point x="337" y="479"/>
      <point x="302" y="525"/>
      <point x="245" y="538" type="curve"/>
      <point x="291" y="553"/>
      <point x="328" y="596"/>
    </contour>
    <contour>
      <point x="457" y="-31" type="line"/>
      <point x="642" y="229" type="line"/>
      <point x="642" y="-31" type="line"/>
    </contour>
    <contour>
      <point x="571" y="498" type="line"/>
      <point x="521" y="501" type="line"/>
      <point x="231" y="0" type="line"/>
      <point x="280" y="-4" type="line"/>
    </contour>
  </outline>
</glyph>
<glyph name="questiondown" format="1">
  <advance width="402"/>
  <unicode hex="00BF"/>
  <outline>
    <contour>
      <point x="30" y="83" type="curve"/>
      <point x="30" y="-13"/>
      <point x="86" y="-80"/>
      <point x="212" y="-80" type="curve"/>
      <point x="291" y="-80"/>
      <point x="345" y="-53"/>
      <point x="388" y="-20" type="curve"/>
      <point x="380" y="28" type="line"/>
      <point x="328" y="-9"/>
      <point x="287" y="-33"/>
      <point x="214" y="-33" type="curve"/>
      <point x="134" y="-33"/>
      <point x="90" y="4"/>
      <point x="90" y="84" type="curve"/>
      <point x="90" y="161"/>
      <point x="159" y="224"/>
      <point x="263" y="258" type="curve"/>
      <point x="256" y="464" type="line"/>
      <point x="216" y="484" type="line"/>
      <point x="208" y="290" type="line"/>
      <point x="96" y="240"/>
      <point x="30" y="159"/>
    </contour>
    <contour>
      <point x="197" y="579" type="curve"/>
      <point x="197" y="554"/>
      <point x="217" y="535"/>
      <point x="241" y="535" type="curve"/>
      <point x="266" y="535"/>
      <point x="284" y="554"/>
      <point x="284" y="579" type="curve"/>
      <point x="284" y="603"/>
      <point x="266" y="622"/>
      <point x="241" y="622" type="curve"/>
      <point x="217" y="622"/>
      <point x="197" y="603"/>
    </contour>
  </outline>
</glyph>
<glyph name="Aacute" format="1">
  <advance width="588"/>
  <unicode hex="00C1"/>
  <outline>
    <contour>
      <point x="315" y="680" type="line"/>
      <point x="260" y="680" type="line"/>
      <point x="13" y="0" type="line"/>
      <point x="67" y="0" type="line"/>
      <point x="143" y="208" type="line"/>
      <point x="439" y="208" type="line"/>
      <point x="519" y="0" type="line"/>
      <point x="575" y="10" type="line"/>
    </contour>
    <contour>
      <point x="288" y="607" type="line"/>
      <point x="423" y="253" type="line"/>
      <point x="158" y="253" type="line"/>
    </contour>
    <contour>
      <point x="303" y="892" type="line"/>
      <point x="243" y="739" type="line"/>
      <point x="284" y="739" type="line"/>
      <point x="370" y="892" type="line"/>
    </contour>
  </outline>
</glyph>
<glyph name="Acircumflex" format="1">
  <advance width="588"/>
  <unicode hex="00C2"/>
  <outline>
    <contour>
      <point x="315" y="680" type="line"/>
      <point x="260" y="680" type="line"/>
      <point x="13" y="0" type="line"/>
      <point x="67" y="0" type="line"/>
      <point x="143" y="208" type="line"/>
      <point x="439" y="208" type="line"/>
      <point x="519" y="0" type="line"/>
      <point x="575" y="10" type="line"/>
    </contour>
    <contour>
      <point x="288" y="607" type="line"/>
      <point x="423" y="253" type="line"/>
      <point x="158" y="253" type="line"/>
    </contour>
    <contour>
      <point x="208" y="739" type="line"/>
      <point x="288" y="853" type="line"/>
      <point x="367" y="739" type="line"/>
      <point x="424" y="739" type="line"/>
      <point x="313" y="892" type="line"/>
      <point x="263" y="892" type="line"/>
      <point x="153" y="739" type="line"/>
    </contour>
  </outline>
</glyph>
<glyph name="Atilde" format="1">
  <advance width="588"/>
  <unicode hex="00C3"/>
  <outline>
    <contour>
      <point x="315" y="680" type="line"/>
      <point x="260" y="680" type="line"/>
      <point x="13" y="0" type="line"/>
      <point x="67" y="0" type="line"/>
      <point x="92" y="69"/>
      <point x="117" y="139"/>
      <point x="143" y="208" type="curve"/>
      <point x="439" y="208" type="line"/>
      <point x="519" y="0" type="line"/>
      <point x="575" y="10" type="line"/>
    </contour>
    <contour>
      <point x="288" y="607" type="curve"/>
      <point x="423" y="253" type="line"/>
      <point x="158" y="253" type="line"/>
      <point x="202" y="371"/>
      <point x="245" y="489"/>
    </contour>
    <contour>
      <point x="343" y="758" type="curve" smooth="yes"/>
      <point x="390" y="758"/>
      <point x="426" y="782"/>
      <point x="426" y="849" type="curve"/>
      <point x="384" y="849" type="line"/>
      <point x="381" y="818"/>
      <point x="365" y="801"/>
      <point x="343" y="801" type="curve" smooth="yes"/>
      <point x="308" y="801"/>
      <point x="286" y="853"/>
      <point x="230" y="853" type="curve" smooth="yes"/>
      <point x="183" y="853"/>
      <point x="147" y="829"/>
      <point x="147" y="762" type="curve"/>
      <point x="189" y="762" type="line"/>
      <point x="192" y="793"/>
      <point x="208" y="810"/>
      <point x="231" y="810" type="curve" smooth="yes"/>
      <point x="265" y="810"/>
      <point x="297" y="758"/>
    </contour>
  </outline>
</glyph>
<glyph name="Adieresis" format="1">
  <advance width="588"/>
  <unicode hex="00C4"/>
  <outline>
    <contour>
      <point x="315" y="680" type="line"/>
      <point x="260" y="680" type="line"/>
      <point x="13" y="0" type="line"/>
      <point x="67" y="0" type="line"/>
      <point x="143" y="208" type="line"/>
      <point x="439" y="208" type="line"/>
      <point x="519" y="0" type="line"/>
      <point x="575" y="10" type="line"/>
    </contour>
    <contour>
      <point x="288" y="607" type="line"/>
      <point x="423" y="253" type="line"/>
      <point x="158" y="253" type="line"/>
    </contour>
    <contour>
      <point x="250" y="808" type="curve"/>
      <point x="250" y="830"/>
      <point x="232" y="847"/>
      <point x="209" y="847" type="curve"/>
      <point x="186" y="847"/>
      <point x="169" y="830"/>
      <point x="169" y="808" type="curve"/>
      <point x="169" y="785"/>
      <point x="186" y="768"/>
      <point x="209" y="768" type="curve"/>
      <point x="232" y="768"/>
      <point x="250" y="785"/>
    </contour>
    <contour>
      <point x="407" y="808" type="curve"/>
      <point x="407" y="830"/>
      <point x="390" y="847"/>
      <point x="367" y="847" type="curve"/>
      <point x="344" y="847"/>
      <point x="327" y="830"/>
      <point x="327" y="808" type="curve"/>
      <point x="327" y="785"/>
      <point x="344" y="768"/>
      <point x="367" y="768" type="curve"/>
      <point x="390" y="768"/>
      <point x="407" y="785"/>
    </contour>
  </outline>
</glyph>
<glyph name="Aring" format="1">
  <advance width="588"/>
  <unicode hex="00C5"/>
  <outline>
    <contour>
      <point x="315" y="680" type="line"/>
      <point x="260" y="680" type="line"/>
      <point x="13" y="0" type="line"/>
      <point x="67" y="0" type="line"/>
      <point x="143" y="208" type="line"/>
      <point x="439" y="208" type="line"/>
      <point x="519" y="0" type="line"/>
      <point x="575" y="10" type="line"/>
    </contour>
    <contour>
      <point x="288" y="607" type="line"/>
      <point x="423" y="253" type="line"/>
      <point x="158" y="253" type="line"/>
    </contour>
    <contour>
      <point x="334" y="825" type="curve"/>
      <point x="334" y="798"/>
      <point x="315" y="778"/>
      <point x="288" y="778" type="curve"/>
      <point x="261" y="778"/>
      <point x="241" y="798"/>
      <point x="241" y="825" type="curve"/>
      <point x="241" y="853"/>
      <point x="261" y="873"/>
      <point x="288" y="873" type="curve"/>
      <point x="315" y="873"/>
      <point x="334" y="853"/>
    </contour>
    <contour>
      <point x="376" y="825" type="curve"/>
      <point x="376" y="873"/>
      <point x="336" y="909"/>
      <point x="288" y="909" type="curve"/>
      <point x="240" y="909"/>
      <point x="199" y="873"/>
      <point x="199" y="825" type="curve"/>
      <point x="199" y="778"/>
      <point x="240" y="744"/>
      <point x="288" y="744" type="curve"/>
      <point x="336" y="744"/>
      <point x="376" y="778"/>
    </contour>
  </outline>
</glyph>
<glyph name="AE" format="1">
  <advance width="849"/>
  <unicode hex="00C6"/>
  <outline>
    <contour>
      <point x="432" y="208" type="line"/>
      <point x="432" y="0" type="line"/>
      <point x="813" y="0" type="line"/>
      <point x="812" y="15"/>
      <point x="810" y="29"/>
      <point x="808" y="44" type="curve"/>
      <point x="488" y="44" type="line"/>
      <point x="488" y="327" type="line"/>
      <point x="693" y="327" type="line"/>
      <point x="688" y="369" type="line"/>
      <point x="488" y="369" type="line"/>
      <point x="488" y="638" type="line"/>
      <point x="792" y="638" type="line"/>
      <point x="786" y="680" type="line"/>
      <point x="424" y="680" type="line"/>
      <point x="8" y="10" type="line"/>
      <point x="61" y="0" type="line"/>
      <point x="189" y="208" type="line"/>
    </contour>
    <contour>
      <point x="217" y="253" type="line"/>
      <point x="288" y="370"/>
      <point x="360" y="486"/>
      <point x="432" y="603" type="curve"/>
      <point x="432" y="253" type="line"/>
    </contour>
  </outline>
</glyph>
<glyph name="Ccedilla" format="1">
  <advance width="584"/>
  <unicode hex="00C7"/>
  <outline>
    <contour>
      <point x="363" y="645" type="curve"/>
      <point x="435" y="645"/>
      <point x="467" y="633"/>
      <point x="508" y="616" type="curve"/>
      <point x="528" y="657" type="line"/>
      <point x="490" y="683"/>
      <point x="404" y="694"/>
      <point x="363" y="694" type="curve"/>
      <point x="166" y="694"/>
      <point x="69" y="536"/>
      <point x="69" y="336" type="curve"/>
      <point x="69" y="157"/>
      <point x="142" y="-1"/>
      <point x="332" y="-13" type="curve"/>
      <point x="307" y="-79" type="line"/>
      <point x="364" y="-82"/>
      <point x="401" y="-108"/>
      <point x="401" y="-136" type="curve"/>
      <point x="401" y="-162"/>
      <point x="372" y="-180"/>
      <point x="337" y="-180" type="curve"/>
      <point x="316" y="-180"/>
      <point x="290" y="-172"/>
      <point x="278" y="-166" type="curve"/>
      <point x="263" y="-202" type="line"/>
      <point x="281" y="-213"/>
      <point x="315" y="-221"/>
      <point x="339" y="-221" type="curve"/>
      <point x="401" y="-221"/>
      <point x="449" y="-190"/>
      <point x="449" y="-134" type="curve"/>
      <point x="449" y="-99"/>
      <point x="416" y="-61"/>
      <point x="364" y="-53" type="curve"/>
      <point x="379" y="-13" type="line"/>
      <point x="432" y="-10"/>
      <point x="494" y="5"/>
      <point x="528" y="23" type="curve"/>
      <point x="504" y="65" type="line"/>
      <point x="468" y="49"/>
      <point x="426" y="35"/>
      <point x="354" y="35" type="curve"/>
      <point x="198" y="35"/>
      <point x="130" y="174"/>
      <point x="130" y="337" type="curve"/>
      <point x="130" y="521"/>
      <point x="220" y="644"/>
    </contour>
  </outline>
</glyph>
<glyph name="Egrave" format="1">
  <advance width="519"/>
  <unicode hex="00C8"/>
  <outline>
    <contour>
      <point x="102" y="0" type="line"/>
      <point x="484" y="0" type="line"/>
      <point x="478" y="44" type="line"/>
      <point x="158" y="44" type="line"/>
      <point x="158" y="327" type="line"/>
      <point x="363" y="327" type="line"/>
      <point x="358" y="369" type="line"/>
      <point x="158" y="369" type="line"/>
      <point x="158" y="638" type="line"/>
      <point x="461" y="638" type="line"/>
      <point x="456" y="680" type="line"/>
      <point x="102" y="680" type="line"/>
    </contour>
    <contour>
      <point x="188" y="892" type="line"/>
      <point x="273" y="739" type="line"/>
      <point x="315" y="739" type="line"/>
      <point x="254" y="892" type="line"/>
    </contour>
  </outline>
</glyph>
<glyph name="Eacute" format="1">
  <advance width="519"/>
  <unicode hex="00C9"/>
  <outline>
    <contour>
      <point x="102" y="0" type="line"/>
      <point x="484" y="0" type="line"/>
      <point x="478" y="44" type="line"/>
      <point x="158" y="44" type="line"/>
      <point x="158" y="327" type="line"/>
      <point x="363" y="327" type="line"/>
      <point x="358" y="369" type="line"/>
      <point x="158" y="369" type="line"/>
      <point x="158" y="638" type="line"/>
      <point x="461" y="638" type="line"/>
      <point x="456" y="680" type="line"/>
      <point x="102" y="680" type="line"/>
    </contour>
    <contour>
      <point x="288" y="892" type="line"/>
      <point x="228" y="739" type="line"/>
      <point x="269" y="739" type="line"/>
      <point x="355" y="892" type="line"/>
    </contour>
  </outline>
</glyph>
<glyph name="Edieresis" format="1">
  <advance width="519"/>
  <unicode hex="00CB"/>
  <outline>
    <contour>
      <point x="102" y="0" type="line"/>
      <point x="484" y="0" type="line"/>
      <point x="478" y="44" type="line"/>
      <point x="158" y="44" type="line"/>
      <point x="158" y="327" type="line"/>
      <point x="363" y="327" type="line"/>
      <point x="358" y="369" type="line"/>
      <point x="158" y="369" type="line"/>
      <point x="158" y="638" type="line"/>
      <point x="461" y="638" type="line"/>
      <point x="456" y="680" type="line"/>
      <point x="102" y="680" type="line"/>
    </contour>
    <contour>
      <point x="235" y="808" type="curve"/>
      <point x="235" y="830"/>
      <point x="217" y="847"/>
      <point x="194" y="847" type="curve"/>
      <point x="171" y="847"/>
      <point x="154" y="830"/>
      <point x="154" y="808" type="curve"/>
      <point x="154" y="785"/>
      <point x="171" y="768"/>
      <point x="194" y="768" type="curve"/>
      <point x="217" y="768"/>
      <point x="235" y="785"/>
    </contour>
    <contour>
      <point x="392" y="808" type="curve"/>
      <point x="392" y="830"/>
      <point x="375" y="847"/>
      <point x="352" y="847" type="curve"/>
      <point x="329" y="847"/>
      <point x="312" y="830"/>
      <point x="312" y="808" type="curve"/>
      <point x="312" y="785"/>
      <point x="329" y="768"/>
      <point x="352" y="768" type="curve"/>
      <point x="375" y="768"/>
      <point x="392" y="785"/>
    </contour>
  </outline>
</glyph>
<glyph name="Igrave" format="1">
  <advance width="260"/>
  <unicode hex="00CC"/>
  <outline>
    <contour>
      <point x="102" y="0" type="line"/>
      <point x="158" y="0" type="line"/>
      <point x="158" y="680" type="line"/>
      <point x="102" y="680" type="line"/>
    </contour>
    <contour>
      <point x="42" y="892" type="line"/>
      <point x="127" y="739" type="line"/>
      <point x="169" y="739" type="line"/>
      <point x="108" y="892" type="line"/>
    </contour>
  </outline>
</glyph>
<glyph name="Icircumflex" format="1">
  <advance width="260"/>
  <unicode hex="00CE"/>
  <outline>
    <contour>
      <point x="102" y="0" type="line"/>
      <point x="158" y="0" type="line"/>
      <point x="158" y="680" type="line"/>
      <point x="102" y="680" type="line"/>
    </contour>
    <contour>
      <point x="50" y="739" type="line"/>
      <point x="130" y="853" type="line"/>
      <point x="209" y="739" type="line"/>
      <point x="266" y="739" type="line"/>
      <point x="155" y="892" type="line"/>
      <point x="105" y="892" type="line"/>
      <point x="-5" y="739" type="line"/>
    </contour>
  </outline>
</glyph>
<glyph name="Idieresis" format="1">
  <advance width="260"/>
  <unicode hex="00CF"/>
  <outline>
    <contour>
      <point x="102" y="0" type="line"/>
      <point x="158" y="0" type="line"/>
      <point x="158" y="680" type="line"/>
      <point x="102" y="680" type="line"/>
    </contour>
    <contour>
      <point x="92" y="808" type="curve"/>
      <point x="92" y="830"/>
      <point x="74" y="847"/>
      <point x="51" y="847" type="curve"/>
      <point x="28" y="847"/>
      <point x="11" y="830"/>
      <point x="11" y="808" type="curve"/>
      <point x="11" y="785"/>
      <point x="28" y="768"/>
      <point x="51" y="768" type="curve"/>
      <point x="74" y="768"/>
      <point x="92" y="785"/>
    </contour>
    <contour>
      <point x="249" y="808" type="curve"/>
      <point x="249" y="830"/>
      <point x="232" y="847"/>
      <point x="209" y="847" type="curve"/>
      <point x="186" y="847"/>
      <point x="169" y="830"/>
      <point x="169" y="808" type="curve"/>
      <point x="169" y="785"/>
      <point x="186" y="768"/>
      <point x="209" y="768" type="curve"/>
      <point x="232" y="768"/>
      <point x="249" y="785"/>
    </contour>
  </outline>
</glyph>
<glyph name="Ntilde" format="1">
  <advance width="680"/>
  <unicode hex="00D1"/>
  <outline>
    <contour>
      <point x="102" y="0" type="line"/>
      <point x="158" y="0" type="line"/>
      <point x="158" y="567" type="line"/>
      <point x="172" y="538" type="line"/>
      <point x="296" y="358"/>
      <point x="420" y="179"/>
      <point x="545" y="0" type="curve"/>
      <point x="579" y="0" type="line"/>
      <point x="579" y="680" type="line"/>
      <point x="523" y="680" type="line"/>
      <point x="523" y="120" type="line"/>
      <point x="489" y="179" type="line"/>
      <point x="371" y="346"/>
      <point x="254" y="513"/>
      <point x="137" y="680" type="curve"/>
      <point x="102" y="680" type="line"/>
    </contour>
    <contour>
      <point x="402" y="758" type="curve" smooth="yes"/>
      <point x="450" y="758"/>
      <point x="486" y="782"/>
      <point x="486" y="849" type="curve"/>
      <point x="444" y="849" type="line"/>
      <point x="441" y="818"/>
      <point x="425" y="801"/>
      <point x="402" y="801" type="curve" smooth="yes"/>
      <point x="367" y="801"/>
      <point x="345" y="853"/>
      <point x="289" y="853" type="curve" smooth="yes"/>
      <point x="242" y="853"/>
      <point x="206" y="829"/>
      <point x="206" y="762" type="curve"/>
      <point x="248" y="762" type="line"/>
      <point x="251" y="793"/>
      <point x="267" y="810"/>
      <point x="290" y="810" type="curve" smooth="yes"/>
      <point x="324" y="810"/>
      <point x="356" y="758"/>
    </contour>
  </outline>
</glyph>
<glyph name="Otilde" format="1">
  <advance width="717"/>
  <unicode hex="00D5"/>
  <outline>
    <contour>
      <point x="648" y="345" type="curve" smooth="yes"/>
      <point x="648" y="531"/>
      <point x="565" y="696"/>
      <point x="362" y="696" type="curve" smooth="yes"/>
      <point x="170" y="696"/>
      <point x="69" y="537"/>
      <point x="69" y="337" type="curve" smooth="yes"/>
      <point x="69" y="152"/>
      <point x="152" y="-14"/>
      <point x="356" y="-14" type="curve" smooth="yes"/>
      <point x="549" y="-14"/>
      <point x="648" y="156"/>
    </contour>
    <contour>
      <point x="354" y="34" type="curve" smooth="yes"/>
      <point x="198" y="34"/>
      <point x="130" y="175"/>
      <point x="130" y="338" type="curve" smooth="yes"/>
      <point x="130" y="514"/>
      <point x="220" y="647"/>
      <point x="363" y="647" type="curve" smooth="yes"/>
      <point x="520" y="647"/>
      <point x="587" y="507"/>
      <point x="587" y="344" type="curve" smooth="yes"/>
      <point x="587" y="167"/>
      <point x="498" y="34"/>
    </contour>
    <contour>
      <point x="417" y="758" type="curve" smooth="yes"/>
      <point x="464" y="758"/>
      <point x="500" y="782"/>
      <point x="500" y="849" type="curve"/>
      <point x="458" y="849" type="line"/>
      <point x="455" y="818"/>
      <point x="439" y="801"/>
      <point x="417" y="801" type="curve" smooth="yes"/>
      <point x="382" y="801"/>
      <point x="360" y="853"/>
      <point x="304" y="853" type="curve" smooth="yes"/>
      <point x="257" y="853"/>
      <point x="221" y="829"/>
      <point x="221" y="762" type="curve"/>
      <point x="263" y="762" type="line"/>
      <point x="266" y="793"/>
      <point x="282" y="810"/>
      <point x="305" y="810" type="curve" smooth="yes"/>
      <point x="339" y="810"/>
      <point x="371" y="758"/>
    </contour>
  </outline>
</glyph>
<glyph name="Odieresis" format="1">
  <advance width="717"/>
  <unicode hex="00D6"/>
  <outline>
    <contour>
      <point x="648" y="345" type="curve"/>
      <point x="648" y="531"/>
      <point x="565" y="696"/>
      <point x="362" y="696" type="curve" smooth="yes"/>
      <point x="170" y="696"/>
      <point x="69" y="537"/>
      <point x="69" y="337" type="curve"/>
      <point x="69" y="152"/>
      <point x="152" y="-14"/>
      <point x="356" y="-14" type="curve" smooth="yes"/>
      <point x="549" y="-14"/>
      <point x="648" y="156"/>
    </contour>
    <contour>
      <point x="354" y="34" type="curve"/>
      <point x="198" y="34"/>
      <point x="130" y="175"/>
      <point x="130" y="338" type="curve"/>
      <point x="130" y="514"/>
      <point x="220" y="647"/>
      <point x="363" y="647" type="curve"/>
      <point x="520" y="647"/>
      <point x="587" y="507"/>
      <point x="587" y="344" type="curve"/>
      <point x="587" y="167"/>
      <point x="498" y="34"/>
    </contour>
    <contour>
      <point x="324" y="808" type="curve"/>
      <point x="324" y="830"/>
      <point x="306" y="847"/>
      <point x="283" y="847" type="curve"/>
      <point x="260" y="847"/>
      <point x="243" y="830"/>
      <point x="243" y="808" type="curve"/>
      <point x="243" y="785"/>
      <point x="260" y="768"/>
      <point x="283" y="768" type="curve"/>
      <point x="306" y="768"/>
      <point x="324" y="785"/>
    </contour>
    <contour>
      <point x="481" y="808" type="curve"/>
      <point x="481" y="830"/>
      <point x="464" y="847"/>
      <point x="441" y="847" type="curve"/>
      <point x="418" y="847"/>
      <point x="401" y="830"/>
      <point x="401" y="808" type="curve"/>
      <point x="401" y="785"/>
      <point x="418" y="768"/>
      <point x="441" y="768" type="curve"/>
      <point x="464" y="768"/>
      <point x="481" y="785"/>
    </contour>
  </outline>
</glyph>
<glyph name="multiply" format="1">
  <advance width="469"/>
  <unicode hex="00D7"/>
  <outline>
    <contour>
      <point x="25" y="41" type="line"/>
      <point x="76" y="31" type="line"/>
      <point x="224" y="211" type="line"/>
      <point x="372" y="31" type="line"/>
      <point x="428" y="31" type="line"/>
      <point x="261" y="240" type="line"/>
      <point x="444" y="464" type="line"/>
      <point x="387" y="464" type="line"/>
      <point x="230" y="277" type="line"/>
      <point x="82" y="464" type="line"/>
      <point x="30" y="454" type="line"/>
      <point x="195" y="248" type="line"/>
    </contour>
  </outline>
</glyph>
<glyph name="Oslash" format="1">
  <advance width="717"/>
  <unicode hex="00D8"/>
  <outline>
    <contour>
      <point x="648" y="345" type="curve"/>
      <point x="648" y="531"/>
      <point x="565" y="696"/>
      <point x="362" y="696" type="curve" smooth="yes"/>
      <point x="170" y="696"/>
      <point x="69" y="537"/>
      <point x="69" y="337" type="curve"/>
      <point x="69" y="152"/>
      <point x="152" y="-14"/>
      <point x="356" y="-14" type="curve" smooth="yes"/>
      <point x="549" y="-14"/>
      <point x="648" y="156"/>
    </contour>
    <contour>
      <point x="354" y="35" type="curve"/>
      <point x="319" y="35"/>
      <point x="288" y="41"/>
      <point x="263" y="54" type="curve"/>
      <point x="496" y="599" type="line"/>
      <point x="558" y="545"/>
      <point x="587" y="449"/>
      <point x="587" y="344" type="curve"/>
      <point x="587" y="167"/>
      <point x="498" y="35"/>
    </contour>
    <contour>
      <point x="130" y="338" type="curve"/>
      <point x="130" y="514"/>
      <point x="220" y="646"/>
      <point x="363" y="646" type="curve"/>
      <point x="397" y="646"/>
      <point x="427" y="639"/>
      <point x="453" y="626" type="curve"/>
      <point x="219" y="83" type="line"/>
      <point x="158" y="138"/>
      <point x="130" y="233"/>
    </contour>
  </outline>
</glyph>
<glyph name="Ugrave" format="1">
  <advance width="667"/>
  <unicode hex="00D9"/>
  <outline>
    <contour>
      <point x="333" y="35" type="curve"/>
      <point x="218" y="35"/>
      <point x="147" y="125"/>
      <point x="147" y="242" type="curve"/>
      <point x="147" y="680" type="line"/>
      <point x="92" y="680" type="line"/>
      <point x="92" y="239" type="line" smooth="yes"/>
      <point x="92" y="93"/>
      <point x="179" y="-12"/>
      <point x="333" y="-12" type="curve"/>
      <point x="489" y="-12"/>
      <point x="575" y="93"/>
      <point x="575" y="239" type="curve"/>
      <point x="575" y="680" type="line"/>
      <point x="519" y="680" type="line"/>
      <point x="519" y="242" type="line" smooth="yes"/>
      <point x="519" y="125"/>
      <point x="452" y="35"/>
    </contour>
    <contour>
      <point x="248" y="892" type="line"/>
      <point x="333" y="739" type="line"/>
      <point x="375" y="739" type="line"/>
      <point x="314" y="892" type="line"/>
    </contour>
  </outline>
</glyph>
<glyph name="Ucircumflex" format="1">
  <advance width="667"/>
  <unicode hex="00DB"/>
  <outline>
    <contour>
      <point x="333" y="35" type="curve"/>
      <point x="218" y="35"/>
      <point x="147" y="125"/>
      <point x="147" y="242" type="curve"/>
      <point x="147" y="680" type="line"/>
      <point x="92" y="680" type="line"/>
      <point x="92" y="239" type="line" smooth="yes"/>
      <point x="92" y="93"/>
      <point x="179" y="-12"/>
      <point x="333" y="-12" type="curve"/>
      <point x="489" y="-12"/>
      <point x="575" y="93"/>
      <point x="575" y="239" type="curve"/>
      <point x="575" y="680" type="line"/>
      <point x="519" y="680" type="line"/>
      <point x="519" y="242" type="line" smooth="yes"/>
      <point x="519" y="125"/>
      <point x="452" y="35"/>
    </contour>
    <contour>
      <point x="253" y="739" type="line"/>
      <point x="334" y="853" type="line"/>
      <point x="412" y="739" type="line"/>
      <point x="469" y="739" type="line"/>
      <point x="358" y="892" type="line"/>
      <point x="308" y="892" type="line"/>
      <point x="198" y="739" type="line"/>
    </contour>
  </outline>
</glyph>
<glyph name="Udieresis" format="1">
  <advance width="667"/>
  <unicode hex="00DC"/>
  <outline>
    <contour>
      <point x="333" y="35" type="curve"/>
      <point x="218" y="35"/>
      <point x="147" y="125"/>
      <point x="147" y="242" type="curve"/>
      <point x="147" y="680" type="line"/>
      <point x="92" y="680" type="line"/>
      <point x="92" y="239" type="line" smooth="yes"/>
      <point x="92" y="93"/>
      <point x="179" y="-12"/>
      <point x="333" y="-12" type="curve"/>
      <point x="489" y="-12"/>
      <point x="575" y="93"/>
      <point x="575" y="239" type="curve"/>
      <point x="575" y="680" type="line"/>
      <point x="519" y="680" type="line"/>
      <point x="519" y="242" type="line" smooth="yes"/>
      <point x="519" y="125"/>
      <point x="452" y="35"/>
    </contour>
    <contour>
      <point x="298" y="808" type="curve"/>
      <point x="298" y="830"/>
      <point x="280" y="847"/>
      <point x="258" y="847" type="curve"/>
      <point x="235" y="847"/>
      <point x="218" y="830"/>
      <point x="218" y="808" type="curve"/>
      <point x="218" y="785"/>
      <point x="235" y="768"/>
      <point x="258" y="768" type="curve"/>
      <point x="280" y="768"/>
      <point x="298" y="785"/>
    </contour>
    <contour>
      <point x="456" y="808" type="curve"/>
      <point x="456" y="830"/>
      <point x="438" y="847"/>
      <point x="416" y="847" type="curve"/>
      <point x="392" y="847"/>
      <point x="376" y="830"/>
      <point x="376" y="808" type="curve"/>
      <point x="376" y="785"/>
      <point x="392" y="768"/>
      <point x="416" y="768" type="curve"/>
      <point x="438" y="768"/>
      <point x="456" y="785"/>
    </contour>
  </outline>
</glyph>
<glyph name="Yacute" format="1">
  <advance width="541"/>
  <unicode hex="00DD"/>
  <outline>
    <contour>
      <point x="240" y="0" type="line"/>
      <point x="296" y="0" type="line"/>
      <point x="296" y="278" type="line"/>
      <point x="534" y="680" type="line"/>
      <point x="472" y="680" type="line"/>
      <point x="268" y="328" type="line"/>
      <point x="68" y="680" type="line"/>
      <point x="8" y="669" type="line"/>
      <point x="241" y="272" type="line"/>
    </contour>
    <contour>
      <point x="284" y="892" type="line"/>
      <point x="224" y="739" type="line"/>
      <point x="265" y="739" type="line"/>
      <point x="351" y="892" type="line"/>
    </contour>
  </outline>
</glyph>
<glyph name="Thorn" format="1">
  <advance width="575"/>
  <unicode hex="00DE"/>
  <outline>
    <contour>
      <point x="279" y="518" type="line" smooth="yes"/>
      <point x="389" y="518"/>
      <point x="460" y="476"/>
      <point x="460" y="358" type="curve" smooth="yes"/>
      <point x="460" y="244"/>
      <point x="375" y="194"/>
      <point x="268" y="194" type="curve" smooth="yes"/>
      <point x="158" y="194" type="line"/>
      <point x="158" y="518" type="line"/>
    </contour>
    <contour>
      <point x="158" y="680" type="line"/>
      <point x="102" y="680" type="line"/>
      <point x="102" y="0" type="line"/>
      <point x="158" y="0" type="line"/>
      <point x="158" y="148" type="line"/>
      <point x="261" y="148" type="line" smooth="yes"/>
      <point x="402" y="148"/>
      <point x="517" y="212"/>
      <point x="517" y="359" type="curve" smooth="yes"/>
      <point x="517" y="508"/>
      <point x="414" y="564"/>
      <point x="272" y="564" type="curve" smooth="yes"/>
      <point x="158" y="564" type="line"/>
    </contour>
  </outline>
</glyph>
<glyph name="germandbls" format="1">
  <advance width="573"/>
  <unicode hex="00DF"/>
  <outline>
    <contour>
      <point x="291" y="680" type="curve"/>
      <point x="166" y="680"/>
      <point x="87" y="606"/>
      <point x="87" y="473" type="curve"/>
      <point x="87" y="0" type="line"/>
      <point x="143" y="0" type="line"/>
      <point x="143" y="473" type="line" smooth="yes"/>
      <point x="143" y="564"/>
      <point x="193" y="633"/>
      <point x="292" y="633" type="curve"/>
      <point x="365" y="633"/>
      <point x="426" y="590"/>
      <point x="426" y="502" type="curve"/>
      <point x="426" y="417"/>
      <point x="381" y="375"/>
      <point x="261" y="375" type="curve"/>
      <point x="234" y="375" type="line"/>
      <point x="234" y="330" type="line"/>
      <point x="279" y="330" type="line" smooth="yes"/>
      <point x="389" y="330"/>
      <point x="460" y="288"/>
      <point x="460" y="186" type="curve"/>
      <point x="460" y="80"/>
      <point x="376" y="45"/>
      <point x="269" y="45" type="curve"/>
      <point x="218" y="45" type="line"/>
      <point x="218" y="0" type="line"/>
      <point x="261" y="0" type="line" smooth="yes"/>
      <point x="403" y="0"/>
      <point x="517" y="44"/>
      <point x="517" y="188" type="curve"/>
      <point x="517" y="275"/>
      <point x="465" y="331"/>
      <point x="392" y="356" type="curve"/>
      <point x="450" y="383"/>
      <point x="483" y="432"/>
      <point x="483" y="503" type="curve"/>
      <point x="483" y="621"/>
      <point x="396" y="680"/>
    </contour>
  </outline>
</glyph>
<glyph name="atilde" format="1">
  <advance width="490"/>
  <unicode hex="00E3"/>
  <outline>
    <contour>
      <point x="241" y="498" type="curve" smooth="yes"/>
      <point x="201" y="498"/>
      <point x="123" y="482"/>
      <point x="86" y="456" type="curve"/>
      <point x="105" y="417" type="line"/>
      <point x="142" y="435"/>
      <point x="175" y="451"/>
      <point x="244" y="451" type="curve" smooth="yes"/>
      <point x="323" y="451"/>
      <point x="360" y="402"/>
      <point x="360" y="335" type="curve" smooth="yes"/>
      <point x="360" y="281" type="line"/>
      <point x="225" y="281" type="line" smooth="yes"/>
      <point x="123" y="281"/>
      <point x="52" y="229"/>
      <point x="52" y="136" type="curve" smooth="yes"/>
      <point x="52" y="51"/>
      <point x="105" y="-13"/>
      <point x="215" y="-13" type="curve" smooth="yes"/>
      <point x="274" y="-13"/>
      <point x="331" y="17"/>
      <point x="363" y="52" type="curve"/>
      <point x="381" y="0" type="line"/>
      <point x="415" y="0" type="line"/>
      <point x="415" y="340" type="line" smooth="yes"/>
      <point x="415" y="435"/>
      <point x="352" y="498"/>
    </contour>
    <contour>
      <point x="216" y="33" type="curve" smooth="yes"/>
      <point x="143" y="33"/>
      <point x="108" y="83"/>
      <point x="108" y="136" type="curve" smooth="yes"/>
      <point x="108" y="194"/>
      <point x="145" y="242"/>
      <point x="226" y="242" type="curve" smooth="yes"/>
      <point x="360" y="242" type="line"/>
      <point x="360" y="113" type="line"/>
      <point x="327" y="69"/>
      <point x="279" y="33"/>
    </contour>
    <contour>
      <point x="297" y="608" type="curve" smooth="yes"/>
      <point x="345" y="608"/>
      <point x="381" y="632"/>
      <point x="381" y="699" type="curve"/>
      <point x="339" y="699" type="line"/>
      <point x="336" y="668"/>
      <point x="320" y="651"/>
      <point x="297" y="651" type="curve" smooth="yes"/>
      <point x="262" y="651"/>
      <point x="241" y="703"/>
      <point x="185" y="703" type="curve" smooth="yes"/>
      <point x="137" y="703"/>
      <point x="101" y="679"/>
      <point x="101" y="612" type="curve"/>
      <point x="144" y="612" type="line"/>
      <point x="147" y="643"/>
      <point x="162" y="660"/>
      <point x="185" y="660" type="curve" smooth="yes"/>
      <point x="220" y="660"/>
      <point x="252" y="608"/>
    </contour>
  </outline>
</glyph>
<glyph name="adieresis" format="1">
  <advance width="490"/>
  <unicode hex="00E4"/>
  <outline>
    <contour>
      <point x="241" y="498" type="curve"/>
      <point x="201" y="498"/>
      <point x="123" y="482"/>
      <point x="86" y="456" type="curve"/>
      <point x="105" y="417" type="line"/>
      <point x="142" y="435"/>
      <point x="175" y="451"/>
      <point x="244" y="451" type="curve"/>
      <point x="323" y="451"/>
      <point x="360" y="402"/>
      <point x="360" y="335" type="curve"/>
      <point x="360" y="281" type="line"/>
      <point x="225" y="281" type="line" smooth="yes"/>
      <point x="123" y="281"/>
      <point x="52" y="229"/>
      <point x="52" y="136" type="curve"/>
      <point x="52" y="51"/>
      <point x="105" y="-13"/>
      <point x="215" y="-13" type="curve"/>
      <point x="274" y="-13"/>
      <point x="331" y="17"/>
      <point x="363" y="52" type="curve"/>
      <point x="381" y="0" type="line"/>
      <point x="415" y="0" type="line"/>
      <point x="415" y="340" type="line" smooth="yes"/>
      <point x="415" y="435"/>
      <point x="352" y="498"/>
    </contour>
    <contour>
      <point x="216" y="33" type="curve"/>
      <point x="143" y="33"/>
      <point x="108" y="83"/>
      <point x="108" y="136" type="curve"/>
      <point x="108" y="194"/>
      <point x="145" y="242"/>
      <point x="226" y="242" type="curve"/>
      <point x="360" y="242" type="line"/>
      <point x="360" y="113" type="line"/>
      <point x="327" y="69"/>
      <point x="279" y="33"/>
    </contour>
    <contour>
      <point x="205" y="658" type="curve"/>
      <point x="205" y="680"/>
      <point x="186" y="697"/>
      <point x="165" y="697" type="curve"/>
      <point x="140" y="697"/>
      <point x="124" y="680"/>
      <point x="124" y="658" type="curve"/>
      <point x="124" y="635"/>
      <point x="140" y="618"/>
      <point x="165" y="618" type="curve"/>
      <point x="186" y="618"/>
      <point x="205" y="635"/>
    </contour>
    <contour>
      <point x="362" y="658" type="curve"/>
      <point x="362" y="680"/>
      <point x="344" y="697"/>
      <point x="322" y="697" type="curve"/>
      <point x="298" y="697"/>
      <point x="282" y="680"/>
      <point x="282" y="658" type="curve"/>
      <point x="282" y="635"/>
      <point x="298" y="618"/>
      <point x="322" y="618" type="curve"/>
      <point x="344" y="618"/>
      <point x="362" y="635"/>
    </contour>
  </outline>
</glyph>
<glyph name="aring" format="1">
  <advance width="490"/>
  <unicode hex="00E5"/>
  <outline>
    <contour>
      <point x="241" y="498" type="curve"/>
      <point x="201" y="498"/>
      <point x="123" y="482"/>
      <point x="86" y="456" type="curve"/>
      <point x="105" y="417" type="line"/>
      <point x="142" y="435"/>
      <point x="175" y="451"/>
      <point x="244" y="451" type="curve"/>
      <point x="323" y="451"/>
      <point x="360" y="402"/>
      <point x="360" y="335" type="curve"/>
      <point x="360" y="281" type="line"/>
      <point x="225" y="281" type="line" smooth="yes"/>
      <point x="123" y="281"/>
      <point x="52" y="229"/>
      <point x="52" y="136" type="curve"/>
      <point x="52" y="51"/>
      <point x="105" y="-13"/>
      <point x="215" y="-13" type="curve"/>
      <point x="274" y="-13"/>
      <point x="331" y="17"/>
      <point x="363" y="52" type="curve"/>
      <point x="381" y="0" type="line"/>
      <point x="415" y="0" type="line"/>
      <point x="415" y="340" type="line" smooth="yes"/>
      <point x="415" y="435"/>
      <point x="352" y="498"/>
    </contour>
    <contour>
      <point x="216" y="33" type="curve"/>
      <point x="143" y="33"/>
      <point x="108" y="83"/>
      <point x="108" y="136" type="curve"/>
      <point x="108" y="194"/>
      <point x="145" y="242"/>
      <point x="226" y="242" type="curve"/>
      <point x="360" y="242" type="line"/>
      <point x="360" y="113" type="line"/>
      <point x="327" y="69"/>
      <point x="279" y="33"/>
    </contour>
    <contour>
      <point x="290" y="675" type="curve"/>
      <point x="290" y="648"/>
      <point x="270" y="628"/>
      <point x="243" y="628" type="curve"/>
      <point x="216" y="628"/>
      <point x="196" y="648"/>
      <point x="196" y="675" type="curve"/>
      <point x="196" y="703"/>
      <point x="216" y="723"/>
      <point x="243" y="723" type="curve"/>
      <point x="270" y="723"/>
      <point x="290" y="703"/>
    </contour>
    <contour>
      <point x="331" y="675" type="curve"/>
      <point x="331" y="723"/>
      <point x="291" y="759"/>
      <point x="243" y="759" type="curve"/>
      <point x="195" y="759"/>
      <point x="154" y="723"/>
      <point x="154" y="675" type="curve"/>
      <point x="154" y="628"/>
      <point x="195" y="594"/>
      <point x="243" y="594" type="curve"/>
      <point x="291" y="594"/>
      <point x="331" y="628"/>
    </contour>
  </outline>
</glyph>
<glyph name="ae" format="1">
  <advance width="819"/>
  <unicode hex="00E6"/>
  <outline>
    <contour>
      <point x="771" y="240" type="line"/>
      <point x="771" y="389"/>
      <point x="707" y="498"/>
      <point x="578" y="498" type="curve"/>
      <point x="497" y="498"/>
      <point x="437" y="463"/>
      <point x="402" y="406" type="curve"/>
      <point x="378" y="462"/>
      <point x="323" y="498"/>
      <point x="241" y="498" type="curve"/>
      <point x="201" y="498"/>
      <point x="123" y="482"/>
      <point x="86" y="456" type="curve"/>
      <point x="105" y="417" type="line"/>
      <point x="142" y="435"/>
      <point x="175" y="451"/>
      <point x="244" y="451" type="curve"/>
      <point x="323" y="451"/>
      <point x="360" y="402"/>
      <point x="360" y="335" type="curve"/>
      <point x="360" y="281" type="line"/>
      <point x="225" y="281" type="line" smooth="yes"/>
      <point x="123" y="281"/>
      <point x="52" y="229"/>
      <point x="52" y="136" type="curve"/>
      <point x="52" y="51"/>
      <point x="104" y="-13"/>
      <point x="217" y="-13" type="curve"/>
      <point x="301" y="-13"/>
      <point x="369" y="38"/>
      <point x="400" y="85" type="curve"/>
      <point x="436" y="24"/>
      <point x="502" y="-13"/>
      <point x="595" y="-13" type="curve"/>
      <point x="635" y="-13"/>
      <point x="711" y="0"/>
      <point x="750" y="25" type="curve"/>
      <point x="731" y="66" type="line"/>
      <point x="697" y="49"/>
      <point x="659" y="32"/>
      <point x="588" y="32" type="curve"/>
      <point x="467" y="32"/>
      <point x="418" y="124"/>
      <point x="417" y="240" type="curve"/>
    </contour>
    <contour>
      <point x="216" y="33" type="curve"/>
      <point x="143" y="33"/>
      <point x="108" y="83"/>
      <point x="108" y="136" type="curve"/>
      <point x="108" y="194"/>
      <point x="145" y="241"/>
      <point x="226" y="241" type="curve"/>
      <point x="360" y="241" type="line"/>
      <point x="360" y="201"/>
      <point x="367" y="165"/>
      <point x="378" y="132" type="curve"/>
      <point x="346" y="79"/>
      <point x="291" y="33"/>
    </contour>
    <contour>
      <point x="571" y="451" type="curve"/>
      <point x="667" y="451"/>
      <point x="705" y="375"/>
      <point x="714" y="280" type="curve"/>
      <point x="418" y="280" type="line"/>
      <point x="429" y="375"/>
      <point x="475" y="451"/>
    </contour>
  </outline>
</glyph>
<glyph name="ccedilla" format="1">
  <advance width="456"/>
  <unicode hex="00E7"/>
  <outline>
    <contour>
      <point x="404" y="28" type="curve"/>
      <point x="384" y="67" type="line"/>
      <point x="349" y="49"/>
      <point x="329" y="33"/>
      <point x="260" y="33" type="curve"/>
      <point x="150" y="33"/>
      <point x="107" y="129"/>
      <point x="107" y="246" type="curve"/>
      <point x="107" y="364"/>
      <point x="158" y="451"/>
      <point x="265" y="451" type="curve"/>
      <point x="331" y="451"/>
      <point x="355" y="433"/>
      <point x="389" y="417" type="curve"/>
      <point x="409" y="456" type="line"/>
      <point x="370" y="482"/>
      <point x="307" y="498"/>
      <point x="268" y="498" type="curve"/>
      <point x="125" y="498"/>
      <point x="51" y="391"/>
      <point x="50" y="245" type="curve"/>
      <point x="50" y="105"/>
      <point x="108" y="3"/>
      <point x="230" y="-11" type="curve"/>
      <point x="204" y="-79" type="line"/>
      <point x="261" y="-82"/>
      <point x="298" y="-108"/>
      <point x="298" y="-136" type="curve"/>
      <point x="298" y="-162"/>
      <point x="269" y="-180"/>
      <point x="235" y="-180" type="curve"/>
      <point x="214" y="-180"/>
      <point x="187" y="-172"/>
      <point x="176" y="-166" type="curve"/>
      <point x="160" y="-202" type="line"/>
      <point x="178" y="-213"/>
      <point x="212" y="-221"/>
      <point x="236" y="-221" type="curve"/>
      <point x="298" y="-221"/>
      <point x="347" y="-190"/>
      <point x="347" y="-134" type="curve"/>
      <point x="347" y="-99"/>
      <point x="313" y="-61"/>
      <point x="261" y="-53" type="curve"/>
      <point x="276" y="-12" type="line"/>
      <point x="317" y="-9"/>
      <point x="368" y="6"/>
    </contour>
  </outline>
</glyph>
<glyph name="edieresis" format="1">
  <advance width="509"/>
  <unicode hex="00EB"/>
  <outline>
    <contour>
      <point x="461" y="240" type="line"/>
      <point x="461" y="389"/>
      <point x="394" y="498"/>
      <point x="266" y="498" type="curve"/>
      <point x="123" y="498"/>
      <point x="50" y="391"/>
      <point x="50" y="245" type="curve" smooth="yes"/>
      <point x="50" y="94"/>
      <point x="124" y="-13"/>
      <point x="283" y="-13" type="curve"/>
      <point x="322" y="-13"/>
      <point x="401" y="0"/>
      <point x="441" y="25" type="curve"/>
      <point x="420" y="66" type="line"/>
      <point x="386" y="49"/>
      <point x="348" y="32"/>
      <point x="277" y="32" type="curve"/>
      <point x="156" y="32"/>
      <point x="108" y="124"/>
      <point x="107" y="240" type="curve"/>
    </contour>
    <contour>
      <point x="261" y="451" type="curve"/>
      <point x="357" y="451"/>
      <point x="395" y="375"/>
      <point x="404" y="280" type="curve"/>
      <point x="109" y="280" type="line"/>
      <point x="119" y="375"/>
      <point x="165" y="451"/>
    </contour>
    <contour>
      <point x="225" y="658" type="curve"/>
      <point x="225" y="680"/>
      <point x="207" y="697"/>
      <point x="184" y="697" type="curve"/>
      <point x="160" y="697"/>
      <point x="144" y="680"/>
      <point x="144" y="658" type="curve"/>
      <point x="144" y="635"/>
      <point x="160" y="618"/>
      <point x="184" y="618" type="curve"/>
      <point x="207" y="618"/>
      <point x="225" y="635"/>
    </contour>
    <contour>
      <point x="382" y="658" type="curve"/>
      <point x="382" y="680"/>
      <point x="364" y="697"/>
      <point x="342" y="697" type="curve"/>
      <point x="318" y="697"/>
      <point x="301" y="680"/>
      <point x="301" y="658" type="curve"/>
      <point x="301" y="635"/>
      <point x="318" y="618"/>
      <point x="342" y="618" type="curve"/>
      <point x="364" y="618"/>
      <point x="382" y="635"/>
    </contour>
  </outline>
</glyph>
<glyph name="igrave" format="1">
  <advance width="220"/>
  <unicode hex="00EC"/>
  <outline>
    <contour>
      <point x="82" y="0" type="line"/>
      <point x="138" y="0" type="line"/>
      <point x="138" y="485" type="line"/>
      <point x="82" y="485" type="line"/>
    </contour>
    <contour>
      <point x="12" y="742" type="line"/>
      <point x="97" y="589" type="line"/>
      <point x="139" y="589" type="line"/>
      <point x="78" y="742" type="line"/>
    </contour>
  </outline>
</glyph>
<glyph name="iacute" format="1">
  <advance width="220"/>
  <unicode hex="00ED"/>
  <outline>
    <contour>
      <point x="82" y="0" type="line"/>
      <point x="138" y="0" type="line"/>
      <point x="138" y="485" type="line"/>
      <point x="82" y="485" type="line"/>
    </contour>
    <contour>
      <point x="141" y="742" type="line"/>
      <point x="81" y="589" type="line"/>
      <point x="122" y="589" type="line"/>
      <point x="208" y="742" type="line"/>
    </contour>
  </outline>
</glyph>
<glyph name="icircumflex" format="1">
  <advance width="220"/>
  <unicode hex="00EE"/>
  <outline>
    <contour>
      <point x="82" y="0" type="line"/>
      <point x="138" y="0" type="line"/>
      <point x="138" y="485" type="line"/>
      <point x="82" y="485" type="line"/>
    </contour>
    <contour>
      <point x="30" y="589" type="line"/>
      <point x="111" y="702" type="line"/>
      <point x="189" y="589" type="line"/>
      <point x="246" y="589" type="line"/>
      <point x="135" y="742" type="line"/>
      <point x="85" y="742" type="line"/>
      <point x="-26" y="589" type="line"/>
    </contour>
  </outline>
</glyph>
<glyph name="idieresis" format="1">
  <advance width="220"/>
  <unicode hex="00EF"/>
  <outline>
    <contour>
      <point x="82" y="0" type="line"/>
      <point x="138" y="0" type="line"/>
      <point x="138" y="485" type="line"/>
      <point x="82" y="485" type="line"/>
    </contour>
    <contour>
      <point x="72" y="658" type="curve"/>
      <point x="72" y="680"/>
      <point x="53" y="697"/>
      <point x="31" y="697" type="curve"/>
      <point x="8" y="697"/>
      <point x="-9" y="680"/>
      <point x="-9" y="658" type="curve"/>
      <point x="-9" y="635"/>
      <point x="8" y="618"/>
      <point x="31" y="618" type="curve"/>
      <point x="53" y="618"/>
      <point x="72" y="635"/>
    </contour>
    <contour>
      <point x="230" y="658" type="curve"/>
      <point x="230" y="680"/>
      <point x="211" y="697"/>
      <point x="189" y="697" type="curve"/>
      <point x="166" y="697"/>
      <point x="148" y="680"/>
      <point x="148" y="658" type="curve"/>
      <point x="148" y="635"/>
      <point x="166" y="618"/>
      <point x="189" y="618" type="curve"/>
      <point x="211" y="618"/>
      <point x="230" y="635"/>
    </contour>
  </outline>
</glyph>
<glyph name="eth" format="1">
  <advance width="527"/>
  <unicode hex="00F0"/>
  <outline>
    <contour>
      <point x="126" y="698" type="curve"/>
      <point x="118" y="686"/>
      <point x="109" y="675"/>
      <point x="101" y="664" type="curve"/>
      <point x="150" y="650"/>
      <point x="198" y="625"/>
      <point x="240" y="592" type="curve"/>
      <point x="141" y="505" type="line"/>
      <point x="168" y="471" type="line"/>
      <point x="273" y="564" type="line"/>
      <point x="345" y="497"/>
      <point x="396" y="407"/>
      <point x="409" y="311" type="curve"/>
      <point x="375" y="355"/>
      <point x="308" y="387"/>
      <point x="248" y="387" type="curve" smooth="yes"/>
      <point x="123" y="387"/>
      <point x="50" y="292"/>
      <point x="50" y="190" type="curve" smooth="yes"/>
      <point x="50" y="85"/>
      <point x="129" y="-13"/>
      <point x="248" y="-13" type="curve" smooth="yes"/>
      <point x="382" y="-13"/>
      <point x="469" y="83"/>
      <point x="469" y="261" type="curve" smooth="yes"/>
      <point x="469" y="393"/>
      <point x="402" y="513"/>
      <point x="309" y="596" type="curve"/>
      <point x="381" y="659" type="line"/>
      <point x="354" y="693" type="line"/>
      <point x="276" y="623" type="line"/>
      <point x="229" y="658"/>
      <point x="177" y="683"/>
    </contour>
    <contour>
      <point x="249" y="341" type="curve" smooth="yes"/>
      <point x="323" y="341"/>
      <point x="381" y="295"/>
      <point x="410" y="248" type="curve"/>
      <point x="407" y="122"/>
      <point x="357" y="34"/>
      <point x="250" y="34" type="curve" smooth="yes"/>
      <point x="160" y="34"/>
      <point x="107" y="109"/>
      <point x="107" y="185" type="curve" smooth="yes"/>
      <point x="107" y="270"/>
      <point x="159" y="341"/>
    </contour>
  </outline>
</glyph>
<glyph name="ntilde" format="1">
  <advance width="534"/>
  <unicode hex="00F1"/>
  <outline>
    <contour>
      <point x="82" y="0" type="line"/>
      <point x="137" y="0" type="line"/>
      <point x="137" y="360" type="line"/>
      <point x="183" y="418"/>
      <point x="258" y="451"/>
      <point x="301" y="451" type="curve" smooth="yes"/>
      <point x="372" y="451"/>
      <point x="403" y="397"/>
      <point x="403" y="331" type="curve" smooth="yes"/>
      <point x="403" y="0" type="line"/>
      <point x="459" y="0" type="line"/>
      <point x="459" y="337" type="line" smooth="yes"/>
      <point x="459" y="431"/>
      <point x="413" y="498"/>
      <point x="308" y="498" type="curve" smooth="yes"/>
      <point x="248" y="498"/>
      <point x="177" y="457"/>
      <point x="136" y="409" type="curve"/>
      <point x="116" y="485" type="line"/>
      <point x="82" y="485" type="line"/>
    </contour>
    <contour>
      <point x="343" y="608" type="curve" smooth="yes"/>
      <point x="391" y="608"/>
      <point x="426" y="632"/>
      <point x="426" y="699" type="curve"/>
      <point x="384" y="699" type="line"/>
      <point x="381" y="668"/>
      <point x="365" y="651"/>
      <point x="342" y="651" type="curve" smooth="yes"/>
      <point x="308" y="651"/>
      <point x="286" y="703"/>
      <point x="230" y="703" type="curve" smooth="yes"/>
      <point x="184" y="703"/>
      <point x="146" y="679"/>
      <point x="146" y="612" type="curve"/>
      <point x="189" y="612" type="line"/>
      <point x="192" y="643"/>
      <point x="207" y="660"/>
      <point x="230" y="660" type="curve" smooth="yes"/>
      <point x="265" y="660"/>
      <point x="297" y="608"/>
    </contour>
  </outline>
</glyph>
<glyph name="ocircumflex" format="1">
  <advance width="512"/>
  <unicode hex="00F4"/>
  <outline>
    <contour>
      <point x="50" y="245" type="curve"/>
      <point x="50" y="97"/>
      <point x="108" y="-12"/>
      <point x="249" y="-13" type="curve"/>
      <point x="390" y="-13"/>
      <point x="462" y="92"/>
      <point x="462" y="239" type="curve" smooth="yes"/>
      <point x="462" y="389"/>
      <point x="402" y="498"/>
      <point x="259" y="498" type="curve" smooth="yes"/>
      <point x="119" y="498"/>
      <point x="52" y="389"/>
    </contour>
    <contour>
      <point x="261" y="452" type="curve"/>
      <point x="371" y="452"/>
      <point x="406" y="356"/>
      <point x="406" y="239" type="curve" smooth="yes"/>
      <point x="406" y="123"/>
      <point x="358" y="33"/>
      <point x="250" y="33" type="curve"/>
      <point x="141" y="33"/>
      <point x="107" y="127"/>
      <point x="107" y="246" type="curve" smooth="yes"/>
      <point x="107" y="360"/>
      <point x="154" y="452"/>
    </contour>
    <contour>
      <point x="178" y="589" type="line"/>
      <point x="258" y="702" type="line"/>
      <point x="337" y="589" type="line"/>
      <point x="394" y="589" type="line"/>
      <point x="282" y="742" type="line"/>
      <point x="233" y="742" type="line"/>
      <point x="123" y="589" type="line"/>
    </contour>
  </outline>
</glyph>
<glyph name="otilde" format="1">
  <advance width="512"/>
  <unicode hex="00F5"/>
  <outline>
    <contour>
      <point x="50" y="245" type="curve"/>
      <point x="50" y="98"/>
      <point x="108" y="-13"/>
      <point x="249" y="-13" type="curve" smooth="yes"/>
      <point x="389" y="-13"/>
      <point x="462" y="92"/>
      <point x="462" y="239" type="curve" smooth="yes"/>
      <point x="462" y="389"/>
      <point x="402" y="498"/>
      <point x="259" y="498" type="curve" smooth="yes"/>
      <point x="119" y="498"/>
      <point x="52" y="388"/>
    </contour>
    <contour>
      <point x="261" y="452" type="curve" smooth="yes"/>
      <point x="371" y="452"/>
      <point x="406" y="356"/>
      <point x="406" y="239" type="curve" smooth="yes"/>
      <point x="406" y="123"/>
      <point x="357" y="33"/>
      <point x="250" y="33" type="curve" smooth="yes"/>
      <point x="141" y="33"/>
      <point x="107" y="127"/>
      <point x="107" y="246" type="curve" smooth="yes"/>
      <point x="107" y="360"/>
      <point x="155" y="452"/>
    </contour>
    <contour>
      <point x="313" y="608" type="curve" smooth="yes"/>
      <point x="360" y="608"/>
      <point x="396" y="632"/>
      <point x="396" y="699" type="curve"/>
      <point x="354" y="699" type="line"/>
      <point x="351" y="668"/>
      <point x="335" y="651"/>
      <point x="313" y="651" type="curve" smooth="yes"/>
      <point x="278" y="651"/>
      <point x="256" y="703"/>
      <point x="199" y="703" type="curve" smooth="yes"/>
      <point x="152" y="703"/>
      <point x="116" y="679"/>
      <point x="116" y="612" type="curve"/>
      <point x="159" y="612" type="line"/>
      <point x="162" y="643"/>
      <point x="177" y="660"/>
      <point x="201" y="660" type="curve" smooth="yes"/>
      <point x="235" y="660"/>
      <point x="267" y="608"/>
    </contour>
  </outline>
</glyph>
<glyph name="divide" format="1">
  <advance width="488"/>
  <unicode hex="00F7"/>
  <outline>
    <contour>
      <point x="196" y="415" type="curve"/>
      <point x="196" y="389"/>
      <point x="215" y="368"/>
      <point x="243" y="368" type="curve"/>
      <point x="269" y="368"/>
      <point x="290" y="389"/>
      <point x="290" y="415" type="curve"/>
      <point x="290" y="442"/>
      <point x="269" y="462"/>
      <point x="243" y="462" type="curve"/>
      <point x="215" y="462"/>
      <point x="196" y="442"/>
    </contour>
    <contour>
      <point x="199" y="113" type="curve"/>
      <point x="199" y="86"/>
      <point x="218" y="65"/>
      <point x="246" y="65" type="curve"/>
      <point x="272" y="65"/>
      <point x="293" y="86"/>
      <point x="293" y="113" type="curve"/>
      <point x="293" y="139"/>
      <point x="272" y="160"/>
      <point x="246" y="160" type="curve"/>
      <point x="218" y="160"/>
      <point x="199" y="139"/>
    </contour>
    <contour>
      <point x="462" y="251" type="line"/>
      <point x="454" y="295" type="line"/>
      <point x="25" y="295" type="line"/>
      <point x="33" y="251" type="line"/>
    </contour>
  </outline>
</glyph>
<glyph name="oslash" format="1">
  <advance width="512"/>
  <unicode hex="00F8"/>
  <outline>
    <contour>
      <point x="50" y="245" type="curve"/>
      <point x="50" y="97"/>
      <point x="108" y="-12"/>
      <point x="249" y="-13" type="curve"/>
      <point x="390" y="-13"/>
      <point x="462" y="92"/>
      <point x="462" y="239" type="curve" smooth="yes"/>
      <point x="462" y="389"/>
      <point x="402" y="498"/>
      <point x="259" y="498" type="curve" smooth="yes"/>
      <point x="119" y="498"/>
      <point x="52" y="389"/>
    </contour>
    <contour>
      <point x="261" y="451" type="curve"/>
      <point x="290" y="451"/>
      <point x="315" y="444"/>
      <point x="333" y="431" type="curve"/>
      <point x="150" y="76" type="line"/>
      <point x="118" y="114"/>
      <point x="107" y="176"/>
      <point x="107" y="246" type="curve"/>
      <point x="108" y="360"/>
      <point x="154" y="451"/>
    </contour>
    <contour>
      <point x="406" y="239" type="curve"/>
      <point x="405" y="123"/>
      <point x="358" y="34"/>
      <point x="250" y="34" type="curve"/>
      <point x="227" y="34"/>
      <point x="207" y="37"/>
      <point x="190" y="46" type="curve"/>
      <point x="370" y="395" type="line"/>
      <point x="395" y="356"/>
      <point x="406" y="300"/>
    </contour>
  </outline>
</glyph>
<glyph name="ucircumflex" format="1">
  <advance width="513"/>
  <unicode hex="00FB"/>
  <outline>
    <contour>
      <point x="432" y="485" type="line"/>
      <point x="376" y="485" type="line"/>
      <point x="376" y="103" type="line"/>
      <point x="329" y="59"/>
      <point x="268" y="35"/>
      <point x="231" y="35" type="curve"/>
      <point x="162" y="35"/>
      <point x="130" y="87"/>
      <point x="130" y="153" type="curve"/>
      <point x="130" y="485" type="line"/>
      <point x="75" y="485" type="line"/>
      <point x="75" y="150" type="line" smooth="yes"/>
      <point x="75" y="54"/>
      <point x="119" y="-12"/>
      <point x="226" y="-12" type="curve"/>
      <point x="278" y="-12"/>
      <point x="335" y="17"/>
      <point x="377" y="55" type="curve"/>
      <point x="396" y="0" type="line"/>
      <point x="432" y="0" type="line"/>
    </contour>
    <contour>
      <point x="178" y="589" type="line"/>
      <point x="258" y="702" type="line"/>
      <point x="337" y="589" type="line"/>
      <point x="393" y="589" type="line"/>
      <point x="282" y="742" type="line"/>
      <point x="232" y="742" type="line"/>
      <point x="122" y="589" type="line"/>
    </contour>
  </outline>
</glyph>
<glyph name="udieresis" format="1">
  <advance width="513"/>
  <unicode hex="00FC"/>
  <outline>
    <contour>
      <point x="432" y="485" type="line"/>
      <point x="376" y="485" type="line"/>
      <point x="376" y="103" type="line"/>
      <point x="329" y="59"/>
      <point x="268" y="35"/>
      <point x="231" y="35" type="curve"/>
      <point x="162" y="35"/>
      <point x="130" y="87"/>
      <point x="130" y="153" type="curve"/>
      <point x="130" y="485" type="line"/>
      <point x="75" y="485" type="line"/>
      <point x="75" y="150" type="line" smooth="yes"/>
      <point x="75" y="54"/>
      <point x="119" y="-12"/>
      <point x="226" y="-12" type="curve"/>
      <point x="278" y="-12"/>
      <point x="335" y="17"/>
      <point x="377" y="55" type="curve"/>
      <point x="396" y="0" type="line"/>
      <point x="432" y="0" type="line"/>
    </contour>
    <contour>
      <point x="219" y="658" type="curve"/>
      <point x="219" y="680"/>
      <point x="201" y="697"/>
      <point x="179" y="697" type="curve"/>
      <point x="155" y="697"/>
      <point x="138" y="680"/>
      <point x="138" y="658" type="curve"/>
      <point x="138" y="635"/>
      <point x="155" y="618"/>
      <point x="179" y="618" type="curve"/>
      <point x="201" y="618"/>
      <point x="219" y="635"/>
    </contour>
    <contour>
      <point x="377" y="658" type="curve"/>
      <point x="377" y="680"/>
      <point x="359" y="697"/>
      <point x="337" y="697" type="curve"/>
      <point x="314" y="697"/>
      <point x="296" y="680"/>
      <point x="296" y="658" type="curve"/>
      <point x="296" y="635"/>
      <point x="314" y="618"/>
      <point x="337" y="618" type="curve"/>
      <point x="359" y="618"/>
      <point x="377" y="635"/>
    </contour>
  </outline>
</glyph>
<glyph name="thorn" format="1">
  <advance width="531"/>
  <unicode hex="00FE"/>
  <outline>
    <contour>
      <point x="82" y="-219" type="line"/>
      <point x="137" y="-208" type="line"/>
      <point x="137" y="40" type="line"/>
      <point x="177" y="8"/>
      <point x="227" y="-13"/>
      <point x="272" y="-13" type="curve"/>
      <point x="415" y="-13"/>
      <point x="480" y="93"/>
      <point x="480" y="242" type="curve"/>
      <point x="480" y="391"/>
      <point x="415" y="498"/>
      <point x="272" y="498" type="curve"/>
      <point x="227" y="498"/>
      <point x="177" y="475"/>
      <point x="137" y="444" type="curve"/>
      <point x="137" y="706" type="line"/>
      <point x="82" y="696" type="line"/>
    </contour>
    <contour>
      <point x="271" y="34" type="curve"/>
      <point x="231" y="34"/>
      <point x="179" y="53"/>
      <point x="137" y="92" type="curve"/>
      <point x="137" y="392" type="line"/>
      <point x="179" y="431"/>
      <point x="231" y="451"/>
      <point x="271" y="451" type="curve"/>
      <point x="381" y="451"/>
      <point x="424" y="360"/>
      <point x="424" y="241" type="curve"/>
      <point x="424" y="123"/>
      <point x="381" y="34"/>
    </contour>
  </outline>
</glyph>
<glyph name="ydieresis" format="1">
  <advance width="452"/>
  <unicode hex="00FF"/>
  <outline>
    <contour>
      <point x="114" y="658" type="curve" smooth="yes"/>
      <point x="114" y="635"/>
      <point x="130" y="618"/>
      <point x="154" y="618" type="curve" smooth="yes"/>
      <point x="176" y="618"/>
      <point x="194" y="635"/>
      <point x="194" y="658" type="curve" smooth="yes"/>
      <point x="194" y="680"/>
      <point x="176" y="697"/>
      <point x="154" y="697" type="curve" smooth="yes"/>
      <point x="130" y="697"/>
      <point x="114" y="680"/>
    </contour>
    <contour>
      <point x="271" y="658" type="curve" smooth="yes"/>
      <point x="271" y="635"/>
      <point x="288" y="618"/>
      <point x="312" y="618" type="curve" smooth="yes"/>
      <point x="334" y="618"/>
      <point x="352" y="635"/>
      <point x="352" y="658" type="curve" smooth="yes"/>
      <point x="352" y="680"/>
      <point x="334" y="697"/>
      <point x="312" y="697" type="curve" smooth="yes"/>
      <point x="288" y="697"/>
      <point x="271" y="680"/>
    </contour>
    <contour>
      <point x="206" y="-3" type="line"/>
      <point x="174" y="-98" type="line" smooth="yes"/>
      <point x="159" y="-144"/>
      <point x="127" y="-160"/>
      <point x="77" y="-180" type="curve"/>
      <point x="88" y="-219" type="line"/>
      <point x="150" y="-207"/>
      <point x="203" y="-163"/>
      <point x="221" y="-112" type="curve" smooth="yes"/>
      <point x="437" y="485" type="line"/>
      <point x="382" y="485" type="line"/>
      <point x="332" y="346"/>
      <point x="281" y="208"/>
      <point x="230" y="69" type="curve"/>
      <point x="71" y="485" type="line"/>
      <point x="15" y="475" type="line"/>
    </contour>
  </outline>
</glyph>
<glyph name="Abreve" format="1">
  <advance width="588"/>
  <unicode hex="0102"/>
  <outline>
    <contour>
      <point x="315" y="680" type="line"/>
      <point x="260" y="680" type="line"/>
      <point x="13" y="0" type="line"/>
      <point x="67" y="0" type="line"/>
      <point x="143" y="208" type="line"/>
      <point x="439" y="208" type="line"/>
      <point x="519" y="0" type="line"/>
      <point x="575" y="10" type="line"/>
    </contour>
    <contour>
      <point x="288" y="607" type="line"/>
      <point x="423" y="253" type="line"/>
      <point x="158" y="253" type="line"/>
    </contour>
    <contour>
      <point x="288" y="751" type="curve"/>
      <point x="378" y="752"/>
      <point x="418" y="814"/>
      <point x="418" y="881" type="curve"/>
      <point x="374" y="881" type="line"/>
      <point x="374" y="837"/>
      <point x="342" y="794"/>
      <point x="288" y="794" type="curve"/>
      <point x="232" y="794"/>
      <point x="201" y="839"/>
      <point x="201" y="881" type="curve"/>
      <point x="158" y="881" type="line"/>
      <point x="158" y="814"/>
      <point x="199" y="752"/>
    </contour>
  </outline>
</glyph>
<glyph name="abreve" format="1">
  <advance width="490"/>
  <unicode hex="0103"/>
  <outline>
    <contour>
      <point x="241" y="498" type="curve"/>
      <point x="201" y="498"/>
      <point x="123" y="482"/>
      <point x="86" y="456" type="curve"/>
      <point x="105" y="417" type="line"/>
      <point x="142" y="435"/>
      <point x="175" y="451"/>
      <point x="244" y="451" type="curve"/>
      <point x="323" y="451"/>
      <point x="360" y="402"/>
      <point x="360" y="335" type="curve"/>
      <point x="360" y="281" type="line"/>
      <point x="225" y="281" type="line" smooth="yes"/>
      <point x="123" y="281"/>
      <point x="52" y="229"/>
      <point x="52" y="136" type="curve"/>
      <point x="52" y="51"/>
      <point x="105" y="-13"/>
      <point x="215" y="-13" type="curve"/>
      <point x="274" y="-13"/>
      <point x="331" y="17"/>
      <point x="363" y="52" type="curve"/>
      <point x="381" y="0" type="line"/>
      <point x="415" y="0" type="line"/>
      <point x="415" y="340" type="line" smooth="yes"/>
      <point x="415" y="435"/>
      <point x="352" y="498"/>
    </contour>
    <contour>
      <point x="216" y="33" type="curve"/>
      <point x="143" y="33"/>
      <point x="108" y="83"/>
      <point x="108" y="136" type="curve"/>
      <point x="108" y="194"/>
      <point x="145" y="242"/>
      <point x="226" y="242" type="curve"/>
      <point x="360" y="242" type="line"/>
      <point x="360" y="113" type="line"/>
      <point x="327" y="69"/>
      <point x="279" y="33"/>
    </contour>
    <contour>
      <point x="242" y="601" type="curve"/>
      <point x="332" y="602"/>
      <point x="372" y="664"/>
      <point x="372" y="731" type="curve"/>
      <point x="328" y="731" type="line"/>
      <point x="328" y="687"/>
      <point x="298" y="644"/>
      <point x="242" y="644" type="curve"/>
      <point x="187" y="644"/>
      <point x="156" y="689"/>
      <point x="156" y="731" type="curve"/>
      <point x="113" y="731" type="line"/>
      <point x="113" y="664"/>
      <point x="154" y="602"/>
    </contour>
  </outline>
</glyph>
<glyph name="Aogonek" format="1">
  <advance width="588"/>
  <unicode hex="0104"/>
  <outline>
    <contour>
      <point x="315" y="680" type="line"/>
      <point x="260" y="680" type="line"/>
      <point x="13" y="0" type="line"/>
      <point x="67" y="0" type="line"/>
      <point x="143" y="208" type="line"/>
      <point x="439" y="208" type="line"/>
      <point x="518" y="2" type="line"/>
      <point x="484" y="-25"/>
      <point x="460" y="-72"/>
      <point x="460" y="-111" type="curve"/>
      <point x="460" y="-169"/>
      <point x="504" y="-207"/>
      <point x="564" y="-207" type="curve"/>
      <point x="598" y="-207"/>
      <point x="627" y="-195"/>
      <point x="644" y="-177" type="curve"/>
      <point x="622" y="-145" type="line"/>
      <point x="606" y="-159"/>
      <point x="589" y="-166"/>
      <point x="567" y="-166" type="curve"/>
      <point x="541" y="-166"/>
      <point x="510" y="-150"/>
      <point x="510" y="-110" type="curve"/>
      <point x="510" y="-66"/>
      <point x="540" y="-19"/>
      <point x="575" y="10" type="curve"/>
    </contour>
    <contour>
      <point x="288" y="607" type="line"/>
      <point x="423" y="253" type="line"/>
      <point x="158" y="253" type="line"/>
    </contour>
  </outline>
</glyph>
<glyph name="aogonek" format="1">
  <advance width="490"/>
  <unicode hex="0105"/>
  <outline>
    <contour>
      <point x="241" y="498" type="curve"/>
      <point x="201" y="498"/>
      <point x="123" y="482"/>
      <point x="86" y="456" type="curve"/>
      <point x="105" y="417" type="line"/>
      <point x="142" y="435"/>
      <point x="175" y="451"/>
      <point x="244" y="451" type="curve"/>
      <point x="323" y="451"/>
      <point x="360" y="402"/>
      <point x="360" y="335" type="curve"/>
      <point x="360" y="281" type="line"/>
      <point x="225" y="281" type="line" smooth="yes"/>
      <point x="123" y="281"/>
      <point x="52" y="229"/>
      <point x="52" y="136" type="curve"/>
      <point x="52" y="51"/>
      <point x="105" y="-13"/>
      <point x="215" y="-13" type="curve"/>
      <point x="274" y="-13"/>
      <point x="331" y="17"/>
      <point x="363" y="52" type="curve"/>
      <point x="374" y="16" type="line"/>
      <point x="339" y="-12"/>
      <point x="305" y="-63"/>
      <point x="305" y="-111" type="curve"/>
      <point x="305" y="-169"/>
      <point x="350" y="-207"/>
      <point x="409" y="-207" type="curve"/>
      <point x="443" y="-207"/>
      <point x="473" y="-195"/>
      <point x="490" y="-177" type="curve"/>
      <point x="468" y="-145" type="line"/>
      <point x="452" y="-159"/>
      <point x="435" y="-166"/>
      <point x="413" y="-166" type="curve"/>
      <point x="387" y="-166"/>
      <point x="356" y="-148"/>
      <point x="356" y="-108" type="curve"/>
      <point x="356" y="-65"/>
      <point x="386" y="-25"/>
      <point x="415" y="0" type="curve"/>
      <point x="415" y="340" type="line" smooth="yes"/>
      <point x="415" y="435"/>
      <point x="352" y="498"/>
    </contour>
    <contour>
      <point x="216" y="33" type="curve"/>
      <point x="143" y="33"/>
      <point x="108" y="83"/>
      <point x="108" y="136" type="curve"/>
      <point x="108" y="194"/>
      <point x="145" y="242"/>
      <point x="226" y="242" type="curve"/>
      <point x="360" y="242" type="line"/>
      <point x="360" y="113" type="line"/>
      <point x="327" y="69"/>
      <point x="279" y="33"/>
    </contour>
  </outline>
</glyph>
<glyph name="cacute" format="1">
  <advance width="456"/>
  <unicode hex="0107"/>
  <outline>
    <contour>
      <point x="261" y="-13" type="curve"/>
      <point x="303" y="-13"/>
      <point x="364" y="3"/>
      <point x="404" y="28" type="curve"/>
      <point x="384" y="67" type="line"/>
      <point x="349" y="49"/>
      <point x="329" y="33"/>
      <point x="260" y="33" type="curve"/>
      <point x="150" y="33"/>
      <point x="107" y="127"/>
      <point x="107" y="246" type="curve" smooth="yes"/>
      <point x="107" y="360"/>
      <point x="158" y="451"/>
      <point x="265" y="451" type="curve"/>
      <point x="331" y="451"/>
      <point x="355" y="433"/>
      <point x="389" y="417" type="curve"/>
      <point x="409" y="456" type="line"/>
      <point x="370" y="482"/>
      <point x="307" y="498"/>
      <point x="268" y="498" type="curve"/>
      <point x="125" y="498"/>
      <point x="50" y="391"/>
      <point x="50" y="245" type="curve" smooth="yes"/>
      <point x="50" y="94"/>
      <point x="118" y="-13"/>
    </contour>
    <contour>
      <point x="278" y="742" type="line"/>
      <point x="217" y="589" type="line"/>
      <point x="259" y="589" type="line"/>
      <point x="344" y="742" type="line"/>
    </contour>
  </outline>
</glyph>
<glyph name="Ccaron" format="1">
  <advance width="584"/>
  <unicode hex="010C"/>
  <outline>
    <contour>
      <point x="363" y="645" type="curve" smooth="yes"/>
      <point x="435" y="645"/>
      <point x="467" y="633"/>
      <point x="508" y="616" type="curve"/>
      <point x="515" y="629"/>
      <point x="521" y="643"/>
      <point x="528" y="657" type="curve"/>
      <point x="490" y="683"/>
      <point x="404" y="694"/>
      <point x="363" y="694" type="curve" smooth="yes"/>
      <point x="166" y="694"/>
      <point x="69" y="536"/>
      <point x="69" y="336" type="curve" smooth="yes"/>
      <point x="69" y="150"/>
      <point x="148" y="-14"/>
      <point x="357" y="-14" type="curve" smooth="yes"/>
      <point x="414" y="-14"/>
      <point x="490" y="3"/>
      <point x="528" y="23" type="curve"/>
      <point x="504" y="65" type="line"/>
      <point x="468" y="49"/>
      <point x="426" y="35"/>
      <point x="354" y="35" type="curve" smooth="yes"/>
      <point x="198" y="35"/>
      <point x="130" y="174"/>
      <point x="130" y="337" type="curve" smooth="yes"/>
      <point x="130" y="521"/>
      <point x="220" y="644"/>
    </contour>
    <contour>
      <point x="440" y="892" type="line"/>
      <point x="360" y="778" type="line"/>
      <point x="333" y="816"/>
      <point x="307" y="854"/>
      <point x="281" y="892" type="curve"/>
      <point x="225" y="892" type="line"/>
      <point x="335" y="739" type="line"/>
      <point x="385" y="739" type="line"/>
      <point x="496" y="892" type="line"/>
    </contour>
  </outline>
</glyph>
<glyph name="ccaron" format="1">
  <advance width="456"/>
  <unicode hex="010D"/>
  <outline>
    <contour>
      <point x="261" y="-13" type="curve" smooth="yes"/>
      <point x="303" y="-13"/>
      <point x="364" y="3"/>
      <point x="404" y="28" type="curve"/>
      <point x="384" y="67" type="line"/>
      <point x="349" y="49"/>
      <point x="329" y="33"/>
      <point x="260" y="33" type="curve" smooth="yes"/>
      <point x="150" y="33"/>
      <point x="107" y="127"/>
      <point x="107" y="246" type="curve" smooth="yes"/>
      <point x="107" y="360"/>
      <point x="159" y="451"/>
      <point x="265" y="451" type="curve" smooth="yes"/>
      <point x="331" y="451"/>
      <point x="355" y="433"/>
      <point x="389" y="417" type="curve"/>
      <point x="409" y="456" type="line"/>
      <point x="370" y="482"/>
      <point x="307" y="498"/>
      <point x="268" y="498" type="curve" smooth="yes"/>
      <point x="126" y="498"/>
      <point x="50" y="391"/>
      <point x="50" y="245" type="curve" smooth="yes"/>
      <point x="50" y="94"/>
      <point x="118" y="-13"/>
    </contour>
    <contour>
      <point x="346" y="742" type="line"/>
      <point x="266" y="628" type="line"/>
      <point x="239" y="666"/>
      <point x="213" y="704"/>
      <point x="187" y="742" type="curve"/>
      <point x="131" y="742" type="line"/>
      <point x="241" y="589" type="line"/>
      <point x="291" y="589" type="line"/>
      <point x="327" y="640"/>
      <point x="364" y="691"/>
      <point x="401" y="742" type="curve"/>
    </contour>
  </outline>
</glyph>
<glyph name="Dcaron" format="1">
  <advance width="675"/>
  <unicode hex="010E"/>
  <outline>
    <contour>
      <point x="102" y="0" type="line"/>
      <point x="309" y="0" type="line" smooth="yes"/>
      <point x="508" y="0"/>
      <point x="605" y="154"/>
      <point x="605" y="344" type="curve" smooth="yes"/>
      <point x="605" y="530"/>
      <point x="525" y="680"/>
      <point x="315" y="680" type="curve" smooth="yes"/>
      <point x="102" y="680" type="line"/>
    </contour>
    <contour>
      <point x="321" y="634" type="line" smooth="yes"/>
      <point x="477" y="634"/>
      <point x="550" y="505"/>
      <point x="550" y="343" type="curve" smooth="yes"/>
      <point x="550" y="167"/>
      <point x="454" y="45"/>
      <point x="311" y="45" type="curve" smooth="yes"/>
      <point x="158" y="45" type="line"/>
      <point x="158" y="634" type="line"/>
    </contour>
    <contour>
      <point x="374" y="891" type="line"/>
      <point x="294" y="777" type="line"/>
      <point x="267" y="815"/>
      <point x="241" y="853"/>
      <point x="215" y="891" type="curve"/>
      <point x="159" y="891" type="line"/>
      <point x="269" y="738" type="line"/>
      <point x="319" y="738" type="line"/>
      <point x="430" y="891" type="line"/>
    </contour>
  </outline>
</glyph>
<glyph name="dcaron" format="1">
  <advance width="667"/>
  <unicode hex="010F"/>
  <outline>
    <contour>
      <point x="449" y="705" type="line"/>
      <point x="393" y="696" type="line"/>
      <point x="393" y="444" type="line"/>
      <point x="354" y="475"/>
      <point x="302" y="498"/>
      <point x="258" y="498" type="curve"/>
      <point x="116" y="498"/>
      <point x="50" y="391"/>
      <point x="50" y="241" type="curve"/>
      <point x="50" y="92"/>
      <point x="116" y="-13"/>
      <point x="258" y="-13" type="curve"/>
      <point x="305" y="-13"/>
      <point x="358" y="10"/>
      <point x="399" y="43" type="curve"/>
      <point x="415" y="0" type="line"/>
      <point x="449" y="0" type="line"/>
    </contour>
    <contour>
      <point x="260" y="451" type="curve"/>
      <point x="300" y="451"/>
      <point x="351" y="431"/>
      <point x="393" y="392" type="curve"/>
      <point x="393" y="92" type="line"/>
      <point x="351" y="53"/>
      <point x="300" y="34"/>
      <point x="260" y="34" type="curve"/>
      <point x="150" y="34"/>
      <point x="107" y="124"/>
      <point x="107" y="243" type="curve"/>
      <point x="107" y="361"/>
      <point x="150" y="451"/>
    </contour>
    <contour>
      <point x="649" y="653" type="curve"/>
      <point x="649" y="680"/>
      <point x="631" y="702"/>
      <point x="606" y="702" type="curve"/>
      <point x="580" y="702"/>
      <point x="563" y="681"/>
      <point x="563" y="658" type="curve"/>
      <point x="563" y="639"/>
      <point x="577" y="617"/>
      <point x="603" y="615" type="curve"/>
      <point x="600" y="580"/>
      <point x="577" y="555"/>
      <point x="543" y="535" type="curve"/>
      <point x="561" y="508" type="line"/>
      <point x="614" y="534"/>
      <point x="649" y="592"/>
    </contour>
  </outline>
</glyph>
<glyph name="Dcroat" format="1">
  <advance width="679"/>
  <unicode hex="0110"/>
  <outline>
    <contour>
      <point x="105" y="0" type="line"/>
      <point x="312" y="0" type="line" smooth="yes"/>
      <point x="512" y="0"/>
      <point x="609" y="154"/>
      <point x="609" y="344" type="curve" smooth="yes"/>
      <point x="609" y="530"/>
      <point x="528" y="680"/>
      <point x="319" y="680" type="curve" smooth="yes"/>
      <point x="105" y="680" type="line"/>
      <point x="105" y="356" type="line"/>
      <point x="15" y="356" type="line"/>
      <point x="24" y="311" type="line"/>
      <point x="105" y="311" type="line"/>
    </contour>
    <contour>
      <point x="263" y="356" type="line"/>
      <point x="161" y="356" type="line"/>
      <point x="161" y="634" type="line"/>
      <point x="324" y="634" type="line" smooth="yes"/>
      <point x="480" y="634"/>
      <point x="553" y="505"/>
      <point x="553" y="343" type="curve" smooth="yes"/>
      <point x="553" y="167"/>
      <point x="457" y="45"/>
      <point x="313" y="45" type="curve" smooth="yes"/>
      <point x="161" y="45" type="line"/>
      <point x="161" y="311" type="line"/>
      <point x="272" y="311" type="line"/>
    </contour>
  </outline>
</glyph>
<glyph name="Emacron" format="1">
  <advance width="519"/>
  <unicode hex="0112"/>
  <outline>
    <contour>
      <point x="102" y="0" type="line"/>
      <point x="484" y="0" type="line"/>
      <point x="478" y="44" type="line"/>
      <point x="158" y="44" type="line"/>
      <point x="158" y="327" type="line"/>
      <point x="363" y="327" type="line"/>
      <point x="358" y="369" type="line"/>
      <point x="158" y="369" type="line"/>
      <point x="158" y="638" type="line"/>
      <point x="461" y="638" type="line"/>
      <point x="456" y="680" type="line"/>
      <point x="102" y="680" type="line"/>
    </contour>
    <contour>
      <point x="153" y="833" type="line"/>
      <point x="153" y="790" type="line"/>
      <point x="394" y="790" type="line"/>
      <point x="394" y="833" type="line"/>
    </contour>
  </outline>
</glyph>
<glyph name="Edotaccent" format="1">
  <advance width="519"/>
  <unicode hex="0116"/>
  <outline>
    <contour>
      <point x="102" y="0" type="line"/>
      <point x="484" y="0" type="line"/>
      <point x="478" y="44" type="line"/>
      <point x="158" y="44" type="line"/>
      <point x="158" y="327" type="line"/>
      <point x="363" y="327" type="line"/>
      <point x="358" y="369" type="line"/>
      <point x="158" y="369" type="line"/>
      <point x="158" y="638" type="line"/>
      <point x="461" y="638" type="line"/>
      <point x="456" y="680" type="line"/>
      <point x="102" y="680" type="line"/>
    </contour>
    <contour>
      <point x="316" y="811" type="curve"/>
      <point x="316" y="835"/>
      <point x="296" y="854"/>
      <point x="273" y="854" type="curve"/>
      <point x="248" y="854"/>
      <point x="230" y="835"/>
      <point x="230" y="811" type="curve"/>
      <point x="230" y="786"/>
      <point x="248" y="768"/>
      <point x="273" y="768" type="curve"/>
      <point x="296" y="768"/>
      <point x="316" y="786"/>
    </contour>
  </outline>
</glyph>
<glyph name="edotaccent" format="1">
  <advance width="509"/>
  <unicode hex="0117"/>
  <outline>
    <contour>
      <point x="461" y="240" type="line"/>
      <point x="461" y="389"/>
      <point x="394" y="498"/>
      <point x="266" y="498" type="curve"/>
      <point x="123" y="498"/>
      <point x="50" y="391"/>
      <point x="50" y="245" type="curve" smooth="yes"/>
      <point x="50" y="94"/>
      <point x="124" y="-13"/>
      <point x="283" y="-13" type="curve"/>
      <point x="322" y="-13"/>
      <point x="401" y="0"/>
      <point x="441" y="25" type="curve"/>
      <point x="420" y="66" type="line"/>
      <point x="386" y="49"/>
      <point x="348" y="32"/>
      <point x="277" y="32" type="curve"/>
      <point x="156" y="32"/>
      <point x="108" y="124"/>
      <point x="107" y="240" type="curve"/>
    </contour>
    <contour>
      <point x="261" y="451" type="curve"/>
      <point x="357" y="451"/>
      <point x="395" y="375"/>
      <point x="404" y="280" type="curve"/>
      <point x="109" y="280" type="line"/>
      <point x="119" y="375"/>
      <point x="165" y="451"/>
    </contour>
    <contour>
      <point x="306" y="661" type="curve"/>
      <point x="306" y="685"/>
      <point x="286" y="704"/>
      <point x="263" y="704" type="curve"/>
      <point x="238" y="704"/>
      <point x="220" y="685"/>
      <point x="220" y="661" type="curve"/>
      <point x="220" y="636"/>
      <point x="238" y="618"/>
      <point x="263" y="618" type="curve"/>
      <point x="286" y="618"/>
      <point x="306" y="636"/>
    </contour>
  </outline>
</glyph>
<glyph name="Eogonek" format="1">
  <advance width="519"/>
  <unicode hex="0118"/>
  <outline>
    <contour>
      <point x="102" y="0" type="line"/>
      <point x="353" y="0" type="line"/>
      <point x="321" y="-28"/>
      <point x="298" y="-73"/>
      <point x="298" y="-111" type="curve"/>
      <point x="298" y="-169"/>
      <point x="343" y="-207"/>
      <point x="403" y="-207" type="curve"/>
      <point x="437" y="-207"/>
      <point x="466" y="-195"/>
      <point x="483" y="-177" type="curve"/>
      <point x="461" y="-145" type="line"/>
      <point x="445" y="-159"/>
      <point x="428" y="-166"/>
      <point x="406" y="-166" type="curve"/>
      <point x="380" y="-166"/>
      <point x="349" y="-150"/>
      <point x="349" y="-110" type="curve"/>
      <point x="349" y="-68"/>
      <point x="379" y="-25"/>
      <point x="413" y="0" type="curve"/>
      <point x="484" y="0" type="line"/>
      <point x="478" y="44" type="line"/>
      <point x="158" y="44" type="line"/>
      <point x="158" y="327" type="line"/>
      <point x="363" y="327" type="line"/>
      <point x="358" y="369" type="line"/>
      <point x="158" y="369" type="line"/>
      <point x="158" y="638" type="line"/>
      <point x="461" y="638" type="line"/>
      <point x="456" y="680" type="line"/>
      <point x="102" y="680" type="line"/>
    </contour>
  </outline>
</glyph>
<glyph name="eogonek" format="1">
  <advance width="509"/>
  <unicode hex="0119"/>
  <outline>
    <contour>
      <point x="461" y="240" type="line"/>
      <point x="461" y="389"/>
      <point x="394" y="498"/>
      <point x="266" y="498" type="curve" smooth="yes"/>
      <point x="124" y="498"/>
      <point x="50" y="391"/>
      <point x="50" y="245" type="curve" smooth="yes"/>
      <point x="50" y="96"/>
      <point x="124" y="-12"/>
      <point x="282" y="-12" type="curve"/>
      <point x="290" y="-12" type="line"/>
      <point x="264" y="-40"/>
      <point x="247" y="-78"/>
      <point x="247" y="-111" type="curve" smooth="yes"/>
      <point x="247" y="-169"/>
      <point x="292" y="-207"/>
      <point x="352" y="-207" type="curve" smooth="yes"/>
      <point x="386" y="-207"/>
      <point x="415" y="-195"/>
      <point x="432" y="-177" type="curve"/>
      <point x="425" y="-166"/>
      <point x="417" y="-155"/>
      <point x="409" y="-144" type="curve"/>
      <point x="394" y="-158"/>
      <point x="377" y="-165"/>
      <point x="355" y="-165" type="curve" smooth="yes"/>
      <point x="329" y="-165"/>
      <point x="298" y="-149"/>
      <point x="298" y="-109" type="curve" smooth="yes"/>
      <point x="298" y="-70"/>
      <point x="326" y="-28"/>
      <point x="357" y="-4" type="curve"/>
      <point x="387" y="2"/>
      <point x="419" y="12"/>
      <point x="441" y="25" type="curve"/>
      <point x="420" y="66" type="line"/>
      <point x="386" y="49"/>
      <point x="348" y="32"/>
      <point x="277" y="32" type="curve" smooth="yes"/>
      <point x="156" y="32"/>
      <point x="108" y="124"/>
      <point x="107" y="240" type="curve"/>
    </contour>
    <contour>
      <point x="261" y="451" type="curve" smooth="yes"/>
      <point x="357" y="451"/>
      <point x="395" y="375"/>
      <point x="404" y="280" type="curve"/>
      <point x="109" y="280" type="line"/>
      <point x="119" y="375"/>
      <point x="165" y="451"/>
    </contour>
  </outline>
</glyph>
<glyph name="Ecaron" format="1">
  <advance width="519"/>
  <unicode hex="011A"/>
  <outline>
    <contour>
      <point x="102" y="0" type="line"/>
      <point x="484" y="0" type="line"/>
      <point x="478" y="44" type="line"/>
      <point x="158" y="44" type="line"/>
      <point x="158" y="327" type="line"/>
      <point x="363" y="327" type="line"/>
      <point x="358" y="369" type="line"/>
      <point x="158" y="369" type="line"/>
      <point x="158" y="638" type="line"/>
      <point x="461" y="638" type="line"/>
      <point x="456" y="680" type="line"/>
      <point x="102" y="680" type="line"/>
    </contour>
    <contour>
      <point x="351" y="892" type="line"/>
      <point x="271" y="778" type="line"/>
      <point x="244" y="816"/>
      <point x="218" y="854"/>
      <point x="192" y="892" type="curve"/>
      <point x="136" y="892" type="line"/>
      <point x="246" y="739" type="line"/>
      <point x="296" y="739" type="line"/>
      <point x="407" y="892" type="line"/>
    </contour>
  </outline>
</glyph>
<glyph name="Gbreve" format="1">
  <advance width="643"/>
  <unicode hex="011E"/>
  <outline>
    <contour>
      <point x="361" y="342" type="line"/>
      <point x="355" y="300" type="line"/>
      <point x="508" y="300" type="line"/>
      <point x="508" y="58" type="line"/>
      <point x="475" y="46"/>
      <point x="434" y="35"/>
      <point x="386" y="35" type="curve" smooth="yes"/>
      <point x="230" y="35"/>
      <point x="130" y="148"/>
      <point x="130" y="331" type="curve" smooth="yes"/>
      <point x="130" y="525"/>
      <point x="238" y="646"/>
      <point x="395" y="646" type="curve" smooth="yes"/>
      <point x="466" y="646"/>
      <point x="498" y="634"/>
      <point x="540" y="617" type="curve"/>
      <point x="559" y="657" type="line"/>
      <point x="522" y="683"/>
      <point x="434" y="694"/>
      <point x="393" y="694" type="curve" smooth="yes"/>
      <point x="197" y="694"/>
      <point x="69" y="548"/>
      <point x="69" y="336" type="curve" smooth="yes"/>
      <point x="69" y="136"/>
      <point x="179" y="-14"/>
      <point x="387" y="-14" type="curve" smooth="yes"/>
      <point x="444" y="-14"/>
      <point x="526" y="6"/>
      <point x="563" y="31" type="curve"/>
      <point x="563" y="342" type="line"/>
    </contour>
    <contour>
      <point x="393" y="751" type="curve"/>
      <point x="483" y="752"/>
      <point x="523" y="814"/>
      <point x="523" y="881" type="curve"/>
      <point x="479" y="881" type="line"/>
      <point x="479" y="837"/>
      <point x="447" y="794"/>
      <point x="393" y="794" type="curve" smooth="yes"/>
      <point x="337" y="794"/>
      <point x="306" y="839"/>
      <point x="306" y="881" type="curve"/>
      <point x="263" y="881" type="line"/>
      <point x="263" y="814"/>
      <point x="304" y="752"/>
    </contour>
  </outline>
</glyph>
